{"glyphs":{"0":{"ha":757,"x_min":81,"x_max":667,"o":"m 81 354 q 106 538 81 461 q 173 663 131 614 q 270 734 215 711 q 386 757 325 757 q 597 656 526 757 q 667 372 667 554 q 644 217 667 286 q 581 97 621 147 q 487 20 542 47 q 369 -7 432 -7 q 254 22 307 -7 q 163 99 201 50 q 103 213 125 147 q 81 354 81 279 m 367 114 q 451 131 413 114 q 519 181 490 147 q 563 263 547 214 q 579 378 579 313 q 530 563 579 497 q 397 629 481 629 q 310 614 351 629 q 239 567 269 599 q 190 487 208 535 q 172 375 172 439 q 188 278 172 325 q 228 195 203 232 q 290 136 254 158 q 367 114 325 114 z "},"1":{"ha":304,"x_min":100,"x_max":214,"o":"m 157 -3 q 110 35 121 -3 q 100 131 100 72 q 103 242 100 178 q 112 375 107 306 q 121 515 117 444 q 126 644 125 585 q 112 673 119 660 q 104 714 104 686 q 109 739 104 726 q 122 763 114 751 q 140 781 131 774 q 157 788 149 788 q 171 784 161 788 q 190 772 181 781 q 207 751 200 764 q 214 719 214 738 q 208 590 213 658 q 200 447 204 521 q 193 296 196 372 q 190 144 190 219 q 195 100 193 124 q 197 57 197 76 q 185 15 197 32 q 157 -3 172 -3 z "},"2":{"ha":607,"x_min":89,"x_max":511,"o":"m 129 43 q 137 92 129 72 q 156 128 144 111 q 180 159 168 144 q 200 192 192 174 q 244 286 218 231 q 296 398 271 342 q 339 506 321 454 q 357 589 357 557 q 328 644 357 628 q 267 660 299 660 q 203 644 225 660 q 170 608 182 628 q 150 573 158 589 q 124 557 142 557 q 106 566 113 557 q 95 588 99 575 q 90 612 92 600 q 89 628 89 624 q 110 703 90 672 q 158 751 129 733 q 217 777 186 769 q 272 785 249 785 q 333 773 303 785 q 389 739 364 761 q 429 685 414 717 q 444 613 444 653 q 425 485 444 551 q 377 355 406 419 q 317 230 349 290 q 263 119 286 169 q 297 117 272 115 q 349 122 321 118 q 405 132 378 126 q 446 142 432 138 q 454 144 447 142 q 464 149 461 146 q 481 138 472 147 q 496 116 489 129 q 507 90 503 103 q 511 67 511 76 q 500 30 511 43 q 476 10 489 17 q 453 3 464 4 q 443 1 443 1 q 417 3 432 1 q 390 6 403 6 q 280 -1 338 6 q 169 -7 222 -7 q 143 7 157 -7 q 129 43 129 21 z "},"3":{"ha":617,"x_min":60,"x_max":529,"o":"m 60 54 q 62 79 60 64 q 68 108 64 94 q 78 131 72 121 q 93 140 85 140 q 122 138 114 140 q 138 131 131 135 q 160 124 146 126 q 206 121 174 121 q 270 124 232 121 q 343 140 308 126 q 403 180 378 153 q 428 254 428 207 q 394 311 428 286 q 317 336 360 336 q 272 324 292 336 q 228 311 251 311 q 176 368 176 311 q 190 410 176 392 q 222 443 203 429 q 263 466 240 457 q 304 482 285 475 q 348 517 325 497 q 390 561 371 538 q 423 610 410 585 q 438 661 436 636 q 409 662 428 661 q 379 663 390 663 q 301 647 343 663 q 232 613 258 632 q 222 607 226 610 q 211 604 218 604 q 183 617 199 604 q 168 650 168 631 q 196 713 168 688 q 262 755 224 739 q 339 778 300 771 q 400 785 378 785 q 497 753 465 785 q 529 651 529 722 q 503 562 529 619 q 424 443 476 504 q 458 415 442 433 q 488 373 475 396 q 509 324 501 350 q 517 275 517 299 q 488 123 517 179 q 406 39 460 67 q 275 3 353 11 q 99 -4 197 -4 q 67 15 75 -4 q 60 54 60 35 z "},"4":{"ha":576,"x_min":63,"x_max":474,"o":"m 222 247 q 103 308 143 251 q 63 460 63 365 l 63 468 l 69 618 q 81 658 71 640 q 114 676 92 676 q 144 647 136 676 q 153 578 153 618 l 149 472 q 161 413 149 435 q 197 381 174 392 q 252 368 219 371 q 326 365 285 365 l 375 365 q 378 410 376 383 q 381 479 379 438 q 383 578 382 521 q 383 715 383 636 q 397 768 385 751 q 429 785 410 785 q 445 778 438 785 q 458 760 453 771 q 467 738 464 750 q 471 717 471 726 q 471 708 471 715 q 469 665 471 700 q 467 553 468 629 q 464 340 465 478 q 470 322 467 333 q 474 296 474 311 q 469 277 474 288 q 460 260 464 267 q 456 227 457 243 q 456 204 456 211 q 458 133 456 163 q 461 64 461 103 q 443 2 461 25 q 397 -21 425 -21 q 375 -3 386 -21 q 364 38 364 14 l 364 243 l 222 247 l 222 247 z "},"5":{"ha":643,"x_min":78,"x_max":571,"o":"m 78 86 q 93 131 78 110 q 126 153 108 153 q 148 147 139 153 q 169 133 157 140 q 197 119 181 125 q 238 113 213 113 q 314 117 278 113 q 376 135 350 122 q 418 172 403 149 q 433 232 433 196 q 426 263 433 242 q 402 306 418 285 q 361 344 386 328 q 301 361 336 361 q 241 347 268 361 q 194 322 214 333 q 148 331 171 322 q 125 374 125 339 q 126 390 125 385 q 133 488 132 428 q 138 609 135 549 q 151 717 142 669 q 182 776 160 765 q 241 780 211 779 q 300 781 271 781 q 411 785 356 781 q 522 790 467 790 q 560 765 550 790 q 571 711 571 739 q 558 663 571 681 q 526 646 544 646 q 495 655 508 646 q 467 664 482 664 q 431 667 453 665 q 382 669 408 668 q 328 670 356 669 q 279 671 301 671 q 250 670 263 671 q 231 669 238 669 l 225 490 q 263 496 244 490 q 304 501 282 501 q 406 481 365 501 q 472 424 447 460 q 508 341 497 389 q 518 240 518 293 q 498 126 518 175 q 443 46 478 78 q 360 -1 408 14 q 257 -17 313 -17 q 204 -13 235 -17 q 145 1 174 -10 q 97 33 117 13 q 78 86 78 53 z "},"6":{"ha":681,"x_min":75,"x_max":614,"o":"m 286 128 q 283 149 283 138 q 283 171 283 161 q 298 269 285 221 q 337 353 311 317 q 399 411 363 389 q 485 433 436 433 q 582 393 550 433 q 614 299 614 353 q 590 180 614 235 q 527 84 567 125 q 437 20 488 43 q 333 -3 386 -3 q 216 14 265 -3 q 135 69 167 31 q 90 169 104 107 q 75 324 75 232 q 85 400 75 354 q 113 497 96 446 q 151 600 131 549 q 194 693 172 651 q 235 760 215 735 q 268 786 254 786 q 302 767 294 786 q 310 721 310 747 q 288 628 310 679 q 238 525 265 578 q 189 420 211 472 q 167 325 167 368 q 171 255 167 288 q 188 196 175 222 q 224 151 200 169 q 286 128 247 133 m 375 133 q 432 149 404 136 q 481 181 460 161 q 516 227 503 201 q 529 282 529 253 q 514 304 529 297 q 483 311 499 311 q 428 292 450 311 q 395 247 407 274 q 379 189 383 219 q 375 133 375 158 z "},"7":{"ha":532,"x_min":53,"x_max":482,"o":"m 158 63 q 158 72 158 65 q 161 93 158 78 q 175 135 163 99 q 208 227 188 172 q 252 347 228 282 q 300 473 276 411 q 344 586 324 535 q 376 665 364 638 l 150 660 q 121 662 138 660 q 89 671 104 664 q 63 692 74 678 q 53 732 53 707 q 64 769 53 751 q 96 788 75 788 q 120 788 108 788 q 151 787 132 788 q 203 786 171 786 q 290 786 236 786 l 424 786 q 435 791 428 789 q 446 793 442 793 q 474 770 465 793 q 482 724 482 747 q 476 683 482 711 q 452 604 469 656 q 404 473 435 553 q 325 276 374 393 q 308 240 318 263 q 288 190 299 217 q 270 136 278 164 q 260 86 263 108 q 243 22 254 50 q 196 -7 232 -7 q 165 15 172 -7 q 158 63 158 36 z "},"8":{"ha":557,"x_min":85,"x_max":503,"o":"m 85 136 q 91 210 85 169 q 110 292 97 251 q 142 369 122 333 q 189 429 161 406 q 148 497 165 460 q 131 579 131 535 q 158 683 131 642 q 224 748 185 724 q 309 783 264 772 q 392 793 354 793 q 438 778 418 793 q 473 738 458 763 q 495 685 488 714 q 503 628 503 656 q 490 570 503 592 q 453 538 476 549 q 428 507 443 525 q 398 471 414 489 q 365 435 382 453 q 335 408 349 418 q 359 353 347 386 q 380 284 371 319 q 395 215 389 249 q 401 158 401 181 q 361 29 401 75 q 244 -17 321 -17 q 185 -11 214 -17 q 133 11 156 -6 q 98 58 111 28 q 85 136 85 88 m 271 503 q 308 521 288 503 q 349 563 328 539 q 390 611 369 586 q 425 651 410 636 q 403 663 421 661 q 371 665 386 665 q 328 660 353 665 q 280 645 303 656 q 240 618 257 635 q 224 579 224 601 q 230 563 224 575 q 244 537 236 550 q 259 513 251 524 q 271 503 267 503 m 172 172 q 187 128 172 139 q 235 117 201 117 q 285 123 261 117 q 310 147 310 129 q 304 188 310 157 q 290 251 299 218 q 272 310 282 285 q 253 336 263 336 q 225 315 239 336 q 199 267 211 294 q 180 212 188 239 q 172 172 172 185 z "},"9":{"ha":636,"x_min":60,"x_max":525,"o":"m 403 42 q 409 124 404 85 q 419 203 414 163 q 429 288 425 244 q 433 383 433 332 q 370 362 400 371 q 318 353 340 353 q 231 365 276 353 q 147 406 185 378 q 85 479 110 435 q 60 589 60 524 q 88 675 60 638 q 153 738 115 713 q 233 776 192 763 q 303 789 275 789 q 374 775 340 789 q 432 734 407 761 q 471 667 457 707 q 485 578 485 628 q 491 567 485 571 q 505 554 497 563 q 519 531 513 546 q 525 489 525 515 q 524 432 525 460 q 519 379 522 404 q 513 256 515 326 q 506 119 511 185 q 492 9 501 54 q 463 -36 482 -36 q 448 -31 458 -36 q 428 -15 438 -25 q 410 9 418 -6 q 403 42 403 24 m 321 476 q 348 478 331 476 q 383 483 365 479 q 413 492 400 486 q 425 508 425 499 l 425 514 q 417 571 425 543 q 394 621 410 599 q 356 656 379 643 q 303 669 333 669 q 256 664 282 669 q 206 646 229 658 q 166 615 182 633 q 150 571 150 596 q 168 531 150 549 q 213 501 186 514 q 268 483 239 489 q 321 476 297 476 z "},"\r":{"ha":0,"x_min":0,"x_max":0,"o":""}," ":{"ha":318,"x_min":0,"x_max":0,"o":""},"ँ":{"ha":0,"x_min":-457,"x_max":-39,"o":"m -244 1090 q -261 1102 -251 1090 q -280 1130 -271 1114 q -295 1160 -289 1146 q -301 1181 -301 1175 q -294 1199 -301 1186 q -276 1226 -286 1213 q -258 1251 -267 1240 q -244 1263 -249 1263 q -234 1251 -243 1263 q -215 1226 -225 1240 q -197 1199 -206 1213 q -189 1181 -189 1186 q -195 1163 -189 1178 q -210 1133 -201 1149 q -228 1103 -218 1117 q -244 1090 -237 1090 m -244 935 q -324 951 -286 935 q -392 995 -362 968 q -440 1058 -422 1022 q -457 1129 -457 1093 q -453 1144 -457 1135 q -443 1161 -449 1153 q -431 1175 -437 1169 q -419 1181 -424 1181 q -417 1178 -417 1181 q -417 1168 -418 1175 q -363 1073 -403 1110 q -244 1036 -324 1036 q -156 1059 -196 1036 q -106 1118 -115 1082 l -99 1179 q -89 1194 -92 1194 q -72 1183 -81 1194 q -56 1156 -64 1172 q -44 1124 -49 1140 q -39 1096 -39 1107 q -55 1033 -39 1063 q -98 981 -71 1003 q -163 947 -125 960 q -244 935 -201 935 z "},"ं":{"ha":0,"x_min":-314,"x_max":-143,"o":"m -232 1063 q -254 1075 -240 1063 q -281 1104 -268 1088 q -304 1138 -294 1121 q -314 1164 -314 1156 q -304 1188 -314 1172 q -281 1220 -294 1204 q -253 1248 -267 1236 q -232 1260 -239 1260 q -211 1248 -226 1260 q -181 1220 -196 1236 q -155 1188 -167 1204 q -143 1164 -143 1172 q -154 1139 -143 1156 q -181 1105 -165 1122 q -210 1075 -196 1088 q -232 1063 -225 1063 z "},"ः":{"ha":417,"x_min":108,"x_max":304,"o":"m 203 413 q 169 428 186 413 q 140 465 153 444 q 117 504 126 486 q 108 526 108 522 q 121 558 108 539 q 150 597 133 578 q 182 629 167 615 q 203 643 197 643 q 228 629 211 643 q 263 597 246 615 q 292 558 279 578 q 304 526 304 538 q 290 492 304 511 q 258 454 276 472 q 224 424 240 436 q 203 413 208 413 m 108 175 q 120 204 108 185 q 148 242 132 224 q 179 274 164 260 q 203 288 194 288 q 234 275 217 288 q 267 244 251 263 q 294 207 283 226 q 304 175 304 188 q 290 126 304 147 q 258 91 276 106 q 224 69 240 76 q 203 61 207 61 q 179 75 194 61 q 148 108 164 89 q 120 146 132 126 q 108 175 108 165 z "},"अ":{"ha":1115,"x_min":72,"x_max":1143,"o":"m 146 231 q 163 149 146 188 q 212 80 179 110 q 291 32 244 50 q 397 14 338 14 q 453 22 426 14 q 499 49 479 31 q 530 98 518 68 q 542 171 542 128 q 523 258 542 215 q 474 326 504 301 l 471 326 q 418 290 451 303 q 353 276 385 276 q 326 288 342 276 q 297 317 311 300 q 274 354 283 335 q 264 389 264 374 q 288 427 264 411 q 342 443 313 443 q 425 432 404 443 l 428 432 q 536 537 501 482 q 571 635 571 592 q 542 700 571 674 q 472 726 513 726 q 416 718 440 726 q 360 693 392 710 q 306 652 318 672 q 290 617 293 632 q 285 594 288 603 q 261 585 282 585 q 236 599 249 585 q 213 634 224 614 q 197 677 203 654 q 190 717 190 700 q 215 753 190 735 q 276 788 239 772 q 356 812 313 803 q 435 821 399 821 q 513 800 476 821 q 575 744 549 779 q 616 661 601 708 q 631 563 631 614 q 599 462 631 511 q 519 365 568 413 l 579 303 l 582 303 q 713 349 653 335 q 828 363 772 363 l 888 303 l 892 303 q 890 387 892 329 q 885 508 888 444 q 880 629 882 571 q 878 717 878 688 l 851 717 q 827 712 840 717 q 800 702 814 707 q 773 692 786 697 q 750 688 760 688 q 724 695 738 688 q 698 717 710 703 q 679 748 686 731 q 672 786 672 765 q 701 821 672 821 q 727 819 711 821 q 760 813 743 817 q 792 808 776 810 q 817 806 807 806 l 874 806 q 889 874 874 844 q 928 903 904 903 q 962 872 944 903 q 1004 806 979 842 l 1143 806 l 1143 717 l 986 717 q 976 676 976 708 q 978 652 976 676 q 981 588 979 628 q 985 495 982 547 q 989 389 988 443 q 992 283 990 335 q 993 190 993 231 q 987 82 993 133 q 968 -9 981 31 q 938 -72 956 -49 q 896 -94 919 -94 q 864 -82 883 -94 q 827 -51 844 -69 q 797 -12 810 -32 q 785 22 785 7 q 794 35 785 29 q 817 40 804 40 q 846 58 832 40 q 870 107 860 76 q 886 179 881 138 q 892 267 892 221 l 889 267 q 733 238 799 258 q 632 190 668 218 l 631 190 q 644 140 640 163 q 647 99 647 118 q 629 22 647 57 q 581 -39 611 -12 q 511 -80 551 -65 q 426 -94 471 -94 q 285 -58 350 -94 q 174 40 221 -22 q 99 186 126 103 q 72 363 72 269 q 97 389 72 389 q 119 382 107 389 q 142 363 131 375 q 160 333 153 350 q 168 296 168 315 q 157 262 168 279 q 146 231 146 244 z "},"आ":{"ha":1443,"x_min":72,"x_max":1449,"o":"m 146 231 q 163 149 146 188 q 212 80 179 110 q 291 32 244 50 q 397 14 338 14 q 453 22 426 14 q 499 49 479 31 q 530 98 518 68 q 542 171 542 128 q 523 258 542 215 q 474 326 504 301 l 471 326 q 418 290 451 303 q 353 276 385 276 q 326 288 342 276 q 297 317 311 300 q 274 354 283 335 q 264 389 264 374 q 288 427 264 411 q 342 443 313 443 q 425 432 404 443 l 428 432 q 536 537 501 482 q 571 635 571 592 q 542 700 571 674 q 472 726 513 726 q 416 718 440 726 q 360 693 392 710 q 306 652 318 672 q 290 617 293 632 q 285 594 288 603 q 261 585 282 585 q 236 599 249 585 q 213 634 224 614 q 197 677 203 654 q 190 717 190 700 q 215 753 190 735 q 276 788 239 772 q 356 812 313 803 q 435 821 399 821 q 513 800 476 821 q 575 744 549 779 q 616 661 601 708 q 631 563 631 614 q 599 462 631 511 q 519 365 568 413 l 579 303 l 582 303 q 713 349 653 335 q 828 363 772 363 l 888 303 l 892 303 q 890 387 892 329 q 885 508 888 444 q 880 629 882 571 q 878 717 878 688 l 851 717 q 827 712 840 717 q 800 702 814 707 q 773 692 786 697 q 750 688 760 688 q 724 695 738 688 q 698 717 710 703 q 679 748 686 731 q 672 786 672 765 q 701 821 672 821 q 727 819 711 821 q 760 813 743 817 q 792 808 776 810 q 817 806 807 806 l 874 806 q 889 874 874 844 q 928 903 904 903 q 962 872 944 903 q 1004 806 979 842 l 1143 806 l 1143 717 l 986 717 q 976 676 976 708 q 978 652 976 676 q 981 588 979 628 q 985 495 982 547 q 989 389 988 443 q 992 283 990 335 q 993 190 993 231 q 987 82 993 133 q 968 -9 981 31 q 938 -72 956 -49 q 896 -94 919 -94 q 864 -82 883 -94 q 827 -51 844 -69 q 797 -12 810 -32 q 785 22 785 7 q 794 35 785 29 q 817 40 804 40 q 846 58 832 40 q 870 107 860 76 q 886 179 881 138 q 892 267 892 221 l 889 267 q 733 238 799 258 q 632 190 668 218 l 631 190 q 644 140 640 163 q 647 99 647 118 q 629 22 647 57 q 581 -39 611 -12 q 511 -80 551 -65 q 426 -94 471 -94 q 285 -58 350 -94 q 174 40 221 -22 q 99 186 126 103 q 72 363 72 269 q 97 389 72 389 q 119 382 107 389 q 142 363 131 375 q 160 333 153 350 q 168 296 168 315 q 157 262 168 279 q 146 231 146 244 m 1104 10 q 1114 26 1104 21 q 1135 31 1124 31 q 1167 42 1153 31 q 1190 75 1181 54 q 1205 123 1200 96 q 1210 181 1210 150 l 1210 717 l 1015 717 l 1015 806 l 1201 806 l 1201 838 q 1209 878 1201 864 q 1238 892 1217 892 q 1257 883 1246 892 q 1280 863 1268 875 q 1304 835 1292 850 q 1328 806 1317 819 l 1449 806 l 1449 717 l 1340 717 q 1315 685 1321 717 q 1308 608 1308 654 l 1308 90 q 1299 26 1308 56 q 1276 -27 1290 -4 q 1244 -63 1263 -50 q 1207 -76 1225 -76 q 1180 -67 1197 -76 q 1146 -44 1163 -57 q 1117 -16 1129 -31 q 1104 10 1104 -1 z "},"इ":{"ha":815,"x_min":-10,"x_max":824,"o":"m 97 49 q 115 106 97 85 q 171 128 132 128 q 246 108 203 128 q 340 67 289 89 l 426 67 q 506 78 465 67 q 581 108 547 89 q 637 151 615 126 q 658 206 658 176 q 638 248 658 229 q 593 267 618 267 q 538 261 574 267 q 465 249 503 256 q 395 238 428 243 q 346 232 363 232 q 263 255 304 232 q 188 315 221 278 q 133 397 154 351 q 113 489 113 443 q 125 540 113 515 q 160 585 138 565 q 215 617 183 606 q 283 629 246 629 q 323 624 296 629 q 379 612 350 618 q 435 600 408 606 q 476 594 463 594 q 497 613 488 594 q 506 656 506 632 l 506 717 l -10 717 l -10 806 l 506 806 l 506 849 q 513 881 506 868 q 536 893 521 893 q 589 869 561 893 q 644 806 617 846 l 824 806 l 824 717 l 624 717 q 616 683 617 701 q 615 646 615 664 q 616 620 615 638 q 618 584 617 603 q 620 549 619 565 q 621 522 621 532 q 582 496 621 496 q 534 500 565 496 q 468 510 503 504 q 403 519 433 515 q 356 524 372 524 q 278 513 308 524 q 229 485 247 503 q 204 444 211 467 q 197 397 197 422 q 217 357 197 375 q 275 339 238 339 q 331 344 293 339 q 408 355 368 349 q 486 367 449 361 q 543 372 524 372 q 607 353 574 372 q 667 303 640 335 q 712 233 694 272 q 729 156 729 194 q 710 87 729 119 q 657 27 690 54 q 580 -19 624 0 q 489 -43 536 -37 l 488 -43 q 572 -115 535 -89 q 633 -156 608 -142 q 672 -178 658 -171 q 685 -196 685 -186 q 671 -236 685 -219 q 632 -253 657 -253 q 488 -142 600 -253 l 418 -68 l 283 -68 q 149 -43 200 -68 q 97 49 97 -18 z "},"ई":{"ha":815,"x_min":-10,"x_max":824,"o":"m 97 49 q 115 106 97 85 q 171 128 132 128 q 246 108 203 128 q 340 67 289 89 l 426 67 q 506 78 465 67 q 581 108 547 89 q 637 151 615 126 q 658 206 658 176 q 638 248 658 229 q 593 267 618 267 q 538 261 574 267 q 465 249 503 256 q 395 238 428 243 q 346 232 363 232 q 263 255 304 232 q 188 315 221 278 q 133 397 154 351 q 113 489 113 443 q 125 540 113 515 q 160 585 138 565 q 215 617 183 606 q 283 629 246 629 q 323 624 296 629 q 379 612 350 618 q 435 600 408 606 q 476 594 463 594 q 497 613 488 594 q 506 656 506 632 l 506 717 l -10 717 l -10 806 l 506 806 l 506 849 q 513 881 506 868 q 536 893 521 893 q 589 869 561 893 q 644 806 617 846 l 824 806 l 824 717 l 624 717 q 616 683 617 701 q 615 646 615 664 q 616 620 615 638 q 618 584 617 603 q 620 549 619 565 q 621 522 621 532 q 582 496 621 496 q 534 500 565 496 q 468 510 503 504 q 403 519 433 515 q 356 524 372 524 q 278 513 308 524 q 229 485 247 503 q 204 444 211 467 q 197 397 197 422 q 217 357 197 375 q 275 339 238 339 q 331 344 293 339 q 408 355 368 349 q 486 367 449 361 q 543 372 524 372 q 607 353 574 372 q 667 303 640 335 q 712 233 694 272 q 729 156 729 194 q 710 87 729 119 q 657 27 690 54 q 580 -19 624 0 q 489 -43 536 -37 l 488 -43 q 572 -115 535 -89 q 633 -156 608 -142 q 672 -178 658 -171 q 685 -196 685 -186 q 671 -236 685 -219 q 632 -253 657 -253 q 488 -142 600 -253 l 418 -68 l 283 -68 q 149 -43 200 -68 q 97 49 97 -18 m 388 782 q 283 906 319 836 q 246 1039 246 975 q 289 1177 246 1126 q 407 1228 332 1228 q 463 1219 436 1228 q 511 1194 490 1210 q 544 1156 532 1178 q 556 1108 556 1133 q 549 1099 556 1106 q 535 1092 542 1092 q 515 1099 529 1092 q 486 1115 501 1106 q 456 1131 471 1124 q 432 1138 440 1138 q 358 1101 389 1138 q 328 1015 328 1065 q 358 900 328 963 q 447 782 389 838 l 388 782 z "},"उ":{"ha":786,"x_min":-14,"x_max":803,"o":"m 158 275 q 183 193 158 235 q 247 117 208 151 q 331 62 285 83 q 418 40 376 40 q 488 53 456 40 q 546 87 521 65 q 585 137 571 108 q 600 199 600 165 q 584 273 600 235 q 543 339 568 311 l 540 339 q 408 258 460 258 q 379 273 394 258 q 351 308 364 288 q 329 351 338 329 q 321 389 321 374 q 343 433 321 414 q 401 453 365 453 l 476 453 q 486 563 486 500 q 484 629 486 590 q 476 717 482 668 l -14 717 l -14 806 l 476 806 q 488 868 476 843 q 518 893 500 893 q 564 872 533 893 q 635 806 594 851 l 803 806 l 803 717 l 621 717 q 602 693 610 717 q 594 635 594 669 q 593 540 594 585 q 588 461 592 496 q 580 403 585 426 q 568 372 575 381 q 655 272 621 338 q 689 132 689 207 q 675 53 689 90 q 637 -14 661 15 q 579 -60 613 -43 q 507 -76 546 -76 q 340 -37 418 -76 q 202 69 261 1 q 109 228 143 138 q 75 422 75 318 q 107 467 75 467 q 129 455 117 467 q 153 426 142 443 q 172 392 164 410 q 179 363 179 374 q 176 343 179 356 q 169 317 172 331 q 162 292 165 304 q 158 275 158 281 z "},"ऊ":{"ha":1164,"x_min":-4,"x_max":1182,"o":"m 169 289 q 192 188 169 235 q 253 106 215 140 q 342 51 292 71 q 450 31 393 31 q 508 43 481 31 q 558 78 536 56 q 592 131 579 100 q 606 199 606 163 q 589 265 606 231 q 542 339 572 300 l 536 339 q 476 283 504 300 q 419 267 449 267 q 392 281 408 267 q 362 317 376 296 q 337 360 347 338 q 326 397 326 382 q 346 440 326 419 q 399 461 365 461 q 444 459 421 461 q 486 453 468 457 q 504 574 504 515 q 503 645 504 610 q 497 717 501 681 l -4 717 l -4 806 l 490 806 q 499 868 490 850 q 528 886 508 886 q 559 863 539 886 q 601 806 579 839 l 1182 806 l 1182 717 l 599 717 q 594 683 596 706 q 593 629 593 661 l 597 522 q 592 435 597 475 q 567 372 586 394 l 615 317 l 618 317 q 724 460 661 407 q 858 514 786 514 q 929 486 893 514 q 994 415 965 458 q 1042 321 1024 372 q 1060 222 1060 269 q 1047 115 1060 167 q 1010 25 1033 64 q 956 -37 988 -14 q 890 -61 925 -61 q 845 -35 867 -61 q 811 31 824 -10 q 881 69 849 43 q 935 131 913 94 q 971 210 958 167 q 983 303 983 254 q 959 382 983 347 q 897 417 935 417 q 786 367 844 417 q 688 232 728 317 q 701 176 696 210 q 706 107 706 143 q 692 31 706 65 q 654 -30 678 -4 q 599 -69 631 -56 q 532 -83 567 -83 q 358 -45 440 -83 q 214 60 275 -7 q 117 219 153 128 q 81 417 81 311 q 87 453 81 440 q 113 467 93 467 q 131 456 121 467 q 152 432 142 446 q 169 403 163 418 q 176 381 176 389 q 175 362 176 374 q 173 336 174 350 q 171 309 172 322 q 169 289 169 296 z "},"ऋ":{"ha":1313,"x_min":-40,"x_max":1332,"o":"m 165 239 q 132 251 150 239 q 97 281 114 264 q 69 319 81 299 q 58 356 58 339 q 81 431 58 394 q 140 496 103 468 q 225 540 176 524 q 326 557 274 557 q 406 540 368 557 q 474 494 443 524 q 526 425 504 465 q 556 339 547 385 q 600 352 579 349 q 644 356 621 356 q 701 347 674 356 q 746 317 728 338 l 750 317 q 738 439 742 369 q 735 594 735 508 l 735 717 l -40 717 l -40 806 l 735 806 q 744 868 735 850 q 772 886 753 886 q 808 863 783 886 q 854 806 832 839 l 1332 806 l 1332 717 l 853 717 q 838 662 842 699 q 835 585 835 625 q 835 533 835 574 q 838 450 836 493 q 842 373 839 407 q 849 339 844 339 q 901 345 865 339 q 969 363 938 351 q 958 406 961 386 q 954 443 954 426 q 980 524 954 492 q 1049 557 1006 557 q 1123 527 1093 557 q 1153 453 1153 497 q 1128 372 1153 410 q 1063 311 1104 335 q 1076 238 1063 269 q 1110 194 1089 206 q 1195 117 1164 157 q 1226 40 1226 76 q 1210 -26 1226 6 q 1167 -81 1194 -57 q 1102 -119 1139 -106 q 1024 -133 1065 -133 q 991 -116 1000 -133 q 982 -72 982 -99 q 992 -36 982 -49 q 1019 -17 1003 -24 q 1054 -6 1036 -10 q 1089 6 1072 -1 q 1116 26 1106 13 q 1126 65 1126 40 q 1068 143 1126 99 q 981 258 993 200 q 919 238 956 243 q 851 232 883 232 l 849 232 l 849 142 q 843 58 849 97 q 826 -11 838 19 q 799 -59 815 -42 q 761 -76 783 -76 q 727 -65 747 -76 q 688 -35 707 -53 q 654 3 668 -18 q 640 40 640 24 q 663 65 640 65 q 675 62 664 65 q 689 58 686 58 q 714 72 703 58 q 733 107 725 85 q 746 159 742 129 q 750 222 750 189 l 749 222 q 708 235 731 232 q 664 239 686 239 q 608 235 628 239 q 574 222 588 232 l 572 222 q 542 114 561 164 q 499 27 524 64 q 447 -31 475 -10 q 392 -51 419 -51 q 355 -36 374 -51 q 320 1 336 -21 q 294 48 304 24 q 283 90 283 72 q 297 140 283 113 q 335 197 310 168 q 396 256 360 226 q 478 311 432 286 q 470 367 478 340 q 448 415 463 394 q 413 449 433 436 q 369 461 393 461 q 299 447 336 461 q 229 411 261 433 q 176 363 197 389 q 156 311 156 336 q 160 298 156 304 q 171 286 165 292 q 181 276 176 281 q 186 267 186 271 q 165 239 186 239 m 347 74 q 365 42 347 54 q 404 31 383 31 q 433 46 418 31 q 460 84 447 61 q 480 135 472 107 q 488 190 488 164 q 439 168 464 182 q 394 138 414 154 q 360 104 374 121 q 347 74 347 88 z "},"ऌ":{"ha":949,"x_min":-18,"x_max":956,"o":"m 186 275 q 199 161 186 215 q 236 65 213 107 q 292 -1 260 24 q 361 -25 324 -25 q 401 -40 383 -25 q 418 -76 418 -56 q 414 -100 418 -90 q 399 -110 410 -110 q 283 -72 338 -110 q 185 28 228 -35 q 118 175 143 92 q 93 349 93 258 q 109 446 93 400 q 153 526 125 492 q 221 581 182 561 q 304 601 260 601 q 394 561 353 601 q 450 461 435 521 l 454 461 q 518 535 492 493 q 544 621 544 576 q 542 678 544 656 q 538 717 540 701 l -18 717 l -18 806 l 529 806 q 538 874 529 854 q 563 893 547 893 q 616 868 590 893 q 667 806 642 843 l 956 806 l 956 717 l 661 717 q 644 694 650 717 q 635 640 639 671 q 629 580 632 610 q 621 536 626 550 l 624 536 q 715 503 672 528 q 791 442 758 478 q 842 360 824 406 q 861 267 861 315 q 847 174 861 217 q 810 99 833 131 q 756 49 786 67 q 692 31 725 31 q 588 -4 625 31 q 550 -110 550 -39 q 594 -190 550 -161 q 708 -218 638 -218 q 740 -212 721 -218 q 778 -201 758 -207 q 815 -189 797 -194 q 843 -183 833 -183 q 863 -191 851 -183 q 887 -209 875 -199 q 907 -231 899 -219 q 915 -250 915 -242 q 753 -307 915 -307 l 729 -307 q 633 -285 679 -307 q 552 -226 588 -264 q 496 -136 517 -187 q 475 -25 475 -85 q 517 88 475 44 q 621 132 560 132 q 674 147 649 132 q 717 188 699 163 q 747 247 736 214 q 757 317 757 281 q 749 366 757 343 q 726 406 740 389 q 693 433 713 424 q 651 443 674 443 q 553 400 599 443 q 490 289 508 357 q 476 267 486 267 q 451 276 465 267 q 425 300 438 286 q 404 329 413 314 q 396 356 396 344 q 402 385 396 368 q 422 422 408 403 q 377 465 403 449 q 333 481 351 481 q 276 465 303 481 q 230 420 250 449 q 198 354 210 392 q 186 275 186 317 z "},"ऍ":{"ha":761,"x_min":-4,"x_max":785,"o":"m 133 190 q 98 213 110 200 q 86 239 86 226 q 88 247 86 243 q 89 256 89 251 q 129 349 113 292 q 146 467 146 407 q 144 500 146 478 q 140 547 142 522 q 136 594 138 571 q 135 629 135 617 q 140 671 135 649 q 153 717 146 693 l -4 717 l -4 806 l 774 806 l 774 717 l 700 717 q 664 683 674 717 q 651 598 654 649 q 647 488 649 547 q 633 377 644 428 q 594 292 621 326 q 517 258 568 258 q 481 271 503 258 q 439 302 460 283 q 403 342 418 321 q 389 381 389 364 q 413 397 389 397 q 425 393 415 397 q 446 385 435 389 q 467 376 457 381 q 483 372 478 372 q 507 381 496 372 q 526 402 518 389 q 540 432 535 415 q 546 467 546 449 q 545 508 546 481 q 543 563 544 535 q 541 617 542 592 q 540 656 540 643 l 540 717 l 281 717 q 256 660 264 701 q 247 557 247 619 q 249 514 247 543 q 251 452 250 485 q 254 390 253 419 q 256 349 256 361 q 248 265 256 301 q 222 206 240 229 l 224 206 q 485 53 378 122 q 658 -73 592 -15 q 755 -180 725 -131 q 785 -275 785 -229 q 773 -348 785 -319 q 746 -376 761 -376 q 668 -306 715 -376 q 690 -242 690 -282 q 650 -151 690 -201 q 539 -50 610 -101 q 336 70 439 8 q 133 190 233 132 m 240 914 q 160 931 199 914 q 92 974 122 947 q 45 1037 63 1001 q 28 1108 28 1072 q 32 1123 28 1114 q 42 1140 36 1132 q 54 1154 47 1149 q 65 1160 61 1160 q 67 1157 68 1160 q 68 1147 67 1154 q 123 1052 85 1089 q 240 1015 161 1015 q 329 1038 289 1015 q 379 1097 369 1061 l 386 1158 q 396 1174 393 1174 q 413 1163 404 1174 q 428 1135 421 1151 q 441 1103 436 1119 q 446 1075 446 1086 q 430 1012 446 1042 q 387 960 414 982 q 322 926 360 939 q 240 914 283 914 z "},"ऎ":{"ha":761,"x_min":-149,"x_max":785,"o":"m 133 190 q 98 213 110 200 q 86 239 86 226 q 88 247 86 243 q 89 256 89 251 q 129 349 113 292 q 146 467 146 407 q 144 500 146 478 q 140 547 142 522 q 136 594 138 571 q 135 629 135 617 q 140 671 135 649 q 153 717 146 693 l -4 717 l -4 806 l 774 806 l 774 717 l 700 717 q 664 683 674 717 q 651 598 654 649 q 647 488 649 547 q 633 377 644 428 q 594 292 621 326 q 517 258 568 258 q 481 271 503 258 q 439 302 460 283 q 403 342 418 321 q 389 381 389 364 q 413 397 389 397 q 425 393 415 397 q 446 385 435 389 q 467 376 457 381 q 483 372 478 372 q 507 381 496 372 q 526 402 518 389 q 540 432 535 415 q 546 467 546 449 q 545 508 546 481 q 543 563 544 535 q 541 617 542 592 q 540 656 540 643 l 540 717 l 281 717 q 256 660 264 701 q 247 557 247 619 q 249 514 247 543 q 251 452 250 485 q 254 390 253 419 q 256 349 256 361 q 248 265 256 301 q 222 206 240 229 l 224 206 q 485 53 378 122 q 658 -73 592 -15 q 755 -180 725 -131 q 785 -275 785 -229 q 773 -348 785 -319 q 746 -376 761 -376 q 668 -306 715 -376 q 690 -242 690 -282 q 650 -151 690 -201 q 539 -50 610 -101 q 336 70 439 8 q 133 190 233 132 m 460 783 q 442 848 460 817 q 394 904 424 879 q 327 944 365 929 q 250 960 289 960 q 94 978 167 960 q -32 1030 22 997 q -117 1105 -86 1063 q -149 1196 -149 1147 q -140 1206 -149 1200 q -122 1217 -132 1211 q -100 1226 -111 1222 q -82 1231 -89 1231 q -74 1222 -78 1231 q -68 1203 -71 1214 q -38 1140 -62 1169 q 25 1089 -14 1111 q 116 1053 64 1067 q 231 1040 168 1040 q 349 1019 293 1040 q 445 963 404 999 q 510 881 486 928 q 535 783 535 835 l 460 783 z "},"ए":{"ha":761,"x_min":-4,"x_max":785,"o":"m 133 190 q 98 213 110 200 q 86 239 86 226 q 88 247 86 243 q 89 256 89 251 q 129 349 113 292 q 146 467 146 407 q 144 500 146 478 q 140 547 142 522 q 136 594 138 571 q 135 629 135 617 q 140 671 135 649 q 153 717 146 693 l -4 717 l -4 806 l 774 806 l 774 717 l 700 717 q 664 683 674 717 q 651 598 654 649 q 647 488 649 547 q 633 377 644 428 q 594 292 621 326 q 517 258 568 258 q 481 271 503 258 q 439 302 460 283 q 403 342 418 321 q 389 381 389 364 q 413 397 389 397 q 425 393 415 397 q 446 385 435 389 q 467 376 457 381 q 483 372 478 372 q 507 381 496 372 q 526 402 518 389 q 540 432 535 415 q 546 467 546 449 q 545 508 546 481 q 543 563 544 535 q 541 617 542 592 q 540 656 540 643 l 540 717 l 281 717 q 256 660 264 701 q 247 557 247 619 q 249 514 247 543 q 251 452 250 485 q 254 390 253 419 q 256 349 256 361 q 248 265 256 301 q 222 206 240 229 l 224 206 q 485 53 378 122 q 658 -73 592 -15 q 755 -180 725 -131 q 785 -275 785 -229 q 773 -348 785 -319 q 746 -376 761 -376 q 668 -306 715 -376 q 690 -242 690 -282 q 650 -151 690 -201 q 539 -50 610 -101 q 336 70 439 8 q 133 190 233 132 z "},"ऐ":{"ha":761,"x_min":-4,"x_max":785,"o":"m 133 190 q 98 213 110 200 q 86 239 86 226 q 88 247 86 243 q 89 256 89 251 q 129 349 113 292 q 146 467 146 407 q 144 500 146 478 q 140 547 142 522 q 136 594 138 571 q 135 629 135 617 q 140 671 135 649 q 153 717 146 693 l -4 717 l -4 806 l 774 806 l 774 717 l 700 717 q 664 683 674 717 q 651 598 654 649 q 647 488 649 547 q 633 377 644 428 q 594 292 621 326 q 517 258 568 258 q 481 271 503 258 q 439 302 460 283 q 403 342 418 321 q 389 381 389 364 q 413 397 389 397 q 425 393 415 397 q 446 385 435 389 q 467 376 457 381 q 483 372 478 372 q 507 381 496 372 q 526 402 518 389 q 540 432 535 415 q 546 467 546 449 q 545 508 546 481 q 543 563 544 535 q 541 617 542 592 q 540 656 540 643 l 540 717 l 281 717 q 256 660 264 701 q 247 557 247 619 q 249 514 247 543 q 251 452 250 485 q 254 390 253 419 q 256 349 256 361 q 248 265 256 301 q 222 206 240 229 l 224 206 q 485 53 378 122 q 658 -73 592 -15 q 755 -180 725 -131 q 785 -275 785 -229 q 773 -348 785 -319 q 746 -376 761 -376 q 668 -306 715 -376 q 690 -242 690 -282 q 650 -151 690 -201 q 539 -50 610 -101 q 336 70 439 8 q 133 190 233 132 m 471 771 q 417 908 449 843 q 349 1021 386 972 q 272 1099 313 1069 q 189 1128 231 1128 q 172 1121 182 1128 q 150 1106 161 1114 q 129 1090 139 1097 q 114 1083 119 1083 q 75 1117 94 1083 q 49 1200 56 1151 l 47 1200 q 87 1214 60 1208 q 154 1219 114 1219 q 263 1184 208 1219 q 366 1088 317 1149 q 457 945 415 1026 q 528 771 499 864 l 471 771 z "},"ऑ":{"ha":1453,"x_min":72,"x_max":1458,"o":"m 146 231 q 163 149 146 188 q 212 80 179 110 q 291 32 244 50 q 397 14 338 14 q 453 22 426 14 q 499 49 479 31 q 530 98 518 68 q 542 171 542 128 q 523 258 542 215 q 474 326 504 301 l 471 326 q 418 290 451 303 q 353 276 385 276 q 326 288 342 276 q 297 317 311 300 q 274 354 283 335 q 264 389 264 374 q 288 427 264 411 q 342 443 313 443 q 425 432 404 443 l 428 432 q 536 537 501 482 q 571 635 571 592 q 542 700 571 674 q 472 726 513 726 q 416 718 440 726 q 360 693 392 710 q 306 652 318 672 q 290 617 293 632 q 285 594 288 603 q 261 585 282 585 q 236 599 249 585 q 213 634 224 614 q 197 677 203 654 q 190 717 190 700 q 215 753 190 735 q 276 788 239 772 q 356 812 313 803 q 435 821 399 821 q 513 800 476 821 q 575 744 549 779 q 616 661 601 708 q 631 563 631 614 q 599 462 631 511 q 519 365 568 413 l 579 303 l 582 303 q 713 349 653 335 q 828 363 772 363 l 888 303 l 892 303 q 890 387 892 329 q 885 508 888 444 q 880 629 882 571 q 878 717 878 688 l 851 717 q 827 712 840 717 q 800 702 814 707 q 773 692 786 697 q 750 688 760 688 q 724 695 738 688 q 698 717 710 703 q 679 748 686 731 q 672 786 672 765 q 701 821 672 821 q 727 819 711 821 q 760 813 743 817 q 792 808 776 810 q 817 806 807 806 l 874 806 q 889 874 874 844 q 928 903 904 903 q 962 872 944 903 q 1004 806 979 842 l 1143 806 l 1143 717 l 986 717 q 976 676 976 708 q 978 652 976 676 q 981 588 979 628 q 985 495 982 547 q 989 389 988 443 q 992 283 990 335 q 993 190 993 231 q 987 82 993 133 q 968 -9 981 31 q 938 -72 956 -49 q 896 -94 919 -94 q 864 -82 883 -94 q 827 -51 844 -69 q 797 -12 810 -32 q 785 22 785 7 q 794 35 785 29 q 817 40 804 40 q 846 58 832 40 q 870 107 860 76 q 886 179 881 138 q 892 267 892 221 l 889 267 q 733 238 799 258 q 632 190 668 218 l 631 190 q 644 140 640 163 q 647 99 647 118 q 629 22 647 57 q 581 -39 611 -12 q 511 -80 551 -65 q 426 -94 471 -94 q 285 -58 350 -94 q 174 40 221 -22 q 99 186 126 103 q 72 363 72 269 q 97 389 72 389 q 119 382 107 389 q 142 363 131 375 q 160 333 153 350 q 168 296 168 315 q 157 262 168 279 q 146 231 146 244 m 1114 10 q 1124 26 1114 21 q 1144 31 1133 31 q 1176 42 1163 31 q 1200 75 1190 54 q 1215 123 1210 96 q 1219 181 1219 150 l 1219 717 l 1025 717 l 1025 806 l 1211 806 l 1211 838 q 1219 878 1211 864 q 1247 892 1226 892 q 1267 883 1256 892 q 1290 863 1278 875 q 1314 835 1301 850 q 1338 806 1326 819 l 1458 806 l 1458 717 l 1350 717 q 1324 685 1331 717 q 1318 608 1318 654 l 1318 90 q 1309 26 1318 56 q 1286 -27 1300 -4 q 1253 -63 1272 -50 q 1217 -76 1235 -76 q 1190 -67 1207 -76 q 1156 -44 1172 -57 q 1126 -16 1139 -31 q 1114 10 1114 -1 m 1088 942 q 1008 958 1046 942 q 940 1002 969 975 q 892 1065 910 1029 q 875 1136 875 1100 q 879 1151 875 1142 q 889 1168 883 1160 q 901 1182 894 1176 q 913 1188 908 1188 q 915 1185 915 1188 q 915 1175 914 1182 q 970 1080 932 1117 q 1088 1043 1008 1043 q 1176 1066 1136 1043 q 1226 1125 1217 1089 l 1233 1186 q 1243 1201 1240 1201 q 1260 1190 1251 1201 q 1276 1163 1268 1179 q 1288 1131 1283 1147 q 1293 1103 1293 1114 q 1277 1040 1293 1069 q 1234 988 1261 1010 q 1169 954 1207 967 q 1088 942 1131 942 z "},"ऒ":{"ha":1457,"x_min":72,"x_max":1463,"o":"m 146 231 q 163 149 146 188 q 212 80 179 110 q 291 32 244 50 q 397 14 338 14 q 453 22 426 14 q 499 49 479 31 q 530 98 518 68 q 542 171 542 128 q 523 258 542 215 q 474 326 504 301 l 471 326 q 418 290 451 303 q 353 276 385 276 q 326 288 342 276 q 297 317 311 300 q 274 354 283 335 q 264 389 264 374 q 288 427 264 411 q 342 443 313 443 q 425 432 404 443 l 428 432 q 536 537 501 482 q 571 635 571 592 q 542 700 571 674 q 472 726 513 726 q 416 718 440 726 q 360 693 392 710 q 306 652 318 672 q 290 617 293 632 q 285 594 288 603 q 261 585 282 585 q 236 599 249 585 q 213 634 224 614 q 197 677 203 654 q 190 717 190 700 q 215 753 190 735 q 276 788 239 772 q 356 812 313 803 q 435 821 399 821 q 513 800 476 821 q 575 744 549 779 q 616 661 601 708 q 631 563 631 614 q 599 462 631 511 q 519 365 568 413 l 579 303 l 582 303 q 713 349 653 335 q 828 363 772 363 l 888 303 l 892 303 q 890 387 892 329 q 885 508 888 444 q 880 629 882 571 q 878 717 878 688 l 851 717 q 827 712 840 717 q 800 702 814 707 q 773 692 786 697 q 750 688 760 688 q 724 695 738 688 q 698 717 710 703 q 679 748 686 731 q 672 786 672 765 q 701 821 672 821 q 727 819 711 821 q 760 813 743 817 q 792 808 776 810 q 817 806 807 806 l 874 806 q 889 874 874 844 q 928 903 904 903 q 962 872 944 903 q 1004 806 979 842 l 1143 806 l 1143 717 l 986 717 q 976 676 976 708 q 978 652 976 676 q 981 588 979 628 q 985 495 982 547 q 989 389 988 443 q 992 283 990 335 q 993 190 993 231 q 987 82 993 133 q 968 -9 981 31 q 938 -72 956 -49 q 896 -94 919 -94 q 864 -82 883 -94 q 827 -51 844 -69 q 797 -12 810 -32 q 785 22 785 7 q 794 35 785 29 q 817 40 804 40 q 846 58 832 40 q 870 107 860 76 q 886 179 881 138 q 892 267 892 221 l 889 267 q 733 238 799 258 q 632 190 668 218 l 631 190 q 644 140 640 163 q 647 99 647 118 q 629 22 647 57 q 581 -39 611 -12 q 511 -80 551 -65 q 426 -94 471 -94 q 285 -58 350 -94 q 174 40 221 -22 q 99 186 126 103 q 72 363 72 269 q 97 389 72 389 q 119 382 107 389 q 142 363 131 375 q 160 333 153 350 q 168 296 168 315 q 157 262 168 279 q 146 231 146 244 m 1118 10 q 1128 26 1118 21 q 1149 31 1138 31 q 1181 42 1167 31 q 1204 75 1194 54 q 1219 123 1214 96 q 1224 181 1224 150 l 1224 717 l 1029 717 l 1029 806 l 1215 806 l 1215 838 q 1223 878 1215 864 q 1251 892 1231 892 q 1271 883 1260 892 q 1294 863 1282 875 q 1318 835 1306 850 q 1342 806 1331 819 l 1463 806 l 1463 717 l 1354 717 q 1328 685 1335 717 q 1322 608 1322 654 l 1322 90 q 1313 26 1322 56 q 1290 -27 1304 -4 q 1258 -63 1276 -50 q 1221 -76 1239 -76 q 1194 -67 1211 -76 q 1160 -44 1176 -57 q 1131 -16 1143 -31 q 1118 10 1118 -1 m 1099 783 q 1081 848 1099 817 q 1033 904 1063 879 q 966 944 1004 929 q 889 960 928 960 q 733 978 806 960 q 607 1030 661 997 q 522 1105 553 1063 q 490 1196 490 1147 q 499 1206 490 1200 q 517 1217 507 1211 q 539 1226 528 1222 q 557 1231 550 1231 q 565 1222 561 1231 q 571 1203 568 1214 q 601 1140 576 1169 q 664 1089 625 1111 q 755 1053 703 1067 q 869 1040 807 1040 q 988 1019 932 1040 q 1084 963 1043 999 q 1149 881 1125 928 q 1174 783 1174 835 l 1099 783 z "},"ओ":{"ha":1457,"x_min":72,"x_max":1463,"o":"m 146 231 q 163 149 146 188 q 212 80 179 110 q 291 32 244 50 q 397 14 338 14 q 453 22 426 14 q 499 49 479 31 q 530 98 518 68 q 542 171 542 128 q 523 258 542 215 q 474 326 504 301 l 471 326 q 418 290 451 303 q 353 276 385 276 q 326 288 342 276 q 297 317 311 300 q 274 354 283 335 q 264 389 264 374 q 288 427 264 411 q 342 443 313 443 q 425 432 404 443 l 428 432 q 536 537 501 482 q 571 635 571 592 q 542 700 571 674 q 472 726 513 726 q 416 718 440 726 q 360 693 392 710 q 306 652 318 672 q 290 617 293 632 q 285 594 288 603 q 261 585 282 585 q 236 599 249 585 q 213 634 224 614 q 197 677 203 654 q 190 717 190 700 q 215 753 190 735 q 276 788 239 772 q 356 812 313 803 q 435 821 399 821 q 513 800 476 821 q 575 744 549 779 q 616 661 601 708 q 631 563 631 614 q 599 462 631 511 q 519 365 568 413 l 579 303 l 582 303 q 713 349 653 335 q 828 363 772 363 l 888 303 l 892 303 q 890 387 892 329 q 885 508 888 444 q 880 629 882 571 q 878 717 878 688 l 851 717 q 827 712 840 717 q 800 702 814 707 q 773 692 786 697 q 750 688 760 688 q 724 695 738 688 q 698 717 710 703 q 679 748 686 731 q 672 786 672 765 q 701 821 672 821 q 727 819 711 821 q 760 813 743 817 q 792 808 776 810 q 817 806 807 806 l 874 806 q 889 874 874 844 q 928 903 904 903 q 962 872 944 903 q 1004 806 979 842 l 1143 806 l 1143 717 l 986 717 q 976 676 976 708 q 978 652 976 676 q 981 588 979 628 q 985 495 982 547 q 989 389 988 443 q 992 283 990 335 q 993 190 993 231 q 987 82 993 133 q 968 -9 981 31 q 938 -72 956 -49 q 896 -94 919 -94 q 864 -82 883 -94 q 827 -51 844 -69 q 797 -12 810 -32 q 785 22 785 7 q 794 35 785 29 q 817 40 804 40 q 846 58 832 40 q 870 107 860 76 q 886 179 881 138 q 892 267 892 221 l 889 267 q 733 238 799 258 q 632 190 668 218 l 631 190 q 644 140 640 163 q 647 99 647 118 q 629 22 647 57 q 581 -39 611 -12 q 511 -80 551 -65 q 426 -94 471 -94 q 285 -58 350 -94 q 174 40 221 -22 q 99 186 126 103 q 72 363 72 269 q 97 389 72 389 q 119 382 107 389 q 142 363 131 375 q 160 333 153 350 q 168 296 168 315 q 157 262 168 279 q 146 231 146 244 m 1118 10 q 1128 26 1118 21 q 1149 31 1138 31 q 1181 42 1167 31 q 1204 75 1194 54 q 1219 123 1214 96 q 1224 181 1224 150 l 1224 717 l 1029 717 l 1029 806 l 1215 806 l 1215 838 q 1223 878 1215 864 q 1251 892 1231 892 q 1271 883 1260 892 q 1294 863 1282 875 q 1318 835 1306 850 q 1342 806 1331 819 l 1463 806 l 1463 717 l 1354 717 q 1328 685 1335 717 q 1322 608 1322 654 l 1322 90 q 1313 26 1322 56 q 1290 -27 1304 -4 q 1258 -63 1276 -50 q 1221 -76 1239 -76 q 1194 -67 1211 -76 q 1160 -44 1176 -57 q 1131 -16 1143 -31 q 1118 10 1118 -1 m 1121 771 q 1067 908 1099 843 q 999 1021 1036 972 q 922 1099 963 1069 q 839 1128 881 1128 q 822 1121 832 1128 q 800 1106 811 1114 q 779 1090 789 1097 q 764 1083 769 1083 q 725 1117 744 1083 q 699 1200 706 1151 l 697 1200 q 737 1214 710 1208 q 804 1219 764 1219 q 913 1184 858 1219 q 1016 1088 967 1149 q 1107 945 1065 1026 q 1178 771 1149 864 l 1121 771 z "},"औ":{"ha":1457,"x_min":72,"x_max":1463,"o":"m 146 231 q 163 149 146 188 q 212 80 179 110 q 291 32 244 50 q 397 14 338 14 q 453 22 426 14 q 499 49 479 31 q 530 98 518 68 q 542 171 542 128 q 523 258 542 215 q 474 326 504 301 l 471 326 q 418 290 451 303 q 353 276 385 276 q 326 288 342 276 q 297 317 311 300 q 274 354 283 335 q 264 389 264 374 q 288 427 264 411 q 342 443 313 443 q 425 432 404 443 l 428 432 q 536 537 501 482 q 571 635 571 592 q 542 700 571 674 q 472 726 513 726 q 416 718 440 726 q 360 693 392 710 q 306 652 318 672 q 290 617 293 632 q 285 594 288 603 q 261 585 282 585 q 236 599 249 585 q 213 634 224 614 q 197 677 203 654 q 190 717 190 700 q 215 753 190 735 q 276 788 239 772 q 356 812 313 803 q 435 821 399 821 q 513 800 476 821 q 575 744 549 779 q 616 661 601 708 q 631 563 631 614 q 599 462 631 511 q 519 365 568 413 l 579 303 l 582 303 q 713 349 653 335 q 828 363 772 363 l 888 303 l 892 303 q 890 387 892 329 q 885 508 888 444 q 880 629 882 571 q 878 717 878 688 l 851 717 q 827 712 840 717 q 800 702 814 707 q 773 692 786 697 q 750 688 760 688 q 724 695 738 688 q 698 717 710 703 q 679 748 686 731 q 672 786 672 765 q 701 821 672 821 q 727 819 711 821 q 760 813 743 817 q 792 808 776 810 q 817 806 807 806 l 874 806 q 889 874 874 844 q 928 903 904 903 q 962 872 944 903 q 1004 806 979 842 l 1143 806 l 1143 717 l 986 717 q 976 676 976 708 q 978 652 976 676 q 981 588 979 628 q 985 495 982 547 q 989 389 988 443 q 992 283 990 335 q 993 190 993 231 q 987 82 993 133 q 968 -9 981 31 q 938 -72 956 -49 q 896 -94 919 -94 q 864 -82 883 -94 q 827 -51 844 -69 q 797 -12 810 -32 q 785 22 785 7 q 794 35 785 29 q 817 40 804 40 q 846 58 832 40 q 870 107 860 76 q 886 179 881 138 q 892 267 892 221 l 889 267 q 733 238 799 258 q 632 190 668 218 l 631 190 q 644 140 640 163 q 647 99 647 118 q 629 22 647 57 q 581 -39 611 -12 q 511 -80 551 -65 q 426 -94 471 -94 q 285 -58 350 -94 q 174 40 221 -22 q 99 186 126 103 q 72 363 72 269 q 97 389 72 389 q 119 382 107 389 q 142 363 131 375 q 160 333 153 350 q 168 296 168 315 q 157 262 168 279 q 146 231 146 244 m 1118 10 q 1128 26 1118 21 q 1149 31 1138 31 q 1181 42 1167 31 q 1204 75 1194 54 q 1219 123 1214 96 q 1224 181 1224 150 l 1224 717 l 1029 717 l 1029 806 l 1215 806 l 1215 838 q 1223 878 1215 864 q 1251 892 1231 892 q 1271 883 1260 892 q 1294 863 1282 875 q 1318 835 1306 850 q 1342 806 1331 819 l 1463 806 l 1463 717 l 1354 717 q 1328 685 1335 717 q 1322 608 1322 654 l 1322 90 q 1313 26 1322 56 q 1290 -27 1304 -4 q 1258 -63 1276 -50 q 1221 -76 1239 -76 q 1194 -67 1211 -76 q 1160 -44 1176 -57 q 1131 -16 1143 -31 q 1118 10 1118 -1 m 1164 782 q 1178 806 1172 790 q 1187 838 1183 821 q 1192 874 1190 856 q 1194 906 1194 892 q 1187 975 1194 942 q 1167 1034 1179 1008 q 1138 1076 1154 1060 q 1101 1092 1121 1092 q 1082 1086 1094 1089 q 1061 1083 1069 1083 q 1033 1092 1047 1083 q 1008 1115 1019 1101 q 989 1144 996 1128 q 982 1174 982 1160 q 984 1202 982 1189 q 989 1228 986 1215 q 1088 1206 1040 1228 q 1171 1145 1135 1183 q 1228 1056 1207 1107 q 1249 949 1249 1006 q 1241 853 1249 901 q 1221 782 1233 806 l 1164 782 m 1078 782 q 1014 914 1047 853 q 946 1021 981 975 q 876 1093 911 1067 q 808 1119 842 1119 q 769 1111 788 1119 q 733 1092 750 1103 q 703 1074 717 1082 q 679 1065 689 1065 q 658 1080 671 1065 q 629 1119 644 1094 l 589 1186 q 751 1228 643 1228 q 855 1194 803 1228 q 956 1099 907 1160 q 1046 958 1004 1039 q 1119 782 1088 876 l 1078 782 z "},"क":{"ha":1153,"x_min":-37,"x_max":1172,"o":"m 71 397 q 92 474 71 439 q 152 533 114 508 q 245 572 190 558 q 367 585 300 585 q 518 553 449 585 q 624 467 588 522 l 624 717 l -37 717 l -37 806 l 624 806 l 624 831 q 632 873 624 856 q 651 890 640 890 q 700 868 675 890 q 750 806 725 846 l 1172 806 l 1172 717 l 767 717 q 732 697 740 717 q 724 646 724 676 l 725 496 q 775 510 744 506 q 842 514 806 514 q 918 485 878 514 q 992 415 958 457 q 1049 323 1026 372 q 1071 232 1071 274 q 1056 160 1071 193 q 1014 101 1040 126 q 953 63 988 76 q 881 49 918 49 l 836 94 q 826 110 829 101 q 822 125 822 118 q 832 142 822 136 q 853 149 842 149 q 910 163 883 149 q 956 200 938 176 q 986 253 975 224 q 997 317 997 283 q 973 382 997 357 q 914 407 949 407 q 811 396 861 407 q 724 363 761 385 l 724 90 q 692 -29 724 18 q 604 -76 660 -76 q 576 -66 593 -76 q 542 -41 558 -56 q 513 -9 525 -26 q 501 22 501 8 q 513 35 501 29 q 533 40 524 40 q 599 73 575 40 q 624 149 624 106 l 624 232 q 505 171 565 193 q 378 149 444 149 q 276 174 329 149 q 176 236 222 199 q 101 317 131 274 q 71 397 71 360 m 139 349 q 153 311 139 329 q 190 279 167 293 q 245 256 214 265 q 313 247 276 247 q 408 261 354 247 q 509 295 461 275 q 590 338 557 315 q 624 381 624 361 q 599 410 624 394 q 540 438 575 425 q 467 458 506 450 q 401 467 429 467 q 308 456 356 467 q 224 429 261 446 q 163 392 186 413 q 139 349 139 371 z "},"ख":{"ha":1274,"x_min":-11,"x_max":1326,"o":"m 242 94 q 115 255 158 183 q 72 389 72 326 q 83 441 72 417 q 111 483 93 465 q 153 512 129 501 q 203 522 176 522 q 247 516 218 522 q 308 496 276 510 l 313 496 q 303 717 303 540 l -11 717 l -11 806 l 303 806 q 311 876 303 858 q 332 893 319 893 q 418 806 374 893 l 1039 806 q 1047 876 1039 858 q 1068 893 1056 893 q 1154 806 1110 893 l 1326 806 l 1326 717 l 1150 717 q 1144 701 1146 717 q 1140 663 1142 686 q 1138 611 1139 639 q 1138 557 1138 583 q 1140 483 1138 533 q 1147 378 1143 433 q 1153 274 1150 324 q 1156 199 1156 224 q 1149 90 1156 142 q 1131 0 1143 39 q 1099 -61 1118 -39 q 1054 -83 1079 -83 q 1020 -74 1039 -83 q 985 -52 1001 -65 q 959 -25 969 -39 q 949 -1 949 -11 q 964 31 949 31 q 999 41 982 31 q 1030 68 1017 51 q 1051 108 1043 85 q 1058 156 1058 131 q 1058 173 1058 165 q 1057 190 1058 181 l 1053 190 q 758 -15 893 53 q 529 -83 624 -83 q 401 -40 474 -83 q 242 94 328 3 m 249 171 q 357 52 297 94 q 475 10 417 10 q 623 35 550 10 q 754 99 696 60 q 672 147 710 118 q 604 210 633 176 q 558 282 575 244 q 542 356 542 319 q 561 430 542 394 q 615 492 581 465 q 695 533 650 518 q 793 549 740 549 q 938 489 869 549 q 1051 329 1007 429 l 1057 329 q 1054 388 1057 349 q 1048 469 1051 426 q 1042 551 1044 513 q 1039 608 1039 589 l 1039 717 l 424 717 q 410 665 413 697 q 407 585 407 633 q 408 549 407 572 q 410 501 408 526 q 412 453 411 476 q 413 417 413 429 q 376 238 413 304 q 279 171 340 171 l 249 171 m 617 303 q 654 232 617 258 q 739 206 692 206 q 897 229 826 206 q 1013 303 968 253 l 1014 303 q 961 403 1006 363 q 853 443 917 443 q 761 432 804 443 q 686 401 718 421 q 635 356 654 382 q 617 303 617 331 m 188 258 q 231 269 210 258 q 269 298 253 279 q 298 342 286 317 q 313 397 310 367 l 311 397 q 274 430 294 417 q 236 443 254 443 q 168 409 197 443 q 139 329 139 375 q 153 278 139 297 q 188 258 168 258 z "},"ग":{"ha":803,"x_min":-18,"x_max":849,"o":"m 292 199 q 216 217 254 199 q 148 266 178 236 q 99 333 118 296 q 79 407 79 369 q 103 482 79 450 q 163 514 126 514 q 224 496 210 514 l 228 496 l 228 717 l -18 717 l -18 806 l 228 806 l 228 849 q 238 881 228 868 q 264 893 249 893 q 320 869 290 893 q 374 806 350 846 l 551 806 l 551 838 q 567 878 551 864 q 601 893 583 893 q 615 888 606 892 q 642 872 625 885 l 707 806 l 849 806 l 849 717 l 708 717 q 681 685 693 717 q 668 608 668 654 l 668 90 q 659 26 668 56 q 635 -27 650 -4 q 601 -63 621 -50 q 561 -76 582 -76 q 528 -67 549 -76 q 490 -44 508 -57 q 459 -16 472 -31 q 446 10 446 -1 q 456 26 446 21 q 476 31 467 31 q 511 42 494 31 q 539 75 528 54 q 557 123 550 96 q 564 181 564 150 l 564 717 l 403 717 q 373 705 386 717 q 351 674 360 693 q 339 628 343 654 q 335 574 335 603 l 336 422 q 382 397 364 407 q 410 378 400 386 q 424 363 421 369 q 428 349 428 357 q 422 327 428 338 q 408 317 417 317 q 391 328 404 317 q 369 339 378 339 q 347 317 353 339 q 337 269 342 294 q 323 221 332 243 q 292 199 314 199 m 200 303 q 209 313 204 303 q 218 340 214 324 q 225 374 222 356 q 228 407 228 392 q 213 431 228 419 q 176 443 199 443 q 145 426 158 443 q 132 389 132 410 q 152 328 132 353 q 200 303 172 303 z "},"घ":{"ha":903,"x_min":-18,"x_max":913,"o":"m 94 275 q 123 376 94 328 q 193 453 151 424 q 128 508 157 478 q 100 574 100 538 q 121 646 100 610 q 178 717 142 682 l -18 717 l -18 806 l 656 806 l 656 831 q 674 875 656 857 q 714 893 692 893 q 785 832 732 893 l 819 806 l 913 806 l 913 717 l 821 717 q 784 682 800 717 q 768 601 768 647 l 768 125 q 763 47 768 83 q 747 -17 757 10 q 723 -60 738 -44 q 692 -76 708 -76 q 620 -55 649 -76 q 592 -1 592 -33 q 603 23 592 15 q 625 31 614 31 q 660 85 644 39 q 675 190 675 131 l 671 190 q 400 40 518 40 q 303 63 356 40 q 203 121 250 86 q 126 197 157 156 q 94 275 94 239 m 168 239 q 336 132 168 132 q 416 144 376 132 q 490 178 456 157 q 553 228 525 200 q 603 289 582 257 q 617 332 610 315 q 631 349 625 349 q 642 343 635 349 l 639 347 l 668 311 l 674 311 l 674 717 l 397 717 q 383 684 397 697 q 354 671 369 671 q 306 658 332 671 q 257 624 279 644 q 219 579 235 604 q 204 529 204 554 q 219 499 204 510 q 257 489 233 489 q 265 489 258 489 q 281 492 272 489 l 351 510 q 363 514 357 514 q 436 492 414 514 q 458 417 458 469 q 450 391 458 401 q 428 381 442 381 q 415 383 424 381 q 396 389 407 386 l 394 389 q 371 394 382 392 q 354 397 360 397 q 299 382 331 397 q 238 343 267 367 q 188 292 208 319 q 168 239 168 264 z "},"ङ":{"ha":1126,"x_min":-14,"x_max":1161,"o":"m 178 232 q 220 153 192 189 q 286 93 249 118 q 369 54 324 68 q 464 40 415 40 q 573 54 519 40 q 669 92 626 68 q 738 144 711 115 q 764 206 764 174 q 749 248 764 229 q 704 267 735 267 q 653 260 688 267 q 583 244 619 253 q 513 229 546 236 q 464 222 479 222 q 381 248 424 222 q 301 314 338 274 q 242 402 265 354 q 219 496 219 450 q 238 544 219 521 q 285 584 256 567 q 353 612 315 601 q 432 622 392 622 l 482 622 q 581 619 544 622 q 626 608 617 617 l 631 608 q 624 663 628 636 q 618 717 621 690 l -14 717 l -14 806 l 614 806 q 620 861 614 838 q 636 885 626 885 q 696 864 663 885 q 768 806 729 843 l 1161 806 l 1161 717 l 783 717 q 746 703 763 717 q 729 671 729 690 q 732 640 729 661 q 738 597 735 619 q 744 553 742 574 q 747 522 747 532 q 738 503 747 511 q 717 496 728 496 q 675 499 704 496 q 612 505 646 501 q 546 511 578 508 q 497 514 514 514 q 359 479 410 514 q 308 389 308 444 q 333 347 308 364 q 392 329 358 329 q 445 334 408 329 q 523 345 482 339 q 599 357 564 351 q 650 363 635 363 q 719 341 683 363 q 785 285 756 319 q 833 210 814 251 q 853 132 853 169 q 829 52 853 90 q 765 -15 806 14 q 673 -60 725 -43 q 564 -76 621 -76 q 390 -44 476 -76 q 234 42 303 -11 q 123 164 165 96 q 81 303 81 232 q 91 335 81 322 q 121 349 101 349 q 147 319 135 349 q 178 232 158 290 m 846 444 q 852 465 846 456 q 864 482 858 475 l 906 532 q 936 547 921 547 q 950 544 943 547 q 964 536 957 540 l 1015 501 q 1035 486 1028 492 q 1042 471 1042 481 q 1038 453 1042 460 q 1031 439 1035 447 l 982 381 q 972 374 976 375 q 964 374 967 374 q 921 385 946 374 l 881 410 q 846 444 846 431 z "},"च":{"ha":1083,"x_min":3,"x_max":1082,"o":"m 196 363 q 149 376 174 364 q 103 405 124 388 q 68 444 82 422 q 54 489 54 467 q 60 511 54 500 q 74 522 67 522 q 89 518 76 522 q 117 508 101 514 q 151 496 133 501 q 179 489 168 490 q 547 549 404 489 q 576 559 558 556 q 606 563 593 563 q 637 548 619 563 q 669 513 654 533 q 694 469 683 492 q 704 432 704 447 q 697 421 704 425 q 682 417 689 417 q 660 419 674 417 q 630 424 646 421 q 600 430 614 428 q 579 432 586 432 q 507 418 546 432 q 436 383 468 404 q 383 335 404 361 q 361 283 361 308 q 398 225 361 244 q 506 206 435 206 q 651 235 582 206 q 701 265 676 244 q 747 306 726 286 q 782 340 768 325 q 800 356 796 356 q 822 349 811 356 q 835 329 832 343 l 840 329 q 837 523 839 426 q 833 717 835 619 l 3 717 l 3 806 l 833 806 q 841 868 833 843 q 858 893 849 893 q 922 869 889 893 q 975 806 954 844 l 1082 806 l 1082 717 l 988 717 q 959 668 969 708 q 949 574 949 628 l 949 199 q 940 95 949 144 q 916 8 931 46 q 881 -53 901 -31 q 838 -76 860 -76 q 806 -66 825 -76 q 770 -40 788 -56 q 740 -8 753 -25 q 728 22 728 8 q 737 42 728 35 q 758 49 746 49 q 823 95 799 49 q 847 206 847 142 l 843 206 q 690 124 764 150 q 546 99 617 99 q 456 122 501 99 q 372 184 410 146 q 311 269 335 222 q 288 363 288 317 l 283 363 q 269 361 281 361 q 246 361 258 361 l 196 363 l 196 363 z "},"छ":{"ha":965,"x_min":-25,"x_max":968,"o":"m 89 215 q 98 263 89 238 q 122 311 107 288 q 160 355 138 335 q 208 389 182 375 q 144 467 168 421 q 119 557 119 513 q 144 646 119 606 q 208 717 168 686 l -25 717 l -25 806 l 717 806 l 717 849 q 730 886 717 871 q 757 901 743 901 q 774 897 764 899 q 793 883 783 894 l 861 806 l 968 806 l 968 717 l 888 717 q 850 697 867 717 q 833 646 833 678 q 834 615 833 636 q 836 571 835 594 q 838 526 838 547 q 839 496 839 506 q 833 444 839 458 q 821 425 828 429 q 808 419 814 421 q 803 407 803 418 q 811 389 803 397 q 840 335 831 365 q 849 275 849 304 q 808 158 849 215 l 810 158 q 824 147 815 154 q 840 133 832 140 q 855 119 849 126 q 861 107 861 113 q 854 83 861 93 q 836 74 847 74 l 776 99 q 622 -31 708 14 q 447 -76 536 -76 q 329 -49 392 -76 q 213 20 267 -22 q 124 115 160 63 q 89 215 89 167 m 189 158 q 251 58 189 93 q 422 22 314 22 q 562 61 489 22 q 693 171 635 100 l 692 171 q 641 244 660 199 q 622 349 622 290 q 631 400 622 375 q 653 445 639 425 q 686 477 667 465 q 728 489 706 489 l 731 489 q 718 589 721 542 q 715 672 715 636 q 715 696 715 686 q 717 717 715 706 l 414 717 q 397 682 414 697 q 354 664 379 667 q 301 640 326 656 q 258 601 276 624 q 228 552 239 579 q 217 496 217 525 q 226 445 217 471 q 256 407 235 419 l 258 407 q 403 417 289 417 l 439 417 q 478 382 465 417 q 492 303 492 347 q 487 292 492 294 q 478 289 482 289 q 459 292 471 289 q 436 297 447 294 l 435 297 q 419 301 425 300 q 410 303 413 303 q 326 292 365 303 q 256 261 286 281 q 207 215 225 242 q 189 158 189 189 m 696 303 q 710 246 696 269 q 746 222 724 222 q 769 251 757 222 q 782 311 782 281 q 772 354 782 336 q 746 372 761 372 q 711 352 726 372 q 696 303 696 332 z "},"ज":{"ha":1111,"x_min":-40,"x_max":1136,"o":"m 407 142 q 478 156 444 142 q 537 192 511 169 q 578 246 563 215 q 593 311 593 276 q 566 373 593 349 q 504 397 539 397 q 490 393 497 397 q 474 385 482 389 q 460 376 467 381 q 450 372 453 372 q 422 388 436 372 q 398 426 408 404 q 381 469 388 447 q 375 504 375 492 q 384 522 375 515 q 400 529 393 529 q 410 528 401 529 q 431 525 419 526 l 458 522 l 785 522 q 803 525 792 522 q 821 535 814 528 q 847 504 832 528 q 883 432 861 481 l 883 717 l -40 717 l -40 806 l 883 806 l 883 822 q 890 874 883 857 q 919 892 896 892 q 957 865 935 892 q 1007 806 979 839 l 1136 806 l 1136 717 l 1001 717 q 988 713 993 717 q 980 697 983 710 q 976 657 976 683 q 975 585 975 631 q 977 508 975 560 q 981 399 979 456 q 985 290 983 342 q 988 215 988 239 q 981 106 988 158 q 961 13 975 53 q 927 -52 947 -28 q 881 -76 907 -76 q 847 -68 864 -76 q 816 -47 829 -60 q 794 -18 803 -35 q 786 15 786 -1 q 793 28 786 22 q 810 33 800 33 q 870 79 850 33 q 890 222 890 125 q 888 328 890 292 q 879 381 886 364 q 813 400 850 393 q 744 407 776 407 q 610 389 654 407 q 672 317 649 361 q 696 232 696 272 q 677 148 696 186 q 626 82 658 110 q 550 38 593 54 q 458 22 507 22 q 320 67 390 22 q 193 184 250 113 q 100 344 136 256 q 64 522 64 433 q 69 540 64 532 q 86 549 75 549 q 115 542 99 549 q 148 526 132 535 q 174 506 164 517 q 185 489 185 496 q 181 471 185 482 q 172 447 176 460 q 164 424 168 435 q 160 407 160 413 q 181 304 160 353 q 235 219 201 256 q 314 163 269 183 q 407 142 358 142 z "},"झ":{"ha":1104,"x_min":-18,"x_max":1138,"o":"m 111 58 q 140 115 111 90 q 214 139 169 139 q 267 126 238 139 q 343 65 297 113 l 344 65 q 549 106 472 65 q 626 222 626 146 q 614 247 626 236 q 579 258 601 258 q 536 253 564 258 q 477 240 508 247 q 418 228 446 233 q 376 222 390 222 q 272 244 321 222 q 188 301 224 265 q 131 386 151 338 q 110 489 110 435 q 124 541 110 515 q 163 586 138 567 q 221 617 188 606 q 292 629 254 629 q 328 626 304 629 q 380 619 353 622 q 433 612 407 615 q 471 608 458 608 l 497 608 q 497 663 497 636 q 494 717 497 690 l -18 717 l -18 806 l 490 806 q 500 881 490 860 q 525 901 510 901 q 565 874 549 901 q 601 806 582 846 l 882 806 l 882 838 q 888 883 882 865 q 922 901 894 901 q 955 876 932 901 q 997 806 978 850 l 1138 806 l 1138 717 l 992 717 q 972 688 976 717 q 967 621 967 658 q 968 554 967 596 q 972 462 969 513 q 976 356 974 411 q 981 250 979 301 q 985 157 983 199 q 986 90 986 115 q 983 26 986 56 q 974 -27 981 -4 q 954 -63 967 -50 q 922 -76 942 -76 q 883 -66 907 -76 q 837 -40 860 -56 q 798 -8 814 -25 q 782 22 782 10 q 792 35 782 29 q 813 40 801 40 q 843 54 829 40 q 867 91 857 68 q 884 144 878 114 q 890 206 890 174 q 876 236 890 225 q 842 247 861 247 q 787 228 814 247 q 744 174 760 210 l 700 215 l 696 215 q 697 199 697 213 q 697 176 697 188 q 696 156 696 165 l 696 132 q 674 72 696 101 q 618 18 653 43 q 540 -26 583 -7 q 456 -53 497 -44 l 613 -156 q 663 -183 640 -168 q 686 -211 686 -197 q 660 -245 686 -229 q 600 -261 633 -261 q 563 -241 590 -261 q 502 -192 535 -221 q 437 -133 469 -164 q 386 -78 404 -101 l 306 -76 q 226 -63 261 -76 q 165 -30 190 -50 q 125 14 139 -10 q 111 58 111 38 m 271 329 q 327 333 290 329 q 403 342 364 338 q 480 351 443 347 q 536 356 517 356 q 581 342 550 356 q 646 303 611 329 l 649 303 q 786 349 690 349 q 842 343 819 349 q 878 329 865 338 l 882 329 q 877 426 879 354 q 875 618 875 499 l 875 717 l 601 717 q 589 700 590 717 q 588 664 588 683 q 589 639 588 656 q 591 605 590 622 q 593 572 592 588 q 594 549 594 556 q 592 490 594 514 q 567 467 590 467 q 522 472 551 467 q 460 485 492 478 q 399 499 428 493 q 354 504 369 504 q 289 497 319 504 q 236 476 258 489 q 201 445 214 463 q 189 407 189 428 q 212 351 189 372 q 271 329 235 329 z "},"ञ":{"ha":1207,"x_min":-3,"x_max":1235,"o":"m 239 144 q 110 291 151 218 q 68 422 68 364 q 146 461 68 461 q 160 440 156 461 q 164 397 164 418 q 195 297 164 346 q 276 210 226 249 q 386 149 325 172 q 507 125 447 125 q 676 174 614 125 q 739 303 739 224 q 724 363 739 335 q 681 414 708 392 q 618 449 654 436 q 542 461 582 461 q 444 437 490 461 q 353 374 397 413 l 256 481 q 381 550 321 526 q 507 574 440 574 q 592 557 550 574 q 669 510 633 540 q 731 435 704 479 q 774 339 758 392 l 778 339 q 839 357 813 351 q 893 363 865 363 q 940 351 917 363 q 985 317 964 340 q 978 468 983 369 q 969 717 972 567 l -3 717 l -3 806 l 969 806 q 975 849 969 829 q 989 879 979 865 q 1018 893 999 893 q 1048 865 1031 893 q 1085 806 1065 838 l 1235 806 l 1235 717 l 1094 717 q 1082 713 1086 717 q 1075 696 1078 708 q 1072 659 1072 683 q 1071 594 1071 635 q 1078 338 1074 465 q 1086 82 1083 211 q 1082 20 1086 49 q 1069 -30 1078 -8 q 1048 -64 1061 -51 q 1015 -76 1035 -76 q 935 -58 967 -76 q 903 -19 903 -40 q 910 3 903 -4 q 928 11 917 11 q 956 31 944 11 q 976 81 968 50 q 988 152 983 113 q 992 232 992 192 q 970 233 981 233 q 947 233 960 233 q 864 227 908 233 q 783 206 819 221 l 782 206 q 760 122 778 161 q 713 54 742 83 q 644 8 683 25 q 563 -8 606 -8 q 410 31 494 -8 q 239 144 326 69 z "},"ट":{"ha":769,"x_min":-12,"x_max":775,"o":"m 150 199 q 166 137 150 165 q 209 87 182 108 q 274 53 236 65 q 353 40 311 40 q 592 125 453 40 l 593 125 q 629 149 610 149 q 651 140 639 149 q 673 118 663 131 q 690 91 683 106 q 696 65 696 76 q 666 18 696 43 q 592 -28 636 -7 q 500 -62 549 -49 q 414 -76 451 -76 q 291 -46 351 -76 q 183 35 231 -15 q 106 151 135 86 q 76 283 76 215 q 176 440 76 385 q 463 496 276 496 q 503 513 485 496 q 522 549 522 529 l 522 717 l -12 717 l -12 806 l 518 806 q 524 849 518 829 q 538 879 528 865 q 567 893 547 893 q 600 867 579 893 q 647 806 621 842 l 775 806 l 775 717 l 653 717 q 632 706 638 717 q 626 664 626 694 l 626 489 q 616 438 626 461 q 588 399 606 415 q 545 372 569 382 q 494 363 521 363 q 238 322 325 363 q 150 199 150 281 z "},"ठ":{"ha":767,"x_min":-14,"x_max":772,"o":"m 71 258 q 94 349 71 308 q 161 419 118 390 q 265 465 204 449 q 403 481 326 481 q 492 499 461 481 q 524 563 524 518 l 524 717 l -14 717 l -14 806 l 517 806 q 518 810 519 806 q 519 821 517 814 l 519 849 q 527 874 519 864 q 543 885 535 885 q 583 865 558 885 q 651 806 608 844 l 772 806 l 772 717 l 635 717 q 626 693 629 717 q 623 635 624 669 q 620 559 622 600 q 612 482 618 518 q 594 421 606 446 q 563 394 583 396 q 640 280 608 343 q 671 149 671 217 q 651 63 671 103 q 599 -9 632 22 q 522 -58 565 -40 q 432 -76 479 -76 q 300 -48 365 -76 q 184 28 235 -19 q 102 135 133 75 q 71 258 71 196 m 158 204 q 195 93 158 138 q 292 49 232 49 l 388 49 q 464 63 426 49 q 531 103 501 78 q 577 164 560 129 q 594 239 594 199 q 574 316 594 276 q 522 376 554 356 l 521 376 q 372 364 439 374 q 258 335 306 354 q 185 283 211 315 q 158 204 158 251 z "},"ड":{"ha":906,"x_min":-17,"x_max":918,"o":"m 161 239 q 206 158 176 194 q 275 94 236 121 q 360 54 314 68 q 456 40 406 40 q 564 54 510 40 q 660 92 618 68 q 730 144 703 115 q 757 206 757 174 q 740 248 757 229 q 696 267 724 267 q 644 260 678 267 q 573 244 610 253 q 503 229 536 236 q 456 222 471 222 q 372 248 415 222 q 293 314 329 274 q 233 402 257 354 q 210 496 210 450 q 228 544 210 521 q 276 584 246 567 q 344 612 306 601 q 425 622 383 622 l 471 622 q 570 619 533 622 q 618 608 607 617 l 622 608 l 608 717 l -17 717 l -17 806 l 603 806 q 610 861 603 838 q 626 885 617 885 q 685 864 651 885 q 758 806 718 843 l 918 806 l 918 717 l 771 717 q 738 703 753 717 q 722 671 722 690 q 724 640 722 661 q 729 597 726 619 q 734 553 732 574 q 736 522 736 532 q 706 496 736 496 q 663 499 693 496 q 600 505 633 501 q 535 511 567 508 q 489 514 504 514 q 349 479 400 514 q 297 389 297 444 q 323 347 297 364 q 381 329 349 329 q 435 334 399 329 q 513 345 472 339 q 588 357 553 351 q 639 363 624 363 q 710 341 674 363 q 775 285 746 319 q 823 210 804 251 q 842 132 842 169 q 817 52 842 90 q 749 -15 792 14 q 649 -60 706 -43 q 529 -76 593 -76 q 365 -45 447 -76 q 219 38 283 -14 q 114 155 154 89 q 74 289 74 221 q 82 331 74 313 q 108 349 90 349 q 129 339 119 349 q 145 313 139 329 q 156 278 151 297 q 161 239 160 258 z "},"ढ":{"ha":782,"x_min":-14,"x_max":788,"o":"m 156 199 q 173 133 156 163 q 219 83 190 104 q 288 51 249 63 q 372 40 328 40 q 517 65 458 40 q 475 158 475 100 q 498 235 475 204 q 561 267 521 267 q 606 253 582 267 q 649 219 629 240 q 681 170 668 197 q 693 117 693 143 q 686 72 693 96 q 668 31 679 49 q 672 22 669 26 q 676 11 674 17 q 682 -1 679 6 q 677 -22 682 -12 q 661 -33 672 -32 q 656 -31 661 -33 q 643 -25 650 -28 q 630 -19 636 -22 q 622 -15 624 -17 l 619 -15 q 532 -61 574 -46 q 458 -76 490 -76 l 418 -76 q 295 -47 356 -76 q 187 31 235 -17 q 109 141 139 79 q 79 267 79 203 q 152 416 79 365 q 372 467 225 467 q 501 501 460 467 q 542 601 542 535 q 540 674 542 647 q 535 717 539 701 l -14 717 l -14 806 l 507 806 q 517 869 507 846 q 546 893 528 893 q 593 872 572 893 q 647 806 614 850 l 788 806 l 788 717 l 656 717 q 639 706 643 717 q 635 664 635 696 l 635 489 q 623 435 635 460 q 591 394 611 411 q 543 366 571 376 q 485 356 515 356 q 339 346 401 353 q 236 322 276 339 q 176 276 196 306 q 156 199 156 246 m 544 158 q 556 117 544 135 q 589 99 567 99 q 612 117 600 99 q 624 158 624 135 q 615 187 624 175 q 596 199 607 199 q 560 188 576 199 q 544 158 544 176 z "},"ण":{"ha":957,"x_min":-18,"x_max":963,"o":"m 376 107 q 288 139 338 107 q 196 217 239 171 q 124 318 153 264 q 94 417 94 372 q 135 717 94 589 l -18 717 l -18 806 l 158 806 q 174 872 158 843 q 213 901 189 901 q 256 872 229 901 q 308 806 283 842 l 718 806 q 733 872 718 843 q 772 901 749 901 q 811 872 789 901 q 858 806 833 842 l 963 806 l 963 717 l 846 717 q 826 702 831 717 q 822 668 822 688 l 822 656 l 824 142 q 816 58 824 97 q 796 -12 808 18 q 765 -59 783 -42 q 726 -76 747 -76 q 695 -65 713 -76 q 662 -37 678 -54 q 635 -3 646 -21 q 624 31 624 15 q 631 44 624 39 q 649 49 638 49 q 691 82 675 49 q 715 172 707 115 q 726 303 724 228 q 729 461 729 378 q 728 588 729 524 q 728 717 728 653 l 493 717 q 558 591 538 658 q 579 453 579 524 q 563 320 579 383 q 519 210 547 257 q 455 135 492 163 q 376 107 418 107 m 308 224 q 383 247 347 224 q 447 312 419 271 q 490 407 474 353 q 506 522 506 461 q 489 631 506 581 q 442 717 472 682 l 258 717 q 224 632 236 675 q 207 545 213 589 q 200 456 201 501 q 199 363 199 410 q 226 262 199 300 q 308 224 253 224 z "},"त":{"ha":874,"x_min":-39,"x_max":886,"o":"m 161 215 q 175 124 161 167 q 214 48 189 82 q 272 -10 239 14 q 344 -43 306 -33 q 386 -110 386 -72 q 364 -142 386 -142 q 305 -120 338 -142 q 238 -64 272 -99 q 170 16 203 -29 q 112 108 138 61 q 71 201 86 156 q 56 283 56 247 q 77 386 56 340 q 138 464 99 432 q 234 513 178 496 q 358 529 290 529 q 502 499 429 529 q 633 407 575 469 l 638 407 l 628 519 q 621 581 622 556 q 619 621 619 607 q 622 668 619 644 q 629 717 625 692 l -39 717 l -39 806 l 638 806 q 651 868 638 843 q 681 893 665 893 q 727 867 701 893 q 782 806 753 842 l 886 806 l 886 717 l 758 717 q 738 694 743 717 q 733 635 733 671 q 736 552 733 607 q 742 437 739 497 q 749 322 746 376 q 751 239 751 267 q 744 118 751 175 q 723 18 736 61 q 692 -51 710 -25 q 653 -76 674 -76 q 613 -67 635 -76 q 571 -42 590 -57 q 538 -10 551 -26 q 525 22 525 7 q 533 42 525 35 q 553 49 542 49 q 585 65 569 49 q 613 110 601 82 q 631 176 624 138 q 638 258 638 214 q 636 285 638 269 q 632 319 635 300 l 628 339 q 517 390 579 372 q 389 407 456 407 q 224 356 286 407 q 161 215 161 306 z "},"थ":{"ha":986,"x_min":76,"x_max":1007,"o":"m 149 363 q 191 290 164 322 q 252 236 218 258 q 326 202 286 214 q 408 190 367 190 q 479 203 442 190 q 553 242 517 217 q 626 302 590 267 q 690 381 661 338 l 750 311 q 751 336 751 322 q 751 365 751 350 q 748 509 751 426 q 744 672 744 592 l 744 717 l 704 717 q 683 708 696 717 q 658 688 671 699 q 635 669 646 678 q 617 660 624 660 q 596 673 606 660 q 579 705 586 686 q 567 744 572 724 q 563 779 563 764 q 569 809 563 797 q 593 821 576 821 q 626 813 606 821 q 661 806 646 806 l 742 806 q 752 867 742 842 q 790 893 763 893 q 810 884 799 893 q 834 861 822 875 q 857 833 846 847 q 875 806 868 818 l 1007 806 l 1007 717 l 863 717 q 853 697 856 717 q 850 621 850 676 q 851 551 850 594 q 853 456 851 508 q 856 347 854 403 q 860 238 858 290 q 862 142 861 186 q 863 74 863 99 q 837 -33 863 11 q 761 -76 811 -76 q 735 -69 750 -76 q 705 -51 719 -62 q 680 -26 690 -40 q 669 3 669 -12 q 676 15 669 10 q 689 21 683 21 q 719 35 706 21 q 741 72 732 49 q 754 123 750 94 q 758 181 758 151 l 758 239 q 622 122 694 163 q 479 82 550 82 q 324 110 397 82 q 196 185 251 138 q 108 296 140 232 q 76 432 76 360 q 92 467 76 451 q 139 489 108 483 q 221 506 188 496 q 274 522 254 515 q 217 561 242 538 q 174 612 192 585 q 147 669 157 639 q 138 726 138 699 q 154 791 138 757 q 196 853 171 825 q 252 901 221 882 q 313 919 283 919 q 372 891 339 919 q 435 820 406 863 q 483 731 464 778 q 503 646 503 683 q 478 542 503 590 q 407 458 453 494 q 297 397 361 421 q 151 363 232 372 l 149 363 m 336 536 q 403 592 376 551 q 431 681 431 632 q 401 763 431 728 q 326 797 371 797 q 242 760 276 797 q 208 671 208 724 q 226 629 208 639 q 267 613 243 619 l 268 613 q 312 594 292 606 q 332 547 332 583 l 332 536 l 336 536 z "},"द":{"ha":785,"x_min":-22,"x_max":815,"o":"m 128 199 q 144 130 128 161 q 187 76 160 99 q 249 42 214 54 q 325 31 285 31 q 442 49 397 31 q 426 96 431 74 q 422 138 422 118 q 455 236 422 197 q 536 275 488 275 q 584 263 561 275 q 625 228 607 250 q 654 179 643 207 q 665 121 665 151 q 658 71 665 96 q 636 24 650 46 q 603 -15 622 3 q 560 -43 583 -33 l 558 -43 q 581 -79 565 -58 q 611 -121 596 -100 q 638 -158 626 -142 q 650 -181 650 -175 q 638 -209 650 -200 q 618 -218 626 -218 q 555 -176 590 -218 q 482 -62 519 -133 l 481 -62 q 422 -73 449 -68 q 389 -78 396 -78 q 256 -49 318 -78 q 149 28 194 -21 q 76 142 103 76 q 50 281 50 207 q 71 374 50 332 q 129 447 92 417 q 219 495 167 478 q 333 514 271 513 l 442 522 q 509 531 485 522 q 545 553 533 539 q 559 586 557 568 q 561 624 561 604 q 559 672 561 650 q 554 717 557 694 l -22 717 l -22 806 l 546 806 q 563 859 549 833 q 588 885 576 885 q 607 877 596 885 q 629 858 618 869 q 650 832 640 846 q 667 806 660 818 l 815 806 l 815 717 l 651 717 q 649 640 651 682 q 647 536 647 599 q 577 428 647 457 q 376 394 507 399 q 249 379 297 394 q 173 338 200 364 q 137 276 146 311 q 128 199 128 240 m 517 74 q 567 99 549 76 q 586 149 586 122 q 576 190 586 174 q 547 206 567 206 q 513 190 528 206 q 499 149 499 175 q 514 74 499 101 l 517 74 z "},"ध":{"ha":982,"x_min":97,"x_max":1014,"o":"m 185 181 q 226 115 185 133 q 332 96 267 96 l 358 96 q 499 129 442 96 q 594 203 556 163 q 660 276 633 243 q 711 310 688 310 q 726 294 721 310 q 747 260 732 279 l 746 717 q 719 707 731 717 q 697 686 707 697 q 675 665 686 675 q 650 656 664 656 q 628 670 640 656 q 606 706 617 685 q 587 753 594 728 q 579 797 579 778 q 600 817 579 817 q 632 811 615 817 q 658 806 649 806 l 746 806 l 746 831 q 783 896 746 896 q 832 869 806 896 q 881 806 858 842 l 1014 806 l 1014 717 l 864 717 q 850 695 853 717 q 847 621 847 674 q 849 515 847 585 q 851 369 850 446 q 853 222 851 292 q 854 117 854 153 q 847 38 854 75 q 825 -26 839 1 q 792 -68 811 -53 q 750 -83 772 -83 q 729 -75 742 -83 q 705 -56 717 -67 q 685 -31 693 -44 q 676 -8 676 -18 q 681 3 676 -3 q 692 10 685 10 l 693 10 q 737 72 722 25 q 751 181 751 118 q 592 47 678 94 q 407 -1 506 -1 q 295 20 350 -1 q 196 77 240 42 q 124 157 151 113 q 97 247 97 201 q 106 285 97 265 q 131 322 115 304 q 167 356 146 340 q 213 381 188 371 q 168 418 189 396 q 131 466 147 440 q 106 519 115 492 q 97 574 97 546 q 120 665 97 619 q 180 748 143 711 q 263 808 217 785 q 354 831 308 831 q 417 815 386 831 q 474 776 449 800 q 514 720 499 751 q 529 656 529 689 q 519 609 529 631 q 491 572 508 588 q 449 546 474 556 q 397 536 425 536 q 360 547 378 536 q 327 578 342 558 q 301 623 313 597 q 286 676 290 649 q 212 623 239 669 q 185 514 185 576 q 205 447 185 476 q 256 407 225 418 q 341 425 300 418 q 426 432 382 432 q 488 398 467 432 q 510 317 510 364 q 501 298 510 307 q 481 289 492 289 q 465 291 476 289 q 440 296 453 293 q 415 301 428 299 q 397 303 403 303 q 319 296 357 303 q 251 274 281 289 q 203 237 221 260 q 185 181 185 214 m 414 608 q 440 626 425 608 q 454 664 454 644 q 435 704 454 686 q 397 722 417 722 q 356 713 372 722 q 340 696 340 703 q 359 637 340 665 q 414 608 378 608 z "},"न":{"ha":910,"x_min":-24,"x_max":940,"o":"m 260 107 q 189 123 222 107 q 130 165 156 139 q 89 227 104 192 q 74 303 74 263 q 96 369 74 340 q 150 422 118 399 l 151 422 l 135 447 q 108 471 115 458 q 100 489 100 483 q 108 518 100 507 q 131 529 115 529 q 170 511 146 529 q 219 461 194 493 l 222 461 q 333 494 278 485 q 450 504 389 504 q 582 481 522 504 q 685 417 642 457 q 677 524 678 450 q 676 717 676 597 l -24 717 l -24 806 l 679 806 q 690 868 679 843 q 719 893 700 893 q 741 885 729 893 q 765 864 753 876 q 788 835 776 851 q 811 806 800 819 l 940 806 l 940 717 l 803 717 q 783 702 790 717 q 775 635 775 688 l 775 158 q 769 68 775 110 q 753 -4 764 26 q 724 -52 742 -35 q 682 -69 707 -69 q 652 -63 669 -69 q 619 -47 635 -57 q 592 -24 603 -37 q 581 3 581 -11 q 604 33 581 33 q 636 49 621 33 q 663 91 651 65 q 681 151 675 117 q 688 222 688 185 q 687 288 688 258 q 686 349 686 318 q 483 397 568 397 q 331 363 401 397 l 329 363 q 347 306 340 342 q 353 232 353 269 q 328 144 353 181 q 260 107 303 107 m 236 190 q 272 213 256 190 q 289 258 289 236 q 269 308 289 286 q 221 329 249 329 q 190 310 206 329 q 175 267 175 292 q 192 213 175 235 q 236 190 208 190 z "},"ऩ":{"ha":938,"x_min":-15,"x_max":954,"o":"m 260 107 q 189 123 222 107 q 130 165 156 139 q 89 227 104 192 q 74 303 74 263 q 96 369 74 340 q 151 422 118 399 q 118 460 136 446 q 100 489 100 475 q 108 518 100 507 q 131 529 115 529 q 170 511 146 529 q 219 461 194 493 q 333 494 278 485 q 450 504 389 504 q 524 498 486 504 q 596 481 561 492 q 660 453 631 469 q 710 417 689 438 q 702 524 703 450 q 701 717 701 597 l -15 717 l -15 806 l 704 806 q 716 868 704 843 q 747 893 728 893 q 769 885 757 893 q 792 864 781 876 q 816 835 804 851 q 839 806 828 819 l 954 806 l 954 717 l 831 717 q 810 702 818 717 q 803 635 803 688 l 803 158 q 797 68 803 110 q 781 -4 792 26 q 751 -52 769 -35 q 707 -69 732 -69 q 679 -63 696 -69 q 647 -47 663 -57 q 619 -24 631 -37 q 608 3 608 -11 q 632 33 608 33 q 664 49 649 33 q 690 91 679 65 q 706 151 700 117 q 713 222 713 185 q 712 288 713 258 q 711 349 711 318 q 591 385 654 372 q 483 397 528 397 q 329 363 403 397 q 347 306 340 342 q 353 232 353 269 q 328 144 353 181 q 260 107 303 107 m 236 190 q 272 213 256 190 q 289 258 289 236 q 269 308 289 286 q 221 329 249 329 q 190 310 206 329 q 175 267 175 292 q 192 213 175 235 q 236 190 208 190 m 342 26 q 363 68 342 51 q 418 85 383 85 q 469 67 450 85 q 489 26 489 49 q 469 -20 489 -1 q 414 -39 449 -39 q 342 26 342 -39 z "},"प":{"ha":853,"x_min":-22,"x_max":868,"o":"m 378 125 q 277 150 326 125 q 190 215 228 175 q 128 305 151 254 q 104 407 104 356 q 128 574 104 496 q 196 717 151 653 l -22 717 l -22 806 l 625 806 q 638 867 625 842 q 674 893 650 893 q 707 869 685 893 q 753 806 729 846 l 868 806 l 868 717 l 743 717 q 721 691 725 717 q 717 629 717 665 q 718 540 717 600 q 720 415 719 481 q 722 289 721 349 q 724 199 724 229 q 715 88 724 142 q 690 -6 706 35 q 653 -70 675 -46 q 604 -94 631 -94 q 570 -83 589 -94 q 536 -57 551 -72 q 510 -24 521 -42 q 500 10 500 -6 q 510 26 500 21 q 533 31 519 31 q 567 46 551 31 q 594 86 582 61 q 612 144 606 111 q 618 215 618 178 q 485 147 544 168 q 378 125 426 125 m 274 222 q 426 253 351 222 q 558 346 500 285 l 618 275 q 617 318 618 289 q 615 381 617 347 q 613 444 614 414 q 613 489 613 474 q 615 628 613 572 q 619 717 617 685 l 364 717 q 233 532 276 633 q 190 329 190 431 q 215 253 190 283 q 274 222 240 222 z "},"फ":{"ha":1040,"x_min":-18,"x_max":1042,"o":"m 356 163 q 263 189 310 163 q 177 257 215 215 q 115 350 139 299 q 90 453 90 401 q 115 587 90 524 q 188 717 139 650 l -18 717 l -18 806 l 514 806 q 531 872 514 842 q 575 901 549 901 q 610 878 593 901 q 661 806 626 856 l 1042 806 l 1042 717 l 622 717 q 604 654 611 685 q 597 569 597 624 q 601 500 597 531 q 610 443 606 469 q 665 465 633 458 q 721 472 697 472 q 816 443 769 472 q 899 367 863 414 q 959 259 936 319 q 982 138 982 199 q 969 67 982 101 q 937 5 957 32 q 891 -39 917 -22 q 838 -56 865 -56 q 815 -46 828 -56 q 790 -21 801 -36 q 769 11 778 -6 q 761 43 761 28 q 769 55 761 50 q 788 61 778 60 q 874 119 840 74 q 908 222 908 164 q 897 278 908 251 q 865 326 885 306 q 819 360 846 347 q 761 372 792 372 q 686 360 726 372 q 614 324 646 347 l 613 324 q 617 258 615 297 q 618 163 618 219 q 614 69 618 113 q 599 -6 610 26 q 572 -56 589 -37 q 531 -74 556 -74 q 504 -65 519 -74 q 474 -42 489 -56 q 450 -13 460 -29 q 440 17 440 3 q 476 29 440 29 q 496 42 489 29 q 506 75 503 54 q 510 122 510 96 q 511 176 511 149 q 510 207 511 192 q 506 236 508 222 q 426 182 464 201 q 356 163 388 163 m 278 263 q 386 292 329 263 q 506 376 443 322 q 490 517 490 442 l 490 642 q 493 690 490 676 q 499 717 496 703 l 346 717 q 227 564 268 653 q 186 371 186 475 q 211 294 186 326 q 278 263 236 263 z "},"ब":{"ha":860,"x_min":-8,"x_max":876,"o":"m 346 142 q 251 165 300 142 q 161 228 201 189 q 95 315 121 267 q 69 413 69 363 q 90 477 69 447 q 143 529 110 507 q 219 565 176 551 q 310 578 263 578 q 401 559 357 578 q 481 507 444 540 q 544 428 517 474 q 586 326 572 382 l 615 347 l 633 332 q 625 527 628 435 q 622 717 622 619 l -8 717 l -8 806 l 622 806 q 631 867 622 842 q 667 893 639 893 q 697 872 679 893 q 743 806 714 850 l 876 806 l 876 717 l 747 717 q 730 690 735 717 q 725 617 725 664 l 726 221 q 720 107 726 161 q 702 11 714 53 q 674 -55 690 -31 q 635 -79 657 -79 q 605 -68 624 -79 q 567 -40 586 -57 q 535 -6 549 -24 q 521 25 521 13 q 536 48 521 40 q 571 56 551 56 q 599 72 586 56 q 619 113 611 88 q 633 172 628 139 q 638 240 638 206 q 493 165 567 188 q 346 142 419 142 m 411 268 q 482 287 446 276 q 557 313 518 297 q 523 382 543 350 q 481 438 503 414 q 434 474 458 461 q 388 488 410 488 q 367 486 378 488 q 340 481 356 485 l 411 268 m 150 332 q 184 268 150 294 q 274 242 218 242 q 322 245 301 242 q 361 251 342 249 q 328 359 346 301 q 293 467 310 417 q 233 448 260 463 q 188 414 207 433 q 160 372 169 394 q 150 332 150 350 z "},"भ":{"ha":960,"x_min":124,"x_max":972,"o":"m 233 281 q 252 321 233 304 q 307 360 271 338 l 307 536 q 238 564 271 544 q 179 611 204 583 q 139 673 154 639 q 124 743 124 707 q 133 798 124 772 q 161 843 143 824 q 203 874 179 863 q 256 885 226 885 q 313 871 286 885 q 359 833 339 857 q 390 776 379 808 q 401 707 401 744 l 401 621 q 406 606 401 613 q 415 594 411 599 l 443 571 q 451 557 451 563 q 431 514 451 514 q 417 516 426 514 q 401 522 408 518 l 401 381 q 445 386 411 383 q 531 389 479 389 q 610 388 576 389 q 669 383 643 386 q 714 374 694 379 q 751 363 733 369 q 735 458 742 410 q 728 549 728 506 q 730 651 728 610 q 739 717 732 692 l 682 717 q 641 711 658 717 q 609 699 624 706 q 583 688 594 693 q 558 683 571 683 q 532 693 547 683 q 502 718 517 703 q 477 751 488 733 q 467 786 467 769 q 482 817 467 803 q 525 831 497 831 q 546 826 532 831 q 575 818 560 822 q 605 810 590 814 q 628 806 619 806 l 751 806 q 766 868 751 843 q 801 893 781 893 q 841 867 818 893 q 883 806 864 842 l 972 806 l 972 717 l 858 717 q 832 644 839 694 q 825 522 825 593 q 827 455 825 500 q 832 360 829 410 q 837 265 835 310 q 839 199 839 221 q 832 95 839 144 q 813 8 825 46 q 785 -53 801 -31 q 749 -76 768 -76 q 713 -67 732 -76 q 676 -42 693 -57 q 649 -10 660 -28 q 638 24 638 8 l 657 40 q 689 54 674 40 q 717 91 704 68 q 737 144 729 114 q 744 206 744 174 q 697 254 744 233 q 557 275 650 275 l 485 275 q 433 274 451 275 q 401 265 414 272 q 391 177 401 208 q 347 146 381 146 q 306 160 326 146 q 270 196 286 175 q 244 240 254 217 q 233 281 233 264 m 301 629 q 305 658 304 640 q 306 696 306 676 q 283 749 306 728 q 228 769 260 769 q 197 756 214 769 q 179 717 179 743 q 191 681 179 697 q 221 654 203 665 q 260 636 239 643 q 301 629 282 629 z "},"म":{"ha":826,"x_min":-19,"x_max":840,"o":"m 226 172 q 188 185 207 172 q 152 218 168 199 q 126 261 136 238 q 115 306 115 285 q 135 351 115 336 q 189 381 154 367 q 179 444 182 406 q 176 536 176 482 q 181 635 176 589 q 197 717 186 681 l -19 717 l -19 806 l 599 806 q 610 867 599 842 q 647 893 622 893 q 669 883 658 893 q 689 860 679 874 q 707 831 699 846 q 724 806 715 815 l 840 806 l 840 717 l 719 717 q 706 705 711 717 q 697 674 700 693 q 692 628 693 654 q 690 574 690 603 q 693 483 690 543 q 699 355 696 422 q 706 226 703 288 q 708 132 708 164 q 703 54 708 92 q 688 -12 699 17 q 663 -59 678 -42 q 626 -76 647 -76 q 590 -71 610 -76 q 554 -56 571 -65 q 527 -36 538 -47 q 517 -12 517 -25 q 536 18 517 18 q 569 28 557 18 q 590 67 582 39 q 600 148 597 96 q 603 283 603 200 q 526 309 568 301 q 442 317 485 317 q 365 313 410 317 q 281 290 321 310 q 269 200 281 228 q 226 172 258 172 m 285 407 q 357 425 318 418 q 450 432 396 432 q 517 427 479 432 q 604 404 556 422 q 598 501 601 454 q 594 601 594 549 q 595 663 594 635 q 599 717 596 692 l 314 717 q 285 659 296 707 q 274 529 274 611 q 276 486 274 518 q 281 407 278 454 l 285 407 z "},"य":{"ha":882,"x_min":-18,"x_max":903,"o":"m 386 125 q 269 154 324 125 q 173 234 214 183 q 109 352 132 285 q 86 496 86 419 q 99 526 86 515 q 132 536 111 536 l 208 536 q 272 568 249 536 q 296 656 296 600 q 290 686 296 671 q 275 717 283 701 l -18 717 l -18 806 l 661 806 q 679 867 661 842 q 722 893 697 893 q 757 867 733 893 q 801 806 781 842 l 903 806 l 903 717 l 765 717 q 749 663 754 700 q 744 585 744 625 q 749 504 744 557 q 757 393 753 451 q 765 283 761 335 q 769 206 769 231 q 762 92 769 146 q 741 -4 754 38 q 710 -70 728 -46 q 672 -94 693 -94 q 635 -84 656 -94 q 597 -58 614 -74 q 567 -24 579 -42 q 556 10 556 -6 q 568 33 556 25 q 600 40 581 40 q 628 55 614 40 q 653 95 642 69 q 670 156 664 121 q 676 231 676 190 q 676 252 676 240 q 675 275 676 264 q 526 165 599 206 q 386 125 453 125 m 329 222 q 382 231 354 224 q 442 254 410 238 q 488 286 460 264 q 542 331 515 308 q 587 372 568 354 q 608 389 606 389 q 621 381 611 389 q 658 349 631 372 q 656 394 658 363 q 652 460 654 425 q 648 526 650 494 q 646 574 646 557 l 646 599 q 647 676 646 647 q 651 717 649 706 l 321 717 q 367 574 367 647 q 333 458 367 504 q 233 413 300 413 l 185 413 q 163 401 174 413 q 153 376 153 389 q 167 319 153 347 q 206 270 182 292 q 263 235 231 249 q 329 222 294 222 z "},"र":{"ha":590,"x_min":-15,"x_max":600,"o":"m 244 99 q 173 201 203 156 q 124 287 143 247 q 95 362 104 326 q 86 432 86 397 q 98 492 86 464 q 128 540 110 519 q 172 573 147 561 q 225 585 197 585 q 288 577 258 585 q 340 557 318 569 q 338 623 339 585 q 338 717 338 661 l -15 717 l -15 806 l 332 806 q 343 871 332 857 q 367 885 354 885 q 399 868 382 885 q 447 806 415 851 l 600 806 l 600 717 l 454 717 q 437 697 440 717 q 433 646 433 678 l 433 446 q 428 349 433 393 q 408 274 424 306 q 365 224 393 242 q 293 207 338 207 q 274 207 283 207 q 254 210 265 207 q 376 48 313 115 q 503 -61 440 -19 l 532 -81 q 543 -97 543 -85 q 527 -124 543 -112 q 501 -136 511 -136 q 397 -77 467 -136 q 244 99 328 -18 m 218 288 q 265 297 243 288 q 305 326 288 306 q 333 377 322 346 q 343 453 343 408 q 306 474 325 467 q 276 481 288 481 q 239 472 257 481 q 206 446 221 463 q 183 408 192 429 q 174 361 174 386 q 188 312 174 336 q 218 288 203 288 z "},"ऱ":{"ha":590,"x_min":-15,"x_max":600,"o":"m 68 -1 q 92 48 68 31 q 149 65 115 65 q 199 46 181 65 q 218 -1 218 26 q 199 -42 218 -24 q 146 -61 179 -61 q 89 -43 110 -61 q 68 -1 68 -25 m 244 99 q 173 201 203 156 q 124 287 143 247 q 95 362 104 326 q 86 432 86 397 q 98 492 86 464 q 128 540 110 519 q 172 573 147 561 q 225 585 197 585 q 288 577 258 585 q 340 557 318 569 q 338 623 339 585 q 338 717 338 661 l -15 717 l -15 806 l 332 806 q 343 871 332 857 q 367 885 354 885 q 399 868 382 885 q 447 806 415 851 l 600 806 l 600 717 l 454 717 q 437 697 440 717 q 433 646 433 678 l 433 446 q 428 349 433 393 q 408 274 424 306 q 365 224 393 242 q 293 207 338 207 q 274 207 283 207 q 254 210 265 207 q 376 48 313 115 q 503 -61 440 -19 l 532 -81 q 543 -97 543 -85 q 527 -124 543 -112 q 501 -136 511 -136 q 397 -77 467 -136 q 244 99 328 -18 m 218 288 q 265 297 243 288 q 305 326 288 306 q 333 377 322 346 q 343 453 343 408 q 306 474 325 467 q 276 481 288 481 q 239 472 257 481 q 206 446 221 463 q 183 408 192 429 q 174 361 174 386 q 188 312 174 336 q 218 288 203 288 z "},"ल":{"ha":943,"x_min":-18,"x_max":943,"o":"m 164 289 q 184 178 164 231 q 241 85 204 125 q 329 22 278 46 q 443 -1 381 -1 q 481 -19 467 -1 q 497 -61 494 -37 q 494 -83 497 -72 q 486 -94 490 -94 q 334 -57 408 -94 q 202 44 260 -19 q 109 190 144 108 q 74 363 74 272 q 90 455 74 411 q 133 531 106 499 q 197 583 160 564 q 275 601 233 601 q 360 567 319 601 q 433 481 401 533 q 504 541 454 517 q 617 565 554 565 q 667 560 642 565 q 711 549 692 556 l 711 564 q 713 666 711 631 q 718 717 715 701 l -18 717 l -18 806 l 726 806 q 743 867 733 844 q 774 890 753 890 q 806 868 786 890 q 847 806 826 846 l 943 806 l 943 717 l 824 717 q 811 661 814 694 q 808 585 808 628 l 807 239 q 801 119 807 176 q 786 19 796 63 q 761 -51 776 -25 q 725 -76 746 -76 q 695 -66 713 -76 q 661 -40 678 -56 q 633 -8 644 -25 q 622 21 622 8 q 631 33 622 28 q 650 39 639 39 q 698 126 686 39 q 710 388 710 214 q 694 440 710 419 q 621 461 678 461 q 575 449 599 461 q 531 418 551 438 q 496 372 511 399 q 476 317 481 346 l 476 311 q 474 299 476 303 q 469 292 472 294 q 463 289 465 289 q 434 298 450 289 q 405 320 418 307 q 382 347 392 333 q 372 372 372 361 q 379 403 372 385 q 406 443 386 422 l 404 443 q 358 475 382 461 q 311 489 333 489 q 254 473 281 489 q 208 430 228 457 q 176 367 188 403 q 164 289 164 331 z "},"ळ":{"ha":1032,"x_min":-32,"x_max":1044,"o":"m 51 290 q 69 390 51 343 q 117 470 86 436 q 191 524 149 504 q 282 544 233 544 q 403 502 344 544 q 515 372 463 460 q 576 443 536 404 q 664 514 617 482 l 664 717 l -32 717 l -32 806 l 664 806 q 673 868 664 850 q 701 886 682 886 q 737 863 713 886 q 783 806 761 839 l 1044 806 l 1044 717 l 769 717 q 763 710 765 717 q 757 683 760 704 q 753 622 754 663 q 751 513 751 581 q 827 468 792 496 q 888 406 863 440 q 928 333 914 371 q 943 258 943 294 q 923 159 943 206 q 869 76 903 113 q 790 19 835 40 q 699 -1 746 -1 q 631 10 663 -1 q 576 38 599 21 q 540 72 553 54 q 526 104 526 90 q 534 129 526 124 q 553 135 542 135 q 572 128 563 135 q 591 113 581 121 q 615 97 601 104 q 647 90 629 90 q 738 113 699 90 q 803 169 776 135 q 844 245 831 203 q 858 329 858 288 q 829 399 858 369 q 756 429 800 429 q 717 413 740 429 q 665 369 693 397 q 606 301 636 340 q 550 215 576 261 q 440 67 493 124 q 338 10 386 10 q 232 35 283 10 q 140 99 181 60 q 76 189 100 139 q 51 290 51 239 m 128 219 q 171 138 128 171 q 274 106 214 106 q 324 123 297 106 q 378 169 351 140 q 431 237 406 199 q 481 317 457 275 q 406 410 453 379 q 310 440 360 440 q 238 418 271 440 q 180 363 204 396 q 142 292 156 331 q 128 219 128 253 z "},"ऴ":{"ha":1032,"x_min":-32,"x_max":1044,"o":"m 332 -161 q 354 -113 332 -131 q 410 -96 376 -96 q 465 -115 443 -96 q 488 -161 488 -133 q 463 -204 488 -185 q 407 -224 439 -224 q 351 -204 371 -224 q 332 -161 332 -185 m 51 290 q 69 390 51 343 q 117 470 86 436 q 191 524 149 504 q 282 544 233 544 q 403 502 344 544 q 515 372 463 460 q 576 443 536 404 q 664 514 617 482 l 664 717 l -32 717 l -32 806 l 664 806 q 673 868 664 850 q 701 886 682 886 q 737 863 713 886 q 783 806 761 839 l 1044 806 l 1044 717 l 769 717 q 763 710 765 717 q 757 683 760 704 q 753 622 754 663 q 751 513 751 581 q 827 468 792 496 q 888 406 863 440 q 928 333 914 371 q 943 258 943 294 q 923 159 943 206 q 869 76 903 113 q 790 19 835 40 q 699 -1 746 -1 q 631 10 663 -1 q 576 38 599 21 q 540 72 553 54 q 526 104 526 90 q 534 129 526 124 q 553 135 542 135 q 572 128 563 135 q 591 113 581 121 q 615 97 601 104 q 647 90 629 90 q 738 113 699 90 q 803 169 776 135 q 844 245 831 203 q 858 329 858 288 q 829 399 858 369 q 756 429 800 429 q 717 413 740 429 q 665 369 693 397 q 606 301 636 340 q 550 215 576 261 q 440 67 493 124 q 338 10 386 10 q 232 35 283 10 q 140 99 181 60 q 76 189 100 139 q 51 290 51 239 m 128 219 q 171 138 128 171 q 274 106 214 106 q 324 123 297 106 q 378 169 351 140 q 431 237 406 199 q 481 317 457 275 q 406 410 453 379 q 310 440 360 440 q 238 418 271 440 q 180 363 204 396 q 142 292 156 331 q 128 219 128 253 z "},"व":{"ha":846,"x_min":-21,"x_max":868,"o":"m 326 132 q 228 156 276 132 q 142 218 179 179 q 81 306 104 257 q 57 407 57 356 q 77 474 57 442 q 131 531 97 506 q 208 570 164 556 q 299 585 251 585 q 392 564 347 585 q 472 507 436 543 q 534 422 508 471 q 571 317 560 372 l 603 338 l 621 317 l 621 717 l -21 717 l -21 806 l 611 806 q 656 879 611 879 q 688 858 669 879 q 733 806 707 836 l 868 806 l 868 717 l 731 717 q 722 712 726 717 q 715 690 718 707 q 711 642 713 674 q 710 557 710 610 q 712 483 710 533 q 717 378 714 433 q 722 274 719 324 q 724 199 724 224 q 715 90 724 142 q 690 1 706 39 q 653 -60 675 -37 q 604 -83 631 -83 q 581 -74 596 -83 q 551 -50 565 -64 q 526 -20 536 -36 q 515 8 515 -4 q 524 21 515 15 q 544 26 533 26 q 578 43 563 26 q 605 88 594 60 q 622 150 615 115 q 628 222 628 185 l 624 222 q 471 156 544 181 q 326 132 397 132 m 139 329 q 177 264 139 289 q 283 239 215 239 q 423 256 363 239 q 532 303 483 272 q 497 372 519 342 q 450 424 475 403 q 399 456 425 444 q 350 467 372 467 q 266 458 304 467 q 199 433 228 450 q 155 390 171 415 q 139 329 139 364 z "},"श":{"ha":1024,"x_min":126,"x_max":1075,"o":"m 690 31 q 698 39 690 38 q 713 40 706 40 q 741 59 726 40 q 767 110 756 78 q 786 184 779 142 q 793 275 793 226 q 792 325 793 290 q 788 398 790 360 q 785 471 786 436 q 783 522 783 506 q 787 645 783 597 q 799 717 790 693 l 756 717 q 734 710 747 717 q 706 694 721 703 q 678 678 692 685 q 656 671 665 671 q 629 683 643 671 q 603 713 615 694 q 584 751 592 731 q 576 786 576 771 q 590 811 576 801 q 615 821 603 821 q 638 819 624 821 q 669 813 653 817 q 699 808 685 810 q 724 806 714 806 l 806 806 q 826 869 813 844 q 860 893 840 893 q 878 880 865 893 q 915 835 892 867 l 938 806 l 1075 806 l 1075 717 l 915 717 q 889 549 889 668 l 889 206 q 883 99 889 150 q 865 8 876 47 q 838 -53 854 -31 q 803 -76 822 -76 q 772 -65 792 -76 q 735 -37 753 -54 q 703 -2 717 -21 q 690 31 690 17 m 243 107 q 197 119 218 107 q 160 151 176 131 q 135 197 144 171 q 126 253 126 224 q 140 299 126 281 q 183 318 154 318 q 237 308 211 318 q 303 258 263 297 q 372 355 347 307 q 408 453 396 403 q 297 492 347 465 q 209 555 246 518 q 151 635 172 592 q 131 726 131 679 q 143 791 131 761 q 176 844 156 821 q 222 880 196 867 q 276 893 249 893 q 369 865 324 893 q 450 785 415 836 q 506 664 485 733 q 528 514 528 594 q 549 522 532 514 q 571 529 567 529 q 590 515 585 529 q 596 481 596 500 q 572 449 596 463 q 515 432 547 436 q 449 274 488 340 q 364 164 411 207 q 569 -40 506 44 q 633 -149 633 -124 q 578 -175 633 -175 q 551 -167 567 -175 q 524 -142 536 -160 q 469 -65 497 -103 q 413 6 440 -28 q 358 67 385 39 q 307 117 331 96 q 269 112 283 117 q 243 107 254 107 m 422 507 q 433 560 429 522 q 436 656 436 599 q 428 706 436 682 q 406 747 419 729 q 374 776 392 765 q 335 786 356 786 q 259 756 290 786 q 228 681 228 726 q 243 624 228 651 q 285 572 258 596 q 347 532 311 549 q 422 507 382 515 z "},"ष":{"ha":828,"x_min":-12,"x_max":849,"o":"m 360 107 q 267 138 314 107 q 183 215 221 168 q 122 317 146 261 q 97 422 97 372 q 105 507 97 465 q 126 588 113 549 q 161 659 140 626 q 208 717 182 692 l -12 717 l -12 806 l 592 806 q 601 867 592 842 q 633 893 610 893 q 670 866 650 893 q 714 806 690 839 l 849 806 l 849 717 l 711 717 q 697 686 703 717 q 692 574 692 656 q 694 495 692 547 q 698 385 696 443 q 702 276 700 328 q 704 199 704 224 q 698 96 704 146 q 680 8 692 46 q 652 -53 668 -31 q 615 -76 636 -76 q 575 -69 596 -76 q 537 -48 554 -61 q 508 -18 519 -35 q 496 15 496 -1 q 514 33 496 33 q 554 50 536 33 q 585 94 572 67 q 603 158 597 122 q 610 232 610 194 q 481 138 543 168 q 360 107 418 107 m 610 368 q 601 426 606 389 q 595 506 597 464 q 592 592 593 549 q 590 668 590 635 q 590 696 590 683 q 592 717 590 708 l 343 717 l 604 363 l 610 368 m 289 215 q 419 244 350 215 q 554 329 488 274 l 310 656 l 304 656 q 209 483 242 564 q 176 339 176 403 q 209 251 176 286 q 289 215 242 215 z "},"स":{"ha":1010,"x_min":-18,"x_max":1028,"o":"m 174 232 q 138 278 154 254 q 110 328 122 303 q 92 376 99 353 q 86 417 86 399 q 99 480 86 450 q 133 533 111 510 q 185 571 156 557 q 250 585 215 585 q 302 577 278 585 q 346 557 326 569 l 349 557 l 349 594 q 347 660 349 631 q 342 717 346 689 l -18 717 l -18 806 l 335 806 q 347 872 335 853 q 371 890 358 890 q 413 870 396 890 q 463 806 429 850 l 775 806 q 788 870 775 850 q 819 890 800 890 q 861 865 839 890 q 910 806 883 839 l 1028 806 l 1028 717 l 906 717 q 885 703 894 717 q 875 640 875 689 l 875 171 q 870 77 875 122 q 856 -2 865 32 q 831 -56 846 -36 q 797 -76 817 -76 q 761 -71 781 -76 q 725 -54 742 -65 q 697 -25 708 -43 q 686 18 686 -7 q 694 31 686 26 q 711 36 703 36 q 746 53 731 36 q 771 98 761 69 q 785 163 781 126 q 790 239 790 199 q 788 300 790 275 q 783 339 786 325 l 782 339 q 692 371 732 361 q 621 381 651 381 q 523 371 569 381 q 439 339 476 361 l 438 339 q 386 250 425 285 q 301 215 347 215 l 264 215 l 394 85 q 469 13 439 38 q 517 -26 499 -12 q 542 -50 535 -40 q 550 -76 550 -60 q 533 -115 550 -97 q 496 -133 517 -133 l 494 -133 q 485 -122 493 -133 l 174 232 m 439 467 q 516 490 471 483 q 614 496 561 496 q 688 486 646 496 q 783 453 731 476 l 775 717 l 454 717 q 441 679 443 706 q 439 629 439 653 l 439 467 m 208 303 q 251 314 229 303 q 293 345 274 325 q 327 392 313 365 q 349 449 342 418 l 311 467 q 291 471 303 469 q 272 472 279 472 q 233 461 251 472 q 200 431 214 450 q 178 388 186 413 q 169 339 169 364 q 181 316 169 326 q 208 303 193 306 z "},"ह":{"ha":797,"x_min":-14,"x_max":818,"o":"m 89 149 q 103 211 89 181 q 142 269 117 242 q 200 318 167 296 q 271 356 233 340 q 217 381 243 364 q 172 419 192 397 q 142 465 153 440 q 131 514 131 489 q 144 558 131 538 q 179 595 157 579 q 232 620 201 611 q 297 629 263 629 q 340 626 313 629 q 398 619 368 622 q 454 612 428 615 q 493 608 481 608 q 522 619 513 608 q 534 645 531 629 q 538 681 538 661 q 538 717 538 700 l -14 717 l -14 806 l 533 806 q 544 855 533 833 q 572 876 556 876 q 608 856 585 876 q 646 806 631 835 l 818 806 l 818 717 l 646 717 q 635 703 638 717 q 633 671 633 690 q 635 651 633 664 q 641 623 638 638 q 647 594 644 608 q 649 574 649 581 q 630 528 649 550 q 578 507 611 507 q 528 509 561 507 q 459 515 496 511 q 390 520 422 518 q 343 522 357 522 q 273 503 303 522 q 243 453 243 485 q 265 410 243 429 q 319 381 288 392 l 321 381 q 390 393 358 389 q 446 397 422 397 q 551 380 501 397 q 636 332 600 363 q 694 260 672 301 q 715 171 715 218 q 701 106 715 136 q 663 54 688 76 q 608 19 639 32 q 542 6 576 6 q 434 32 479 6 q 369 107 389 58 q 569 138 499 107 q 639 232 639 169 q 615 282 639 261 q 557 303 592 303 q 419 287 486 303 q 301 242 353 271 q 217 177 249 214 q 186 99 186 140 q 210 26 186 60 q 276 -31 235 -7 q 370 -69 317 -56 q 482 -83 424 -83 q 518 -78 493 -83 q 572 -67 543 -74 q 627 -56 600 -61 q 669 -51 654 -51 q 708 -65 693 -51 q 722 -94 722 -78 q 689 -153 722 -132 q 613 -175 656 -175 q 412 -149 507 -175 q 245 -80 317 -124 q 131 23 174 -36 q 89 149 89 82 z "},"़":{"ha":0,"x_min":-283,"x_max":-124,"o":"m -204 -186 q -146 -206 -168 -186 q -124 -253 -124 -226 q -147 -296 -124 -276 q -207 -315 -171 -315 q -263 -297 -243 -315 q -283 -253 -283 -278 q -260 -204 -283 -222 q -204 -186 -236 -186 z "},"ऽ":{"ha":797,"x_min":35,"x_max":686,"o":"m 35 232 q 40 247 35 238 q 52 267 44 257 q 67 283 60 276 q 81 289 75 289 q 91 281 83 289 q 101 258 99 272 l 106 239 q 158 155 128 193 q 223 89 189 117 q 294 46 257 61 q 368 31 331 31 q 431 44 401 31 q 483 79 461 57 q 519 132 506 101 q 532 199 532 163 q 502 272 532 231 q 419 349 472 313 l 271 481 q 178 584 213 529 q 144 681 144 639 q 178 770 144 735 q 264 806 213 806 l 592 806 q 659 766 632 806 q 686 671 686 726 q 676 653 686 660 q 651 646 667 646 q 631 657 643 646 q 604 681 618 668 q 578 706 590 694 q 556 717 565 717 l 414 717 q 358 710 385 717 q 311 690 332 703 q 278 662 290 678 q 267 629 267 646 q 283 581 267 610 q 326 525 299 553 l 493 381 q 597 264 557 325 q 636 142 638 203 q 616 58 636 97 q 563 -12 596 18 q 488 -59 531 -42 q 400 -76 446 -76 l 375 -76 q 259 -47 319 -76 q 149 27 199 -18 q 67 126 99 72 q 35 232 35 181 z "},"ा":{"ha":417,"x_min":-11,"x_max":422,"o":"m 78 10 q 88 26 78 21 q 108 31 97 31 q 140 42 126 31 q 164 75 154 54 q 178 123 174 96 q 183 181 183 150 l 183 717 l -11 717 l -11 806 l 175 806 l 175 838 q 183 878 175 864 q 211 892 190 892 q 231 883 219 892 q 253 863 242 875 q 278 835 265 850 q 301 806 290 819 l 422 806 l 422 717 l 314 717 q 288 685 294 717 q 282 608 282 654 l 282 90 q 273 26 282 56 q 250 -27 264 -4 q 217 -63 236 -50 q 181 -76 199 -76 q 153 -67 171 -76 q 119 -44 136 -57 q 90 -16 103 -31 q 78 10 78 -1 z "},"ि":{"ha":417,"x_min":6,"x_max":865,"o":"m 78 10 q 88 26 78 21 q 108 31 97 31 q 140 42 126 31 q 164 75 154 54 q 178 123 174 96 q 183 181 183 150 l 183 717 l 6 717 l 6 806 l 182 806 q 117 890 140 838 q 94 999 94 942 q 112 1094 94 1050 q 160 1172 129 1139 q 236 1223 192 1204 q 335 1242 281 1242 q 503 1213 415 1242 q 667 1138 592 1183 q 796 1038 742 1093 q 865 932 850 983 q 861 905 865 914 q 853 893 857 896 q 828 906 842 893 q 799 940 814 919 q 594 1083 707 1035 q 369 1132 481 1132 q 300 1124 332 1132 q 244 1099 268 1117 q 208 1051 221 1081 q 194 978 194 1021 q 201 928 194 956 q 219 874 207 900 q 247 829 231 849 q 283 806 264 810 l 438 806 l 438 717 l 332 717 q 297 685 313 717 q 282 608 282 654 l 282 90 q 273 26 282 56 q 250 -27 264 -4 q 217 -63 236 -50 q 181 -76 199 -76 q 153 -67 171 -76 q 119 -44 136 -57 q 90 -16 103 -31 q 78 10 78 -1 z "},"ी":{"ha":417,"x_min":-231,"x_max":435,"o":"m 78 10 q 88 26 78 21 q 108 31 99 31 q 140 42 126 31 q 164 75 154 54 q 178 123 174 96 q 183 181 183 150 l 183 717 l 0 717 l 0 806 l 210 806 q 165 947 193 885 q 104 1052 136 1010 q 40 1117 72 1094 q -18 1140 7 1140 q -61 1133 -42 1140 q -95 1105 -81 1125 q -118 1050 -110 1085 q -126 961 -126 1015 q -124 920 -126 942 q -115 878 -121 899 q -98 838 -108 857 q -72 806 -87 819 l -161 806 q -183 830 -171 811 q -206 876 -196 849 q -224 938 -217 904 q -231 1008 -231 972 q -212 1110 -231 1067 q -165 1183 -193 1154 q -101 1227 -136 1213 q -33 1242 -67 1242 q 63 1211 15 1242 q 149 1124 110 1181 q 219 986 189 1067 q 265 806 250 906 l 435 806 l 435 717 l 313 717 q 288 685 293 717 q 282 608 282 654 l 282 90 q 274 26 282 56 q 251 -27 265 -4 q 218 -63 236 -50 q 181 -76 200 -76 q 153 -67 171 -76 q 119 -44 136 -57 q 90 -16 103 -31 q 78 10 78 -1 z "},"ु":{"ha":0,"x_min":-719,"x_max":-26,"o":"m -257 -108 q -168 -126 -210 -108 q -95 -172 -126 -143 q -45 -242 -64 -201 q -26 -328 -26 -282 q -45 -412 -26 -374 q -96 -481 -64 -451 q -171 -526 -128 -510 q -262 -542 -214 -542 q -520 -493 -401 -542 q -719 -351 -639 -444 q -713 -333 -719 -347 q -700 -319 -707 -319 q -531 -410 -639 -378 q -278 -443 -422 -443 q -206 -432 -240 -443 q -144 -403 -171 -421 q -103 -361 -118 -385 q -87 -311 -87 -337 q -97 -273 -87 -292 q -122 -239 -106 -254 q -159 -215 -137 -224 q -204 -206 -181 -206 q -245 -213 -224 -206 q -285 -231 -267 -221 q -317 -248 -304 -240 q -335 -256 -331 -256 q -356 -245 -346 -256 q -376 -219 -365 -235 q -397 -184 -386 -203 q -421 -149 -408 -165 q -354 -119 -397 -129 q -257 -108 -311 -108 z "},"ू":{"ha":0,"x_min":-615,"x_max":56,"o":"m -211 -268 q -138 -349 -168 -317 q -86 -401 -108 -382 q -47 -428 -64 -421 q -15 -436 -31 -436 q -12 -435 -14 -435 q -6 -433 -8 -435 l 35 -419 l 56 -510 q -15 -535 7 -535 q -107 -485 -56 -531 q -235 -349 -158 -440 l -236 -349 q -258 -323 -251 -333 q -272 -308 -265 -312 l -275 -308 q -300 -378 -283 -346 q -340 -435 -317 -411 q -392 -472 -364 -458 q -451 -485 -421 -485 q -512 -469 -482 -485 q -565 -427 -542 -453 q -601 -368 -587 -401 q -615 -300 -615 -335 q -603 -236 -615 -267 q -568 -183 -590 -206 q -515 -146 -546 -160 q -446 -132 -483 -132 q -329 -167 -390 -132 q -211 -268 -268 -203 m -339 -283 q -362 -248 -339 -264 q -415 -232 -386 -232 q -455 -240 -435 -232 q -492 -263 -475 -249 q -519 -297 -508 -278 q -529 -335 -529 -315 q -505 -383 -529 -362 q -451 -404 -481 -404 q -415 -393 -435 -404 q -379 -365 -396 -382 q -351 -326 -362 -347 q -339 -283 -339 -304 z "},"ृ":{"ha":0,"x_min":-490,"x_max":-25,"o":"m -147 -76 q -122 -89 -136 -76 q -93 -119 -107 -101 q -70 -158 -79 -137 q -61 -194 -61 -178 q -74 -213 -61 -207 q -106 -219 -86 -219 q -139 -214 -117 -219 q -185 -202 -161 -208 q -230 -190 -208 -196 q -262 -185 -251 -185 q -372 -219 -333 -185 q -410 -328 -410 -254 q -364 -408 -410 -376 q -240 -439 -318 -439 q -208 -432 -228 -439 q -168 -417 -189 -425 q -128 -403 -147 -410 q -97 -396 -108 -396 q -77 -404 -89 -396 q -53 -424 -65 -412 q -33 -449 -42 -436 q -25 -471 -25 -462 q -193 -525 -25 -525 l -215 -525 q -321 -502 -271 -525 q -408 -440 -371 -479 q -468 -349 -446 -401 q -490 -237 -490 -297 q -470 -175 -490 -204 q -416 -124 -450 -146 q -337 -90 -382 -103 q -240 -76 -292 -76 l -147 -76 l -147 -76 z "},"ॄ":{"ha":0,"x_min":-415,"x_max":24,"o":"m -157 -76 q -114 -135 -114 -76 q -127 -158 -114 -147 q -157 -169 -140 -169 l -260 -169 q -311 -187 -292 -169 q -331 -228 -331 -204 q -309 -262 -331 -246 q -253 -279 -287 -279 q -224 -275 -243 -279 q -186 -266 -206 -271 q -149 -257 -167 -261 q -124 -253 -132 -253 q -106 -261 -117 -253 q -85 -282 -96 -269 q -68 -307 -75 -294 q -61 -328 -61 -319 q -72 -349 -61 -342 q -101 -356 -83 -356 l -201 -356 q -258 -367 -236 -356 q -279 -396 -279 -379 q -249 -465 -279 -437 q -186 -492 -219 -492 l -162 -492 q -111 -488 -131 -492 q -85 -479 -92 -485 l -49 -454 q -29 -446 -32 -446 q 7 -467 -10 -446 q 24 -525 24 -487 q 7 -547 24 -536 q -36 -565 -10 -557 q -96 -577 -62 -572 q -164 -582 -129 -582 q -241 -567 -206 -582 q -302 -525 -276 -551 q -342 -463 -328 -499 q -357 -389 -357 -428 q -349 -353 -357 -372 q -326 -319 -342 -333 q -390 -262 -364 -303 q -415 -176 -415 -221 q -403 -136 -415 -154 q -373 -105 -392 -118 q -329 -84 -354 -92 q -276 -76 -304 -76 l -157 -76 l -157 -76 z "},"ॅ":{"ha":0,"x_min":-526,"x_max":-108,"o":"m -314 935 q -394 951 -356 935 q -462 995 -432 968 q -509 1058 -492 1022 q -526 1129 -526 1093 q -522 1144 -526 1135 q -512 1161 -518 1153 q -500 1175 -507 1169 q -489 1181 -493 1181 q -487 1178 -486 1181 q -486 1168 -487 1175 q -431 1073 -469 1110 q -314 1036 -393 1036 q -225 1059 -265 1036 q -175 1118 -185 1082 l -168 1179 q -158 1194 -161 1194 q -142 1183 -150 1194 q -126 1156 -133 1172 q -113 1124 -118 1140 q -108 1096 -108 1107 q -124 1033 -108 1063 q -167 981 -140 1003 q -233 947 -194 960 q -314 935 -271 935 z "},"ॆ":{"ha":0,"x_min":-960,"x_max":-276,"o":"m -351 804 q -369 869 -351 838 q -417 925 -387 900 q -484 965 -446 950 q -561 981 -522 981 q -717 999 -644 981 q -843 1051 -789 1018 q -928 1126 -897 1083 q -960 1217 -960 1168 q -951 1226 -960 1221 q -933 1238 -943 1232 q -911 1247 -922 1243 q -893 1251 -900 1251 q -885 1243 -889 1251 q -879 1224 -882 1235 q -849 1161 -874 1190 q -786 1110 -825 1132 q -695 1074 -747 1088 q -581 1061 -643 1061 q -462 1040 -518 1061 q -366 984 -407 1019 q -301 902 -325 949 q -276 804 -276 856 l -351 804 z "},"े":{"ha":0,"x_min":-760,"x_max":-279,"o":"m -336 792 q -390 928 -358 864 q -458 1042 -421 993 q -535 1119 -494 1090 q -618 1149 -576 1149 q -635 1142 -625 1149 q -657 1126 -646 1135 q -678 1111 -668 1118 q -693 1104 -687 1104 q -732 1138 -712 1104 q -758 1221 -751 1172 l -760 1221 q -720 1235 -747 1229 q -653 1240 -693 1240 q -544 1205 -599 1240 q -441 1108 -490 1169 q -350 966 -392 1047 q -279 792 -308 885 l -336 792 z "},"ै":{"ha":0,"x_min":-862,"x_max":-203,"o":"m -287 803 q -274 826 -279 811 q -265 859 -268 842 q -259 894 -261 876 q -257 926 -257 913 q -265 996 -257 963 q -285 1055 -272 1029 q -314 1097 -297 1081 q -350 1113 -331 1113 q -369 1107 -357 1110 q -390 1104 -382 1104 q -418 1113 -404 1104 q -444 1135 -432 1122 q -462 1165 -456 1149 q -469 1194 -469 1181 q -467 1223 -469 1210 q -462 1249 -465 1236 q -364 1226 -411 1249 q -281 1166 -317 1204 q -224 1077 -244 1128 q -203 969 -203 1026 q -210 874 -203 922 q -231 803 -218 826 l -287 803 m -374 803 q -437 935 -404 874 q -506 1042 -471 996 q -575 1114 -540 1088 q -643 1140 -610 1140 q -683 1132 -664 1140 q -718 1113 -701 1124 q -749 1094 -735 1103 q -772 1086 -762 1086 q -794 1101 -781 1086 q -822 1140 -807 1115 l -862 1207 q -700 1249 -808 1249 q -597 1215 -649 1249 q -496 1120 -544 1181 q -406 978 -447 1060 q -332 803 -364 897 l -374 803 z "},"ॉ":{"ha":417,"x_min":-12,"x_max":422,"o":"m 78 10 q 88 26 78 21 q 108 31 97 31 q 140 42 126 31 q 164 75 154 54 q 178 123 174 96 q 183 181 183 150 l 183 717 l -11 717 l -11 806 l 175 806 l 175 838 q 183 878 175 864 q 211 892 190 892 q 231 883 219 892 q 253 863 242 875 q 278 835 265 850 q 301 806 290 819 l 422 806 l 422 717 l 314 717 q 288 685 294 717 q 282 608 282 654 l 282 90 q 273 26 282 56 q 250 -27 264 -4 q 217 -63 236 -50 q 181 -76 199 -76 q 153 -67 171 -76 q 119 -44 136 -57 q 90 -16 103 -31 q 78 10 78 -1 m 200 1000 q 120 1017 158 1000 q 52 1060 82 1033 q 5 1123 22 1088 q -12 1194 -12 1158 q -8 1209 -12 1200 q 1 1226 -4 1218 q 14 1240 7 1235 q 25 1246 21 1246 q 27 1243 28 1246 q 28 1233 26 1240 q 83 1138 44 1175 q 200 1101 121 1101 q 289 1124 249 1101 q 339 1183 329 1147 l 346 1244 q 356 1260 353 1260 q 372 1249 364 1260 q 388 1222 381 1238 q 401 1189 396 1206 q 406 1161 406 1172 q 390 1098 406 1128 q 347 1047 374 1068 q 281 1013 319 1025 q 200 1000 243 1000 z "},"ॊ":{"ha":417,"x_min":-374,"x_max":432,"o":"m 78 10 q 88 26 78 21 q 108 31 97 31 q 140 42 126 31 q 164 75 154 54 q 178 123 174 96 q 183 181 183 150 l 183 717 l 1 717 l 1 806 l 167 806 l 167 838 q 174 868 167 851 q 94 938 147 910 q -31 965 40 965 q -158 985 -96 965 q -267 1038 -219 1004 q -344 1114 -315 1071 q -374 1204 -374 1157 q -368 1214 -374 1208 q -354 1225 -362 1219 q -337 1235 -346 1231 q -321 1239 -328 1239 q -311 1231 -315 1239 q -304 1211 -307 1222 q -274 1146 -299 1175 q -212 1096 -250 1117 q -123 1064 -174 1075 q -14 1053 -72 1053 q 163 1001 88 1053 q 267 867 239 950 l 268 867 q 297 841 281 857 q 336 806 314 825 l 432 806 l 432 717 l 332 717 q 297 685 313 717 q 282 608 282 654 l 282 90 q 273 26 282 56 q 250 -27 264 -4 q 217 -63 236 -50 q 181 -76 199 -76 q 153 -67 171 -76 q 119 -44 136 -57 q 90 -16 103 -31 q 78 10 78 -1 z "},"ो":{"ha":417,"x_min":-194,"x_max":435,"o":"m 78 10 q 88 26 78 21 q 108 31 97 31 q 140 42 126 31 q 164 75 154 54 q 178 123 174 96 q 183 181 183 150 l 183 717 l 1 717 l 1 806 l 175 806 l 175 838 q 182 878 175 865 q 128 979 157 933 q 68 1058 100 1025 q 3 1110 36 1092 q -62 1129 -29 1129 q -79 1122 -69 1129 q -99 1108 -89 1115 q -119 1093 -110 1100 q -135 1086 -129 1086 q -171 1119 -157 1086 q -194 1200 -185 1153 q -158 1214 -182 1208 q -100 1219 -135 1219 q -7 1194 -54 1219 q 83 1123 40 1168 q 164 1017 126 1078 q 228 885 201 956 q 264 850 244 874 q 301 806 283 826 l 435 806 l 435 717 l 314 717 q 288 685 294 717 q 282 608 282 654 l 282 90 q 273 26 282 56 q 250 -27 264 -4 q 217 -63 236 -50 q 181 -76 199 -76 q 153 -67 171 -76 q 119 -44 136 -57 q 90 -16 103 -31 q 78 10 78 -1 z "},"ौ":{"ha":417,"x_min":-300,"x_max":435,"o":"m 78 10 q 88 26 78 21 q 108 31 97 31 q 140 42 126 31 q 164 75 154 54 q 178 123 174 96 q 183 181 183 150 l 183 717 l 1 717 l 1 806 l 169 806 q 110 931 142 874 q 44 1031 78 989 q -25 1097 10 1074 q -92 1121 -60 1121 q -126 1113 -110 1121 q -158 1094 -143 1104 q -187 1076 -174 1085 q -211 1068 -200 1068 q -231 1083 -218 1068 q -261 1121 -244 1097 l -300 1186 q -143 1228 -247 1228 q -56 1202 -100 1228 q 31 1129 -11 1176 q 112 1017 74 1082 q 181 872 150 951 q 211 892 189 892 q 234 881 218 892 q 265 850 250 869 q 272 881 268 863 q 276 911 276 899 q 269 979 276 946 q 249 1038 261 1013 q 219 1078 236 1063 q 185 1094 203 1094 q 179 1093 186 1094 q 168 1090 172 1092 l 167 1090 q 153 1086 154 1086 q 126 1094 140 1086 q 101 1116 113 1103 q 83 1144 90 1129 q 76 1174 76 1160 q 78 1202 76 1189 q 85 1228 79 1215 q 177 1206 133 1228 q 254 1147 221 1185 q 308 1060 288 1110 q 328 954 328 1010 q 325 913 328 935 q 318 870 322 890 q 310 833 314 850 q 301 806 306 815 l 435 806 l 435 717 l 314 717 q 288 685 294 717 q 282 608 282 654 l 282 90 q 273 26 282 56 q 250 -27 264 -4 q 217 -63 236 -50 q 181 -76 199 -76 q 153 -67 171 -76 q 119 -44 136 -57 q 90 -16 103 -31 q 78 10 78 -1 z "},"्":{"ha":0,"x_min":-443,"x_max":110,"o":"m 65 -426 q 99 -466 89 -454 q 110 -487 108 -478 q 105 -499 110 -493 q 93 -511 100 -506 q 79 -521 86 -517 q 68 -525 72 -525 q 56 -517 64 -525 q 29 -487 49 -510 l 31 -487 l 22 -475 q -72 -362 -33 -407 q -138 -290 -110 -317 q -187 -251 -167 -262 q -226 -239 -207 -239 q -249 -248 -236 -239 q -276 -269 -262 -257 q -303 -291 -290 -281 q -326 -303 -317 -301 q -346 -296 -333 -303 q -367 -282 -358 -289 l -414 -237 q -434 -215 -425 -226 q -443 -193 -443 -204 q -428 -176 -443 -185 q -389 -160 -412 -168 q -339 -148 -365 -153 q -289 -143 -312 -143 q -215 -155 -249 -143 q -146 -196 -181 -167 l 65 -426 z "},"ॐ":{"ha":1460,"x_min":50,"x_max":1367,"o":"m 874 769 q 779 807 829 769 q 686 899 729 844 q 615 1014 643 953 q 586 1121 586 1075 q 590 1142 588 1133 q 597 1150 592 1150 q 624 1133 608 1150 q 651 1086 640 1117 q 732 950 679 999 q 839 901 785 901 q 897 915 869 901 q 944 950 924 928 q 975 1003 964 972 q 986 1068 986 1033 q 979 1106 986 1086 q 964 1142 972 1125 q 949 1174 956 1160 q 942 1199 942 1189 q 945 1223 942 1218 q 951 1228 949 1228 q 982 1206 964 1228 q 1015 1150 1000 1183 q 1042 1078 1031 1117 q 1053 1007 1053 1039 q 1039 915 1053 958 q 1001 839 1025 871 q 945 788 978 807 q 874 769 913 769 m 810 1033 q 789 1044 803 1033 q 760 1069 775 1054 q 735 1100 746 1083 q 725 1129 725 1117 q 732 1150 726 1140 q 753 1174 738 1160 l 782 1199 q 810 1219 801 1217 q 859 1179 835 1203 q 883 1125 883 1156 q 874 1096 883 1111 q 853 1068 864 1081 q 820 1038 829 1043 q 810 1033 811 1033 m 146 349 q 166 224 146 282 q 224 124 186 167 q 317 56 263 81 q 442 31 372 31 q 518 47 482 31 q 581 91 554 63 q 624 157 608 119 q 639 239 639 194 q 613 326 639 285 q 557 385 588 368 q 499 353 525 365 q 454 342 472 342 q 392 369 414 342 q 371 443 371 396 q 394 474 371 458 q 451 489 417 489 l 483 489 q 540 528 514 506 q 584 574 565 550 q 614 622 603 597 q 625 665 625 646 q 597 728 625 699 q 529 757 569 757 q 452 728 482 757 q 399 665 422 700 q 356 602 376 631 q 308 574 336 574 q 289 584 300 574 q 269 609 278 594 q 253 640 260 624 q 247 671 247 657 q 269 724 247 694 q 324 778 292 753 q 390 820 356 803 q 447 838 424 838 q 540 819 496 838 q 619 770 585 801 q 674 699 654 739 q 694 614 694 658 q 667 510 694 563 q 588 419 639 458 q 656 356 619 383 q 722 329 692 329 q 763 347 740 329 q 810 394 785 364 q 860 463 835 424 q 910 549 886 503 q 967 653 936 606 q 1030 734 997 700 q 1094 787 1063 768 q 1151 806 1125 806 q 1229 780 1190 806 q 1299 714 1268 754 q 1348 623 1329 674 q 1367 522 1367 572 q 1342 388 1367 463 q 1278 247 1317 313 q 1196 135 1240 181 q 1113 90 1151 90 q 1057 101 1083 90 q 1010 132 1031 113 q 978 179 990 151 q 967 239 967 207 q 969 252 967 246 q 976 258 971 258 q 992 251 982 258 q 1014 237 1003 244 q 1036 222 1025 229 q 1056 215 1047 215 q 1099 235 1075 215 q 1148 287 1124 254 q 1195 361 1172 319 q 1235 447 1218 403 q 1263 535 1253 492 q 1274 614 1274 578 q 1256 683 1274 654 q 1211 713 1239 713 q 1161 692 1189 713 q 1103 638 1133 672 q 1042 555 1074 603 q 982 453 1011 507 q 937 371 961 408 q 888 306 913 333 q 840 263 864 279 q 794 247 815 247 q 733 249 749 247 q 708 258 718 251 q 722 202 717 231 q 728 142 728 174 q 708 56 728 96 q 653 -13 688 17 q 575 -60 619 -43 q 482 -76 531 -76 q 315 -33 393 -76 q 177 85 236 11 q 84 258 118 160 q 50 467 50 357 q 55 494 50 483 q 75 504 60 504 q 127 484 108 504 q 146 432 146 464 l 146 349 z "},"॑":{"ha":0,"x_min":-15,"x_max":56,"o":"m -15 1181 l 56 1181 l 56 788 l -15 788 l -15 1181 z "},"॒":{"ha":0,"x_min":-376,"x_max":322,"o":"m 246 -101 q 269 -111 256 -101 q 294 -134 282 -121 q 314 -162 306 -147 q 322 -185 322 -176 q 294 -219 322 -219 l -289 -219 q -292 -220 -290 -219 q -299 -221 -294 -221 q -325 -214 -311 -221 q -351 -196 -339 -207 q -369 -171 -362 -185 q -376 -143 -376 -157 q -358 -112 -376 -124 q -321 -101 -340 -101 l 246 -101 l 246 -101 z "},"॓":{"ha":0,"x_min":-356,"x_max":-150,"o":"m -189 797 l -356 1151 l -222 1151 l -150 797 l -189 797 z "},"॔":{"ha":0,"x_min":-175,"x_max":31,"o":"m -175 792 l -106 1161 l 31 1161 l -139 792 l -175 792 z "},"क़":{"ha":1174,"x_min":-11,"x_max":1175,"o":"m 85 397 q 106 474 85 439 q 167 533 128 508 q 260 572 206 558 q 382 585 315 585 q 533 553 463 585 q 640 467 603 522 l 640 717 l -11 717 l -11 806 l 632 806 l 632 839 q 644 882 632 872 q 668 892 657 892 q 701 869 683 892 q 751 806 719 846 l 1175 806 l 1175 717 l 764 717 q 739 690 747 717 q 732 619 731 663 l 733 496 q 786 510 751 506 q 857 514 821 514 q 933 485 893 514 q 1008 415 974 457 q 1064 323 1042 372 q 1086 232 1086 274 q 1071 160 1086 193 q 1029 101 1056 126 q 968 63 1003 76 q 894 49 933 49 l 851 94 q 841 110 844 101 q 838 125 838 118 q 847 142 838 136 q 868 149 857 149 q 926 163 899 149 q 972 200 953 176 q 1001 253 990 224 q 1013 317 1013 283 q 987 382 1013 357 q 929 407 961 407 q 823 396 876 407 q 732 363 769 385 l 732 90 q 726 35 732 64 q 708 -19 719 6 q 678 -60 696 -44 q 635 -76 660 -76 q 606 -67 624 -76 q 572 -44 589 -58 q 544 -16 556 -31 q 532 10 532 -1 q 539 24 532 17 q 563 31 546 31 q 598 44 583 31 q 622 81 613 58 q 636 129 632 103 q 640 179 640 156 l 640 232 q 521 171 582 193 q 393 149 460 149 q 290 174 344 149 q 190 236 236 199 q 115 317 144 274 q 85 397 85 360 m 151 349 q 166 311 151 329 q 204 279 181 293 q 260 256 228 265 q 328 247 292 247 q 423 261 369 247 q 525 295 476 275 q 607 338 574 315 q 640 381 640 361 q 615 410 640 394 q 555 438 590 425 q 481 458 519 450 q 414 467 442 467 q 322 456 368 467 q 238 429 275 446 q 176 392 200 413 q 151 349 151 371 m 147 -65 q 206 -85 183 -65 q 228 -132 228 -106 q 204 -175 228 -156 q 144 -194 181 -194 q 88 -176 108 -194 q 68 -132 68 -157 q 92 -83 68 -101 q 147 -65 115 -65 z "},"ख़":{"ha":1288,"x_min":-121,"x_max":1331,"o":"m 258 94 q 132 255 175 183 q 89 389 89 326 q 99 441 89 417 q 128 483 110 465 q 169 512 146 501 q 218 522 193 522 q 263 516 233 522 q 325 496 292 510 l 329 496 q 323 574 326 519 q 319 717 319 629 l -18 717 l -18 806 l 319 806 l 319 822 q 326 874 319 857 q 356 892 332 892 q 394 865 371 892 q 443 806 418 839 l 1049 806 l 1049 822 q 1055 874 1049 857 q 1085 892 1061 892 q 1124 865 1100 892 q 1175 806 1147 839 l 1331 806 l 1331 717 l 1183 717 q 1172 713 1178 717 q 1162 694 1167 710 q 1154 646 1157 678 q 1151 557 1151 614 q 1154 483 1151 533 q 1160 378 1157 433 q 1165 274 1163 324 q 1168 199 1168 224 q 1163 90 1168 142 q 1144 0 1157 39 q 1114 -61 1132 -39 q 1071 -83 1096 -83 q 1038 -74 1056 -83 q 1003 -52 1019 -65 q 975 -25 986 -39 q 964 -1 964 -11 q 981 31 964 31 q 1015 41 999 31 q 1045 68 1032 51 q 1066 108 1058 85 q 1074 156 1074 131 l 1074 190 q 776 -15 911 53 q 547 -83 640 -83 q 418 -40 492 -83 q 258 94 344 3 m 267 171 q 373 52 314 94 q 490 10 432 10 q 640 35 568 10 q 771 99 711 60 q 690 147 728 118 q 622 210 651 176 q 576 281 593 244 q 558 356 558 318 q 578 430 558 394 q 633 492 599 465 q 713 533 667 518 q 810 549 758 549 q 956 489 886 549 q 1074 329 1025 429 q 1071 388 1074 349 q 1065 469 1068 426 q 1060 551 1063 513 q 1057 608 1057 589 l 1057 717 l 436 717 q 422 665 425 697 q 419 585 419 633 q 420 549 419 572 q 422 501 421 526 q 424 453 424 476 q 425 417 425 429 q 390 238 425 304 q 296 171 356 171 l 267 171 m 633 303 q 669 232 633 258 q 754 206 706 206 q 913 229 842 206 q 1028 303 983 253 l 1029 303 q 977 403 1022 363 q 867 443 932 443 q 778 432 821 443 q 703 401 736 421 q 652 356 671 382 q 633 303 633 331 m 203 258 q 247 269 225 258 q 287 298 269 279 q 315 342 304 317 q 329 397 326 367 l 328 397 q 292 430 311 417 q 254 443 274 443 q 217 434 235 443 q 185 409 199 425 q 163 372 171 393 q 156 329 156 351 q 170 278 156 297 q 203 258 185 258 m -42 -65 q 17 -85 -6 -65 q 39 -132 39 -106 q 15 -175 39 -156 q -44 -194 -8 -194 q -101 -176 -81 -194 q -121 -132 -121 -157 q -97 -83 -121 -101 q -42 -65 -74 -65 z "},"ग़":{"ha":819,"x_min":-22,"x_max":828,"o":"m 279 201 q 206 219 242 201 q 144 267 171 238 q 101 333 117 296 q 85 407 85 369 q 108 482 85 450 q 168 514 132 514 q 229 496 215 514 l 233 496 l 233 717 l -18 717 l -18 806 l 233 806 q 244 870 233 849 q 281 892 254 892 q 315 865 300 892 q 356 806 329 839 l 579 806 q 590 870 579 849 q 626 892 600 892 q 660 865 646 892 q 699 806 674 839 l 828 806 l 828 717 l 696 717 q 691 713 693 717 q 688 699 689 710 q 685 666 686 688 q 685 608 685 644 l 685 90 q 676 26 685 56 q 652 -27 667 -4 q 618 -63 638 -50 q 578 -76 599 -76 q 545 -67 565 -76 q 507 -44 525 -57 q 476 -16 489 -31 q 463 10 463 -1 q 473 26 463 21 q 493 31 483 31 q 528 42 511 31 q 556 75 544 54 q 574 123 567 96 q 581 181 581 150 l 581 717 l 357 717 q 350 713 353 717 q 345 696 347 708 q 342 661 343 683 q 340 603 340 639 l 340 574 l 342 422 q 388 397 369 407 q 416 378 406 386 q 430 363 426 369 q 433 349 433 357 q 428 327 433 338 q 414 317 422 317 q 404 321 411 317 q 388 329 397 325 q 369 338 378 333 q 357 342 361 342 q 335 319 340 342 q 324 272 329 297 q 310 224 319 246 q 279 201 301 201 m 206 303 q 215 313 210 303 q 224 340 219 324 q 231 374 228 356 q 233 407 233 392 q 219 431 233 419 q 182 443 204 443 q 151 426 164 443 q 138 389 138 410 q 158 328 138 353 q 206 303 178 303 m 57 -24 q 115 -44 93 -24 q 138 -90 138 -64 q 114 -133 138 -114 q 54 -153 90 -153 q -2 -134 18 -153 q -22 -90 -22 -115 q 1 -42 -22 -60 q 57 -24 25 -24 z "},"ज़":{"ha":1111,"x_min":-40,"x_max":1136,"o":"m 407 142 q 478 156 444 142 q 537 192 511 169 q 578 246 563 215 q 593 311 593 276 q 566 373 593 349 q 504 397 539 397 q 490 393 497 397 q 474 385 482 389 q 460 376 467 381 q 450 372 453 372 q 422 388 436 372 q 398 426 408 404 q 381 469 388 447 q 375 504 375 492 q 384 522 375 515 q 400 529 393 529 q 410 528 401 529 q 431 525 419 526 l 458 522 l 785 522 q 803 525 792 522 q 821 535 814 528 q 847 504 832 528 q 883 432 861 481 l 883 717 l -40 717 l -40 806 l 883 806 l 883 822 q 890 874 883 857 q 919 892 896 892 q 957 865 935 892 q 1007 806 979 839 l 1136 806 l 1136 717 l 1001 717 q 988 713 993 717 q 980 697 983 710 q 976 657 976 683 q 975 585 975 631 q 977 508 975 560 q 981 399 979 456 q 985 290 983 342 q 988 215 988 239 q 981 106 988 158 q 961 13 975 53 q 927 -52 947 -28 q 881 -76 907 -76 q 847 -68 864 -76 q 816 -47 829 -60 q 794 -18 803 -35 q 786 15 786 -1 q 793 28 786 22 q 810 33 800 33 q 870 79 850 33 q 890 222 890 125 q 888 328 890 292 q 879 381 886 364 q 813 400 850 393 q 744 407 776 407 q 610 389 654 407 q 672 317 649 361 q 696 232 696 272 q 677 148 696 186 q 626 82 658 110 q 550 38 593 54 q 458 22 507 22 q 320 67 390 22 q 193 184 250 113 q 100 344 136 256 q 64 522 64 433 q 69 540 64 532 q 86 549 75 549 q 115 542 99 549 q 148 526 132 535 q 174 506 164 517 q 185 489 185 496 q 181 471 185 482 q 172 447 176 460 q 164 424 168 435 q 160 407 160 413 q 181 304 160 353 q 235 219 201 256 q 314 163 269 183 q 407 142 358 142 m 75 -33 q 133 -53 111 -33 q 156 -100 156 -74 q 132 -143 156 -124 q 72 -162 108 -162 q 16 -144 36 -162 q -4 -100 -4 -125 q 19 -51 -4 -69 q 75 -33 43 -33 z "},"ड़":{"ha":932,"x_min":-21,"x_max":939,"o":"m 171 239 q 215 158 186 194 q 283 94 244 121 q 369 54 322 68 q 465 40 415 40 q 573 54 519 40 q 669 92 626 68 q 738 144 711 115 q 764 206 764 174 q 748 248 764 229 q 703 267 732 267 q 652 260 686 267 q 582 244 618 253 q 513 229 546 236 q 465 222 481 222 q 380 248 424 222 q 300 314 336 274 q 241 402 264 354 q 218 496 218 450 q 236 544 218 521 q 285 584 254 567 q 353 612 315 601 q 433 622 392 622 q 577 617 531 622 q 635 608 624 611 l 635 717 l -21 717 l -21 806 l 629 806 l 629 822 q 635 874 629 857 q 665 892 642 892 q 703 865 681 892 q 753 806 725 839 l 939 806 l 939 717 l 746 717 q 726 683 726 717 q 727 677 726 681 q 728 671 728 674 q 731 640 729 661 q 733 597 732 619 q 736 553 735 574 q 738 522 738 532 q 708 496 738 496 q 667 499 696 496 q 606 505 639 501 q 544 511 574 508 q 497 514 514 514 q 358 479 410 514 q 307 389 307 444 q 333 347 307 364 q 390 329 358 329 q 444 334 407 329 q 522 345 481 339 q 598 357 563 351 q 649 363 633 363 q 719 341 683 363 q 785 285 756 319 q 833 210 814 251 q 851 132 851 169 q 826 52 851 90 q 758 -15 800 14 q 658 -60 715 -43 q 539 -76 601 -76 q 375 -45 457 -76 q 228 38 293 -14 q 122 155 163 89 q 82 289 82 221 q 90 331 82 313 q 118 349 99 349 q 137 339 128 349 q 153 313 146 329 q 165 278 160 297 q 171 239 169 258 m 358 -329 q 417 -349 394 -329 q 439 -396 439 -369 q 415 -439 439 -419 q 356 -458 392 -458 q 299 -440 319 -458 q 279 -396 279 -421 q 303 -347 279 -365 q 358 -329 326 -329 z "},"ढ़":{"ha":789,"x_min":-12,"x_max":800,"o":"m 143 199 q 163 133 143 163 q 214 82 182 104 q 287 48 246 60 q 372 36 328 36 q 517 61 458 36 q 479 108 496 79 q 463 165 463 138 q 485 242 463 211 q 549 274 508 274 q 593 260 569 274 q 636 226 617 247 q 668 177 656 204 q 681 124 681 150 q 674 79 681 103 q 656 38 667 56 q 659 27 657 33 q 664 14 661 21 q 669 -1 667 7 q 665 -22 669 -12 q 649 -33 660 -32 q 643 -31 649 -33 q 631 -25 638 -28 q 617 -19 624 -22 q 610 -15 611 -17 q 522 -64 565 -51 q 446 -76 478 -76 l 406 -76 q 283 -47 343 -76 q 174 31 222 -17 q 97 141 126 79 q 67 267 67 203 q 140 416 67 365 q 360 467 213 467 q 529 601 529 467 q 529 674 529 647 q 528 717 529 701 l -12 717 l -12 806 l 521 806 q 529 868 521 849 q 564 888 538 888 q 599 863 579 888 q 647 806 619 839 l 800 806 l 800 717 l 646 717 q 636 664 636 717 l 636 489 q 621 437 636 460 q 581 398 606 414 q 524 374 556 382 q 463 365 493 365 q 315 354 375 363 q 216 327 254 346 q 160 277 178 308 q 143 199 143 246 m 532 165 q 543 124 532 142 q 576 106 554 106 q 599 124 588 106 q 611 165 611 142 q 603 194 611 182 q 583 206 594 206 q 548 194 564 206 q 532 165 532 183 m 231 -331 q 289 -351 267 -331 q 311 -397 311 -371 q 288 -440 311 -421 q 228 -460 264 -460 q 172 -441 192 -460 q 151 -397 151 -422 q 175 -349 151 -367 q 231 -331 199 -331 z "},"फ़":{"ha":1053,"x_min":-25,"x_max":1056,"o":"m 356 142 q 263 168 310 142 q 177 236 215 194 q 115 329 139 278 q 90 432 90 381 q 115 576 90 503 q 188 717 139 650 l -18 717 l -18 806 l 514 806 l 514 822 q 520 874 514 857 q 550 892 526 892 q 589 865 565 892 q 640 806 613 839 l 1056 806 l 1056 717 l 629 717 q 611 644 618 685 q 604 549 604 603 q 604 480 604 510 q 606 422 604 450 q 664 445 631 438 q 721 453 697 453 q 816 424 769 453 q 899 347 863 394 q 959 239 936 299 q 982 117 982 179 q 969 46 982 81 q 937 -16 957 11 q 891 -60 917 -43 q 838 -76 865 -76 q 815 -67 828 -76 q 790 -42 801 -57 q 769 -10 778 -26 q 761 22 761 7 q 769 34 761 29 q 788 40 778 39 q 873 97 840 53 q 906 199 906 140 q 894 255 906 228 q 863 303 882 282 q 816 336 843 324 q 758 349 789 349 q 681 338 724 349 q 604 303 639 326 q 608 238 607 276 q 610 142 610 199 q 603 49 610 92 q 585 -26 597 6 q 554 -76 572 -58 q 511 -94 536 -94 q 483 -83 500 -94 q 451 -56 467 -72 q 425 -22 436 -40 q 414 10 414 -4 q 422 19 414 17 q 449 22 429 22 q 492 60 474 22 q 511 156 511 99 q 510 186 511 171 q 507 215 508 201 q 428 161 468 181 q 356 142 388 142 m 282 247 q 388 275 333 247 q 504 356 442 303 l 506 356 q 501 424 501 388 q 500 496 500 460 l 500 621 q 508 717 500 688 l 354 717 q 233 556 276 653 q 190 356 190 460 q 215 279 190 311 q 282 247 240 247 m 54 -75 q 113 -95 90 -75 q 135 -142 135 -115 q 111 -185 135 -165 q 51 -204 88 -204 q -5 -185 15 -204 q -25 -142 -25 -167 q -1 -93 -25 -111 q 54 -75 22 -75 z "},"य़":{"ha":885,"x_min":-18,"x_max":906,"o":"m 392 125 q 272 154 328 125 q 176 234 217 183 q 113 352 136 285 q 89 496 89 419 q 102 526 89 515 q 135 536 115 536 l 211 536 q 275 568 251 536 q 299 656 299 600 q 282 717 299 690 l -18 717 l -18 806 l 663 806 l 663 838 q 669 878 663 864 q 696 892 676 892 q 715 883 704 892 q 738 863 726 875 q 763 835 750 850 q 786 806 775 819 l 906 806 l 906 717 l 769 717 q 753 660 758 694 q 747 585 747 625 q 751 504 747 557 q 760 393 756 451 q 768 283 764 335 q 772 206 772 231 q 765 92 772 146 q 744 -4 757 38 q 713 -70 731 -46 q 675 -94 696 -94 q 639 -87 658 -94 q 603 -67 619 -79 q 575 -41 586 -56 q 564 -11 564 -26 q 576 12 564 4 q 608 19 589 19 q 636 38 622 19 q 660 85 650 56 q 677 152 671 114 q 683 231 683 190 q 683 252 683 240 q 678 275 682 264 l 674 275 q 528 165 599 206 q 392 125 458 125 m 332 222 q 444 254 385 222 q 492 287 464 264 q 545 332 519 310 q 590 372 571 354 q 611 389 610 389 q 628 375 613 389 q 658 349 644 361 l 663 349 q 660 394 663 363 q 653 460 657 425 q 647 526 650 494 q 644 574 644 557 l 644 599 q 647 676 644 647 q 653 717 650 706 l 324 717 q 358 647 346 682 q 369 574 369 611 q 336 460 369 504 q 236 417 303 417 l 188 417 q 166 405 176 417 q 156 381 156 393 q 170 323 156 351 q 208 272 185 294 q 264 236 232 250 q 332 222 296 222 m 125 40 q 149 82 125 65 q 207 99 174 99 q 257 81 235 99 q 279 40 279 63 q 256 -6 279 13 q 203 -25 232 -25 q 147 -8 169 -25 q 125 40 125 8 z "},"ॠ":{"ha":1379,"x_min":-24,"x_max":1390,"o":"m 165 239 q 133 251 151 239 q 99 281 115 264 q 71 319 82 299 q 60 356 60 339 q 82 431 60 394 q 141 496 104 468 q 226 540 178 524 q 328 557 275 557 q 406 540 369 557 q 473 494 443 524 q 524 425 503 465 q 551 339 544 385 l 556 339 q 600 352 579 349 q 644 356 621 356 q 702 347 676 356 q 747 317 728 338 l 750 317 q 738 594 738 421 l 738 717 l -24 717 l -24 806 l 736 806 l 736 838 q 744 878 736 864 q 772 892 751 892 q 792 883 781 892 q 815 863 803 875 q 839 835 826 850 q 863 806 851 819 l 1390 806 l 1390 717 l 847 717 q 842 703 844 717 q 840 671 840 690 q 839 628 839 651 q 839 585 839 606 q 840 535 839 574 q 842 455 840 497 q 844 376 843 413 q 847 333 846 340 q 873 336 856 333 q 911 342 890 339 q 952 351 932 346 q 985 360 972 356 l 986 360 q 974 439 974 407 q 994 519 974 488 q 1051 551 1015 551 q 1113 523 1088 551 q 1138 450 1138 494 q 1119 368 1138 401 q 1071 311 1100 335 l 1069 311 q 1085 281 1071 296 q 1115 248 1099 265 q 1143 212 1131 231 q 1156 172 1156 193 q 1149 146 1156 164 q 1132 125 1143 128 l 1131 125 q 1080 100 1104 117 q 1038 61 1056 83 q 1009 12 1019 39 q 999 -43 999 -15 q 1026 -117 999 -85 q 1094 -149 1054 -149 q 1198 -115 1147 -149 q 1285 -26 1249 -81 q 1319 -57 1306 -39 q 1333 -94 1333 -75 q 1317 -142 1333 -119 q 1273 -181 1300 -164 q 1212 -208 1246 -197 q 1144 -218 1178 -218 q 1070 -194 1108 -218 q 1000 -135 1032 -171 q 947 -54 968 -99 q 926 31 926 -10 q 966 126 926 79 q 1064 206 1006 174 l 1065 206 q 1033 242 1050 225 q 1010 275 1017 260 l 1006 275 q 927 242 969 251 q 853 232 885 232 l 853 142 q 847 58 853 97 q 828 -11 840 19 q 800 -59 817 -42 q 761 -76 783 -76 q 730 -69 747 -76 q 697 -51 713 -62 q 670 -24 681 -40 q 660 8 660 -8 q 682 33 660 33 q 694 30 683 33 q 708 26 706 26 q 742 71 735 26 q 750 222 750 115 q 708 235 731 232 q 664 239 686 239 q 608 235 628 239 q 572 222 588 232 q 542 114 561 164 q 500 27 524 64 q 449 -31 476 -10 q 393 -51 421 -51 q 356 -36 375 -51 q 320 1 336 -21 q 294 48 304 24 q 283 90 283 72 q 297 140 283 113 q 335 197 310 168 q 396 256 360 226 q 478 311 432 286 l 479 311 q 471 367 479 340 q 448 415 463 394 q 413 449 433 436 q 369 461 393 461 q 299 447 336 461 q 229 411 261 433 q 176 363 197 389 q 156 311 156 336 q 160 298 156 304 q 172 286 165 292 q 183 276 178 281 q 188 267 188 271 q 165 239 188 239 m 347 74 q 366 42 347 54 q 408 31 385 31 q 435 46 421 31 q 460 84 449 61 q 480 135 472 107 q 488 190 488 164 q 439 168 464 182 q 394 138 414 154 q 360 104 374 121 q 347 74 347 88 z "},"ॡ":{"ha":947,"x_min":-10,"x_max":1040,"o":"m 186 275 q 199 161 186 215 q 236 65 213 107 q 292 -1 260 24 q 361 -25 324 -25 q 401 -40 383 -25 q 418 -76 418 -56 q 414 -100 418 -90 q 399 -110 410 -110 q 283 -72 338 -110 q 185 28 228 -35 q 118 175 143 92 q 93 349 93 258 q 109 446 93 400 q 153 526 125 492 q 221 581 182 561 q 304 601 260 601 q 394 561 353 601 q 450 461 435 521 l 454 461 q 518 535 492 493 q 544 621 544 576 q 542 678 544 656 q 538 717 540 701 l -10 717 l -10 806 l 538 806 l 538 838 q 545 878 538 864 q 574 892 553 892 q 593 883 582 892 q 616 863 604 875 q 640 835 628 850 q 664 806 653 819 l 958 806 l 958 717 l 663 717 q 648 703 653 717 q 643 671 643 690 q 637 595 643 631 q 621 536 631 560 l 624 536 q 717 501 672 528 q 795 435 761 474 q 849 350 829 397 q 869 254 869 303 q 808 91 869 151 q 629 31 747 31 q 578 10 590 31 q 565 -33 565 -11 q 588 -64 565 -51 q 639 -76 610 -76 q 665 -74 647 -76 q 701 -69 682 -72 q 735 -63 719 -65 q 758 -61 751 -61 q 774 -68 764 -61 q 795 -86 785 -75 q 813 -110 806 -97 q 819 -133 819 -122 q 781 -156 819 -156 l 689 -156 q 638 -169 657 -156 q 619 -204 619 -183 q 644 -237 619 -224 q 700 -250 668 -250 q 944 -175 844 -250 l 975 -149 q 992 -142 986 -142 q 1026 -163 1011 -142 q 1040 -218 1040 -185 q 1016 -263 1040 -242 q 950 -302 992 -285 q 854 -330 908 -319 q 740 -340 800 -340 q 668 -327 704 -340 q 603 -293 632 -314 q 558 -246 575 -272 q 540 -193 540 -219 q 547 -154 540 -174 q 569 -119 554 -135 q 507 -65 529 -103 q 485 22 485 -26 q 495 61 485 42 q 524 97 506 81 q 565 122 542 113 q 617 132 589 132 q 669 146 644 132 q 714 184 694 160 q 745 242 733 208 q 757 317 757 276 q 749 366 757 343 q 726 406 740 389 q 693 433 713 424 q 651 443 674 443 q 553 400 599 443 q 490 289 508 357 q 476 267 486 267 q 451 276 465 267 q 425 300 438 286 q 404 329 413 314 q 396 356 396 344 q 402 385 396 368 q 422 422 408 403 q 377 465 403 449 q 333 481 351 481 q 276 465 303 481 q 230 420 250 449 q 198 354 210 392 q 186 275 186 317 z "},"ॢ":{"ha":0,"x_min":-346,"x_max":224,"o":"m 1 -46 q 60 -62 29 -46 q 117 -103 92 -78 q 160 -157 143 -128 q 178 -212 178 -186 q 147 -316 178 -275 q 67 -357 115 -357 q -31 -442 -31 -357 q 0 -484 -31 -467 q 78 -501 31 -501 q 100 -497 86 -501 q 127 -488 114 -493 q 153 -479 140 -483 q 172 -475 165 -475 q 186 -481 178 -475 q 203 -494 194 -486 q 217 -511 211 -503 q 224 -525 224 -519 q 111 -547 224 -547 l 92 -547 q 26 -535 58 -547 q -31 -499 -6 -522 q -71 -445 -56 -476 q -86 -378 -86 -414 q -71 -328 -86 -344 q -33 -303 -56 -311 q 15 -290 -11 -294 q 64 -274 42 -285 q 101 -243 86 -264 q 117 -183 117 -222 q 94 -131 117 -156 q 40 -106 71 -106 q -28 -133 6 -106 q -74 -200 -61 -161 l -79 -212 l -83 -212 q -101 -207 -92 -212 q -118 -193 -110 -201 q -132 -176 -126 -185 q -137 -161 -137 -168 q -134 -142 -137 -153 q -119 -117 -131 -132 l -121 -117 q -152 -94 -136 -103 q -183 -85 -168 -85 q -224 -95 -206 -85 q -255 -123 -242 -106 q -276 -162 -268 -140 q -283 -210 -283 -185 q -260 -312 -283 -279 q -208 -360 -237 -344 q -154 -387 -179 -376 q -125 -422 -129 -397 q -129 -435 -125 -429 q -137 -442 -133 -442 q -217 -418 -179 -442 q -284 -356 -256 -394 q -329 -267 -312 -317 q -346 -165 -346 -218 q -335 -106 -346 -133 q -304 -58 -324 -78 q -260 -26 -285 -37 q -208 -14 -236 -14 q -142 -37 -168 -14 q -106 -97 -115 -60 l -101 -97 q -50 -60 -78 -74 q 1 -46 -22 -46 z "},"ॣ":{"ha":0,"x_min":-346,"x_max":314,"o":"m 1 -46 q 60 -62 29 -46 q 117 -103 92 -78 q 160 -157 143 -128 q 178 -212 178 -186 q 147 -297 178 -268 q 80 -340 117 -325 q 13 -362 43 -354 q -18 -386 -18 -369 q -3 -410 -18 -399 q 32 -422 13 -422 q 48 -419 36 -422 q 73 -410 60 -415 q 98 -402 86 -406 q 114 -399 110 -399 q 130 -406 122 -399 q 144 -422 138 -412 q 154 -441 150 -432 q 158 -456 158 -450 q 151 -461 158 -458 l 64 -461 q 29 -469 44 -461 q 14 -492 14 -476 q 31 -515 14 -506 q 72 -525 49 -525 q 161 -512 121 -525 q 240 -472 201 -499 q 261 -463 251 -465 q 278 -461 271 -461 q 303 -472 293 -461 q 314 -501 314 -482 q 294 -525 314 -514 q 244 -545 275 -536 q 172 -560 213 -554 q 89 -565 131 -565 q 41 -559 64 -565 q 0 -542 18 -553 q -28 -516 -18 -531 q -39 -485 -39 -501 q -36 -474 -39 -478 q -33 -462 -33 -469 l -14 -449 q -57 -411 -37 -436 q -76 -361 -76 -386 q -62 -323 -76 -335 q -26 -305 -47 -311 q 20 -294 -6 -299 q 67 -278 46 -289 q 102 -245 88 -267 q 117 -183 117 -224 q 94 -131 117 -156 q 40 -106 71 -106 q -28 -133 6 -106 q -74 -200 -61 -161 l -81 -214 q -82 -215 -81 -215 q -94 -210 -85 -215 q -112 -196 -103 -204 q -130 -178 -122 -187 q -137 -161 -137 -169 q -134 -142 -137 -153 q -119 -117 -131 -132 l -121 -117 q -152 -94 -136 -103 q -183 -85 -168 -85 q -224 -95 -206 -85 q -255 -123 -242 -106 q -276 -162 -268 -140 q -283 -210 -283 -185 q -260 -312 -283 -279 q -208 -360 -237 -344 q -154 -387 -179 -376 q -125 -422 -129 -397 q -129 -435 -125 -429 q -137 -442 -133 -442 q -217 -418 -179 -442 q -284 -356 -256 -394 q -329 -267 -312 -317 q -346 -165 -346 -218 q -335 -106 -346 -133 q -304 -58 -324 -78 q -260 -26 -285 -37 q -208 -14 -236 -14 q -142 -37 -168 -14 q -106 -97 -115 -60 l -101 -97 q 1 -46 -37 -46 z "},"।":{"ha":629,"x_min":168,"x_max":401,"o":"m 168 -186 q 178 -170 168 -175 q 199 -165 188 -165 q 231 -153 217 -165 q 256 -121 246 -142 q 271 -72 265 -100 q 276 -14 276 -44 l 275 838 q 283 878 275 864 q 311 892 290 892 q 335 883 319 892 q 365 863 350 875 q 390 835 379 850 q 401 806 401 819 q 400 778 401 786 q 396 767 399 771 q 390 757 393 763 q 385 737 388 751 q 381 695 382 722 q 379 621 379 668 q 379 538 379 594 q 378 408 379 481 q 377 256 378 336 q 376 104 376 176 q 375 -24 375 32 q 375 -106 375 -81 q 366 -170 375 -140 q 343 -222 357 -200 q 310 -258 329 -244 q 274 -271 292 -271 q 245 -262 263 -271 q 210 -239 228 -253 q 181 -211 193 -225 q 168 -186 168 -197 z "},"॥":{"ha":1078,"x_min":168,"x_max":785,"o":"m 168 -242 q 178 -226 168 -231 q 199 -221 188 -221 q 231 -209 217 -221 q 256 -176 246 -197 q 271 -128 265 -156 q 276 -69 276 -100 l 275 782 q 283 822 275 808 q 311 836 290 836 q 335 828 319 836 q 365 807 350 819 q 390 779 379 794 q 401 750 401 764 q 400 723 401 731 q 396 711 399 715 q 390 701 393 707 q 385 681 388 696 q 381 640 382 667 q 379 565 379 613 q 379 482 379 539 q 378 353 379 425 q 377 201 378 281 q 376 49 376 121 q 375 -80 375 -24 q 375 -161 375 -136 q 366 -226 375 -196 q 343 -278 357 -256 q 310 -313 329 -300 q 274 -326 292 -326 q 245 -317 263 -326 q 210 -294 228 -308 q 181 -267 193 -281 q 168 -242 168 -253 m 551 -242 q 561 -226 551 -231 q 582 -221 571 -221 q 615 -209 600 -221 q 639 -176 629 -197 q 654 -128 649 -156 q 660 -69 660 -100 l 658 782 q 666 822 658 808 q 694 836 674 836 q 718 828 703 836 q 748 807 733 819 q 774 779 763 794 q 785 750 785 764 q 783 723 785 731 q 779 711 782 715 q 774 701 776 707 q 768 681 771 696 q 764 640 765 667 q 763 565 763 613 q 763 482 763 539 q 762 353 763 425 q 760 201 761 281 q 759 49 760 121 q 758 -80 758 -24 q 758 -161 758 -136 q 749 -226 758 -196 q 726 -278 740 -256 q 694 -313 713 -300 q 657 -326 675 -326 q 628 -317 646 -326 q 594 -294 611 -308 q 564 -267 576 -281 q 551 -242 551 -253 z "},"०":{"ha":871,"x_min":171,"x_max":683,"o":"m 171 311 q 192 510 171 415 q 249 675 213 604 q 335 788 286 746 q 439 831 383 831 q 532 801 488 831 q 610 722 576 772 q 663 605 643 672 q 683 461 683 538 q 663 253 683 351 q 609 79 643 154 q 528 -40 575 4 q 429 -83 482 -83 q 330 -53 376 -83 q 248 31 283 -22 q 192 157 213 85 q 171 311 171 229 m 238 239 q 248 150 238 192 q 276 77 258 108 q 315 28 293 46 q 360 10 336 10 q 458 50 411 10 q 540 159 506 90 q 596 319 575 228 q 617 514 617 411 q 606 600 617 560 q 576 670 594 640 q 533 718 557 700 q 482 736 508 736 q 425 713 454 736 q 369 652 396 690 q 318 564 342 614 q 276 458 294 514 q 248 347 258 403 q 238 239 238 290 z "},"१":{"ha":871,"x_min":192,"x_max":675,"o":"m 306 -4 q 313 1 306 -1 q 340 4 321 4 l 350 4 q 399 26 372 4 q 452 86 425 49 q 503 171 479 124 q 547 269 528 218 q 578 371 567 321 q 589 463 589 421 l 583 463 q 513 408 553 428 q 435 389 474 389 q 344 407 388 389 q 266 457 300 425 q 212 532 232 489 q 192 625 192 575 q 210 706 192 668 q 258 771 228 743 q 329 815 289 799 q 414 831 369 831 q 514 803 467 831 q 597 730 561 776 q 654 621 633 683 q 675 489 675 558 q 663 354 675 424 q 631 219 651 285 q 582 97 610 154 q 523 -5 554 39 q 458 -74 492 -49 q 390 -99 424 -99 q 374 -94 383 -99 q 356 -82 364 -89 l 326 -43 q 306 -4 306 -29 m 374 482 q 440 496 406 482 q 504 532 475 510 q 552 583 533 554 q 571 639 571 611 q 562 678 571 660 q 538 709 553 696 q 506 731 524 722 q 468 739 488 739 q 395 723 432 739 q 328 681 358 707 q 278 624 297 656 q 258 564 258 593 q 269 531 258 546 q 296 506 279 517 q 333 488 313 494 q 374 482 353 482 z "},"२":{"ha":872,"x_min":171,"x_max":675,"o":"m 174 419 q 171 440 171 425 l 176 464 q 197 494 182 485 q 235 504 213 504 q 314 478 274 504 q 382 396 354 453 l 385 396 q 461 422 422 404 q 532 464 500 439 q 584 519 564 489 q 604 582 604 550 q 589 625 604 604 q 548 662 574 646 q 489 688 522 678 q 419 697 456 697 q 340 690 378 697 q 258 667 303 683 l 225 810 q 361 831 293 831 q 431 823 394 831 q 497 800 468 815 q 551 758 524 788 q 599 689 578 728 q 635 607 621 650 q 649 525 649 564 q 628 432 649 475 q 576 354 608 389 q 501 297 543 319 q 414 265 458 274 l 413 265 q 426 172 414 218 q 459 90 439 126 q 506 31 479 53 q 563 8 533 8 q 603 26 586 8 q 625 65 619 43 l 658 58 l 674 -4 q 674 -8 674 -7 q 675 -12 675 -10 l 675 -19 q 665 -58 675 -40 q 640 -86 656 -75 q 606 -103 625 -97 q 569 -110 588 -110 q 494 -80 529 -110 q 431 1 458 -50 q 384 120 403 51 q 358 267 365 189 l 357 267 q 330 263 346 264 q 300 261 314 261 q 231 276 257 261 q 190 339 204 290 l 174 419 z "},"३":{"ha":872,"x_min":179,"x_max":686,"o":"m 179 124 q 194 151 179 140 q 224 163 208 163 q 320 147 275 163 q 410 103 365 131 q 464 134 439 115 q 507 177 489 153 q 535 228 525 201 q 546 283 546 256 q 528 355 546 324 q 489 404 511 386 q 415 372 453 382 q 346 361 378 361 q 260 389 293 361 q 226 463 226 417 q 242 481 226 472 q 286 495 258 489 q 351 504 314 501 q 429 507 388 507 q 488 533 460 517 q 536 567 515 549 q 569 605 557 585 q 582 646 582 625 q 551 699 582 678 q 471 719 519 719 q 257 654 388 719 q 233 669 246 654 q 208 706 219 685 q 188 750 196 728 q 179 786 179 772 q 193 800 179 794 q 217 806 203 803 q 258 813 231 810 q 333 817 286 815 q 454 819 379 819 q 520 798 485 819 q 585 743 556 776 q 633 669 614 710 q 653 593 653 629 q 619 506 653 551 q 540 428 585 461 q 577 385 558 408 q 610 334 596 361 q 634 278 625 307 q 643 222 643 250 q 611 98 643 154 q 514 11 579 42 q 567 -42 529 -12 q 654 -106 604 -72 q 678 -131 671 -117 q 686 -151 686 -144 q 679 -162 686 -156 q 663 -176 672 -169 q 642 -188 653 -183 q 625 -193 632 -193 q 610 -186 619 -193 q 581 -160 600 -179 q 530 -108 561 -142 q 453 -21 499 -74 q 380 -46 414 -37 q 322 -54 346 -54 q 274 -36 299 -54 q 228 9 249 -18 q 193 67 207 36 q 179 124 179 97 z "},"४":{"ha":871,"x_min":161,"x_max":707,"o":"m 274 115 q 310 208 274 158 q 396 307 346 258 q 303 392 346 349 q 228 478 260 436 q 179 560 197 521 q 161 629 161 599 q 169 699 161 667 q 192 756 178 732 q 226 792 207 779 q 265 806 244 806 q 290 793 276 806 q 316 763 304 781 q 336 727 328 746 q 344 694 344 708 q 340 678 344 686 q 328 669 336 669 q 275 640 297 669 q 253 568 253 611 q 303 469 253 532 q 436 344 353 407 q 581 508 529 414 q 633 694 633 601 q 628 751 633 722 q 611 797 622 779 l 597 811 q 581 833 581 829 q 589 855 581 846 q 606 864 597 864 q 639 840 621 864 q 672 778 657 815 q 697 698 688 742 q 707 615 707 654 q 669 451 707 533 q 569 313 631 368 l 519 271 q 617 168 583 221 q 650 75 650 115 q 638 6 650 38 q 603 -49 625 -26 q 553 -85 582 -72 q 490 -99 524 -99 q 422 -77 460 -99 q 351 -24 385 -56 q 296 46 318 8 q 274 115 274 83 m 367 67 q 392 15 367 39 q 450 -10 417 -10 q 483 3 465 -10 q 517 34 501 15 q 542 74 532 53 q 553 115 553 96 q 535 174 553 140 q 481 232 517 207 q 398 144 429 188 q 367 67 367 100 z "},"५":{"ha":872,"x_min":129,"x_max":743,"o":"m 482 -78 q 507 -64 482 -64 q 561 -49 536 -64 q 605 -7 586 -33 q 634 53 624 19 q 644 125 644 88 q 596 303 644 242 q 516 258 554 275 q 451 240 478 240 q 344 272 400 240 q 240 351 288 303 q 160 456 192 399 q 129 568 129 514 q 147 652 129 606 q 190 739 164 699 q 246 806 215 779 q 303 833 276 833 q 326 824 313 833 q 350 800 339 814 q 369 772 361 786 q 378 749 378 758 q 369 731 378 739 q 353 715 361 724 q 260 610 296 675 q 225 476 225 544 q 238 421 225 446 q 271 377 250 396 q 318 348 292 358 q 372 338 344 338 q 469 353 418 338 q 557 397 521 368 l 558 397 q 524 467 535 433 q 513 539 513 501 q 522 578 513 556 q 545 620 531 600 q 576 653 560 640 q 607 667 592 667 q 639 655 624 667 q 667 623 654 643 q 686 575 679 603 q 693 517 693 547 q 683 422 693 464 q 646 354 674 379 l 644 354 q 715 188 688 271 q 743 43 743 106 q 731 -41 743 -1 q 699 -110 719 -81 q 653 -156 679 -139 q 599 -174 626 -174 l 549 -144 q 497 -106 511 -122 q 482 -78 482 -90 z "},"६":{"ha":839,"x_min":149,"x_max":721,"o":"m 258 208 q 272 154 258 179 q 306 111 285 129 q 356 83 328 93 q 414 74 385 74 q 515 89 489 74 q 499 138 504 117 q 493 182 493 158 q 525 248 493 222 q 597 274 557 274 q 640 261 618 274 q 679 228 661 249 q 709 183 697 208 q 721 131 721 157 q 693 55 721 90 q 615 0 665 19 q 638 -40 621 -17 q 673 -88 654 -64 q 706 -132 692 -112 q 721 -160 721 -151 q 717 -175 721 -167 q 706 -190 713 -183 q 694 -203 700 -197 q 686 -208 689 -208 q 620 -158 654 -208 q 550 -21 586 -107 q 520 -27 538 -25 q 486 -29 503 -29 q 374 -5 428 -29 q 279 63 319 19 q 215 162 239 106 q 190 283 190 218 q 212 360 190 324 q 271 419 233 397 q 183 514 218 456 q 149 631 149 572 q 213 779 149 725 q 392 833 276 833 q 456 831 432 833 q 504 825 481 828 q 544 726 544 781 q 521 696 544 696 q 507 701 517 696 q 487 711 497 706 q 467 722 476 717 q 451 726 457 726 q 371 714 410 726 q 301 679 332 701 q 252 626 271 657 q 233 561 233 596 q 258 497 233 531 q 328 444 282 464 q 415 468 365 460 q 519 476 465 476 q 568 401 556 425 q 581 367 581 378 q 575 356 581 360 q 564 353 569 353 q 535 356 556 353 q 507 360 514 360 q 416 347 461 360 q 336 313 371 335 q 280 265 301 292 q 258 208 258 238 m 574 174 q 596 115 574 132 q 617 119 606 115 q 639 130 629 124 q 656 144 649 136 q 663 163 663 153 q 650 197 663 186 q 624 208 638 208 q 592 199 610 208 q 574 174 574 189 z "},"७":{"ha":871,"x_min":125,"x_max":744,"o":"m 204 289 q 219 193 204 238 q 258 116 233 149 q 316 65 283 83 q 385 46 349 46 q 435 52 408 46 q 489 72 461 58 q 440 116 463 90 q 401 172 418 142 q 375 233 385 201 q 365 296 365 265 q 378 378 365 339 q 415 448 392 418 q 469 495 438 478 q 536 513 500 513 q 606 490 569 513 q 673 431 642 467 q 724 353 704 396 q 744 271 744 311 q 722 147 744 206 q 662 43 700 88 q 572 -27 624 -1 q 461 -53 519 -53 q 329 -17 390 -53 q 223 81 268 19 q 151 226 178 143 q 125 404 125 310 q 134 488 125 442 q 158 583 143 535 q 194 676 174 631 q 237 756 214 721 q 283 812 260 790 q 328 833 306 833 q 344 822 335 833 q 361 794 353 811 q 376 760 369 778 q 382 731 382 743 q 374 707 382 719 q 360 688 367 694 q 244 496 285 600 q 204 289 204 392 m 468 239 q 484 152 468 188 q 535 106 500 117 l 538 106 q 622 203 593 139 q 650 340 650 268 q 635 399 650 378 q 600 421 619 421 q 547 406 571 421 q 506 367 524 392 q 478 309 488 342 q 468 239 468 276 z "},"८":{"ha":871,"x_min":124,"x_max":744,"o":"m 222 185 q 235 116 222 149 q 272 58 249 83 q 324 18 294 33 q 385 3 353 3 q 483 30 438 3 q 566 89 529 57 q 630 148 603 121 q 671 175 657 175 q 688 167 676 175 q 713 149 700 160 q 735 128 725 139 q 744 111 744 117 q 720 46 744 79 q 658 -15 696 13 q 574 -61 619 -43 q 488 -79 529 -79 q 358 -49 422 -79 q 242 31 293 -18 q 158 143 190 81 q 125 271 125 206 q 175 392 124 319 q 328 585 226 465 q 499 768 428 703 q 613 833 569 833 q 649 807 636 819 q 663 769 663 794 q 649 743 663 758 q 618 713 635 728 q 426 532 503 614 q 305 385 350 450 q 241 269 260 319 q 222 185 222 219 z "},"९":{"ha":871,"x_min":154,"x_max":714,"o":"m 236 254 q 177 316 200 282 q 154 372 154 350 q 165 389 154 389 l 242 389 q 178 510 201 450 q 154 631 154 571 q 169 710 154 674 q 212 775 185 747 q 276 819 239 803 q 357 835 314 835 q 467 812 415 835 q 559 749 519 789 q 622 657 599 710 q 644 544 644 604 q 626 466 644 504 q 577 394 608 428 q 502 334 546 361 q 407 289 458 307 q 455 230 422 265 q 533 151 488 194 q 606 74 572 114 q 663 -5 639 35 q 701 -81 688 -44 q 714 -151 714 -118 q 706 -199 714 -176 q 685 -238 699 -221 q 653 -266 671 -256 q 614 -276 635 -276 q 574 -268 597 -276 q 531 -247 551 -260 q 494 -221 510 -235 q 479 -196 479 -207 q 490 -182 479 -182 q 501 -185 494 -182 q 513 -187 507 -187 q 577 -156 551 -187 q 603 -85 603 -125 q 536 58 603 -31 q 340 274 469 147 q 314 271 329 274 q 284 264 299 268 q 256 257 269 260 q 236 254 243 254 m 311 397 q 410 429 364 408 q 490 478 456 450 q 543 538 524 506 q 563 606 563 571 q 552 656 563 632 q 525 699 542 681 q 485 729 508 718 q 438 740 463 740 q 363 725 399 740 q 298 683 326 710 q 253 620 269 656 q 236 544 236 585 q 256 471 236 513 q 311 397 275 429 z "},"॰":{"ha":614,"x_min":117,"x_max":458,"o":"m 117 139 q 131 214 117 179 q 168 274 144 249 q 223 315 192 300 q 289 329 254 329 q 350 310 319 329 q 404 258 381 290 q 443 187 428 226 q 458 107 458 147 q 445 32 458 67 q 410 -28 432 -3 q 358 -67 388 -53 q 296 -81 329 -81 q 228 -60 260 -81 q 171 -8 196 -40 q 131 63 146 24 q 117 139 117 101 m 192 89 q 204 47 192 64 q 243 29 217 29 q 292 40 267 29 q 337 69 317 51 q 370 107 357 86 q 383 147 383 128 q 367 196 383 178 q 332 214 351 214 q 285 202 310 214 q 239 172 260 190 q 205 131 218 153 q 192 89 192 108 z "},"ॻ":{"ha":819,"x_min":-15,"x_max":819,"o":"m 283 244 q 210 263 246 244 q 147 312 175 282 q 101 378 118 342 q 85 451 85 415 q 108 527 85 496 q 168 558 132 558 q 233 542 215 558 l 233 717 l -15 717 l -15 806 l 233 806 l 233 822 q 240 874 233 857 q 269 892 246 892 q 308 865 285 892 q 360 806 332 839 l 581 806 l 581 822 q 587 874 581 857 q 617 892 593 892 q 656 865 632 892 q 704 806 679 839 l 819 806 l 819 717 l 699 717 q 688 708 692 717 q 685 654 685 699 l 685 175 q 676 112 685 142 q 652 60 667 82 q 618 24 638 38 q 578 11 599 11 q 545 20 565 11 q 507 43 525 29 q 476 71 489 57 q 463 96 463 85 q 473 112 463 107 q 493 117 483 117 q 556 160 531 117 q 581 268 581 204 l 581 717 l 363 717 q 345 697 351 717 q 340 619 339 676 l 342 467 q 388 441 369 451 q 416 423 406 431 q 430 409 426 415 q 433 394 433 403 q 428 373 433 383 q 414 363 422 363 q 403 367 411 363 q 385 378 394 372 q 365 388 375 383 q 351 393 356 393 q 342 370 344 393 q 333 319 339 347 q 317 267 328 290 q 283 244 306 244 m 206 349 q 215 359 210 349 q 224 385 219 369 q 231 419 228 401 q 233 451 233 436 q 219 476 233 464 q 182 488 204 488 q 151 471 164 488 q 138 433 138 454 q 158 374 138 399 q 206 349 178 349 m 60 -97 q 75 -67 60 -78 q 106 -56 90 -56 l 646 -56 q 666 -65 654 -56 q 689 -88 678 -75 q 708 -115 700 -101 q 715 -137 715 -129 q 708 -163 715 -154 q 692 -172 701 -172 l 140 -172 q 136 -173 138 -172 q 132 -174 135 -174 l 126 -174 q 81 -149 101 -174 q 60 -97 60 -124 z "},"ॼ":{"ha":1111,"x_min":-40,"x_max":1136,"o":"m 151 -97 q 167 -67 151 -78 q 203 -56 182 -56 l 728 -56 q 745 -65 733 -56 q 769 -88 757 -75 q 791 -115 782 -101 q 800 -137 800 -129 q 790 -163 800 -154 q 768 -172 779 -172 l 222 -172 q 220 -173 221 -172 q 218 -174 219 -174 q 196 -167 207 -174 q 174 -149 185 -160 q 158 -124 164 -137 q 151 -97 151 -110 m 407 142 q 478 156 444 142 q 537 192 511 169 q 578 246 563 215 q 593 311 593 276 q 566 373 593 349 q 504 397 539 397 q 490 393 497 397 q 474 385 482 389 q 460 376 467 381 q 450 372 453 372 q 422 388 436 372 q 398 426 408 404 q 381 469 388 447 q 375 504 375 492 q 384 522 375 515 q 400 529 393 529 q 410 528 401 529 q 431 525 419 526 l 458 522 l 785 522 q 803 525 792 522 q 821 535 814 528 q 847 504 832 528 q 883 432 861 481 l 883 717 l -40 717 l -40 806 l 883 806 l 883 822 q 890 874 883 857 q 919 892 896 892 q 957 865 935 892 q 1007 806 979 839 l 1136 806 l 1136 717 l 1001 717 q 988 713 993 717 q 980 697 983 710 q 976 657 976 683 q 975 585 975 631 q 977 508 975 560 q 981 399 979 456 q 985 290 983 342 q 988 215 988 239 q 981 106 988 158 q 961 13 975 53 q 927 -52 947 -28 q 881 -76 907 -76 q 847 -68 864 -76 q 816 -47 829 -60 q 794 -18 803 -35 q 786 15 786 -1 q 793 28 786 22 q 810 33 800 33 q 870 79 850 33 q 890 222 890 125 q 888 328 890 292 q 879 381 886 364 q 813 400 850 393 q 744 407 776 407 q 610 389 654 407 q 672 317 649 361 q 696 232 696 272 q 677 148 696 186 q 626 82 658 110 q 550 38 593 54 q 458 22 507 22 q 320 67 390 22 q 193 184 250 113 q 100 344 136 256 q 64 522 64 433 q 69 540 64 532 q 86 549 75 549 q 115 542 99 549 q 148 526 132 535 q 174 506 164 517 q 185 489 185 496 q 181 471 185 482 q 172 447 176 460 q 164 424 168 435 q 160 407 160 413 q 181 304 160 353 q 235 219 201 256 q 314 163 269 183 q 407 142 358 142 z "},"ॾ":{"ha":932,"x_min":-4,"x_max":943,"o":"m 174 267 q 218 193 189 222 q 286 147 247 164 q 372 122 325 129 q 468 115 418 115 q 576 122 522 115 q 672 142 629 128 q 740 179 714 157 q 767 233 767 201 q 751 274 767 257 q 706 292 735 292 q 655 285 689 292 q 585 271 621 279 q 516 256 549 263 q 468 250 483 250 q 383 272 426 250 q 303 328 339 293 q 244 406 267 363 q 221 496 221 450 q 239 544 221 521 q 288 584 257 567 q 356 612 318 601 q 436 622 394 622 l 482 622 q 582 619 544 622 q 632 608 619 617 l 619 717 l -4 717 l -4 806 l 615 806 l 615 822 q 622 874 615 857 q 651 892 628 892 q 689 865 667 892 q 739 806 711 839 l 943 806 l 943 717 l 742 717 q 730 703 732 717 q 728 671 728 690 q 730 640 728 661 q 735 597 732 619 q 740 553 738 574 q 742 522 742 532 q 711 496 742 496 q 670 499 699 496 q 609 505 642 501 q 547 511 576 508 q 500 514 517 514 q 361 493 413 514 q 310 417 310 472 q 335 374 310 392 q 393 357 361 357 q 447 362 410 357 q 524 373 483 367 q 601 385 565 379 q 651 390 636 390 q 722 369 686 390 q 788 313 758 347 q 835 238 817 279 q 854 158 854 197 q 828 88 854 117 q 759 42 803 60 q 658 16 715 24 q 539 8 601 8 q 376 31 457 8 q 230 94 294 53 q 125 191 165 135 q 85 315 85 247 q 93 358 85 340 q 121 376 101 376 q 140 367 131 376 q 156 341 149 357 q 167 306 163 325 q 174 267 172 286 m 208 -97 q 221 -67 208 -78 q 256 -56 233 -56 l 794 -56 q 815 -65 803 -56 q 839 -88 828 -75 q 858 -115 850 -101 q 865 -137 865 -129 q 842 -172 865 -172 l 289 -172 q 284 -173 286 -172 q 279 -174 282 -174 q 229 -149 250 -174 q 208 -97 208 -124 z "},"ॿ":{"ha":886,"x_min":-4,"x_max":900,"o":"m 61 -97 q 76 -67 61 -78 q 107 -56 92 -56 l 596 -56 l 600 -56 l 603 -56 q 643 24 631 -51 q 656 236 656 99 l 651 236 q 510 161 583 183 q 363 139 438 139 q 268 164 317 139 q 178 229 219 189 q 112 319 138 269 q 86 418 86 368 q 106 483 86 453 q 160 535 126 513 q 237 570 193 557 q 328 583 281 583 q 419 565 375 583 q 499 515 463 547 q 563 438 535 483 q 604 338 590 393 l 639 358 l 656 338 q 644 530 647 440 q 640 717 640 619 l -4 717 l -4 806 l 640 806 l 640 822 q 647 874 640 857 q 676 892 653 892 q 713 865 689 892 q 764 806 736 839 l 900 806 l 900 717 l 775 717 q 750 622 747 717 l 754 226 q 738 -56 754 35 q 683 -156 722 -146 q 674 -158 678 -158 l 142 -158 q 136 -159 139 -158 q 128 -160 133 -160 q 82 -142 103 -160 q 61 -97 61 -124 m 425 276 q 502 297 465 283 q 575 324 539 310 q 501 443 547 399 q 410 488 454 488 l 403 488 q 392 487 399 488 q 376 485 386 486 l 360 481 l 425 276 m 168 338 q 205 276 168 299 q 299 253 242 253 q 343 256 324 253 q 379 263 363 260 q 348 363 363 313 q 317 463 333 413 l 313 463 q 207 410 246 444 q 168 338 168 375 z "},"ॲ":{"ha":1115,"x_min":72,"x_max":1143,"o":"m 146 231 q 163 149 146 188 q 212 80 179 110 q 291 32 244 50 q 397 14 338 14 q 453 22 426 14 q 499 49 479 31 q 530 98 518 68 q 542 171 542 128 q 523 258 542 215 q 474 326 504 301 l 471 326 q 418 290 451 303 q 353 276 385 276 q 326 288 342 276 q 297 317 311 300 q 274 354 283 335 q 264 389 264 374 q 288 427 264 411 q 342 443 313 443 q 425 432 404 443 l 428 432 q 536 537 501 482 q 571 635 571 592 q 542 700 571 674 q 472 726 513 726 q 416 718 440 726 q 360 693 392 710 q 306 652 318 672 q 290 617 293 632 q 285 594 288 603 q 261 585 282 585 q 236 599 249 585 q 213 634 224 614 q 197 677 203 654 q 190 717 190 700 q 215 753 190 735 q 276 788 239 772 q 356 812 313 803 q 435 821 399 821 q 513 800 476 821 q 575 744 549 779 q 616 661 601 708 q 631 563 631 614 q 599 462 631 511 q 519 365 568 413 l 579 303 l 582 303 q 713 349 653 335 q 828 363 772 363 l 888 303 l 892 303 q 890 387 892 329 q 885 508 888 444 q 880 629 882 571 q 878 717 878 688 l 851 717 q 827 712 840 717 q 800 702 814 707 q 773 692 786 697 q 750 688 760 688 q 724 695 738 688 q 698 717 710 703 q 679 748 686 731 q 672 786 672 765 q 701 821 672 821 q 727 819 711 821 q 760 813 743 817 q 792 808 776 810 q 817 806 807 806 l 874 806 q 889 874 874 844 q 928 903 904 903 q 962 872 944 903 q 1004 806 979 842 l 1143 806 l 1143 717 l 986 717 q 976 676 976 708 q 978 652 976 676 q 981 588 979 628 q 985 495 982 547 q 989 389 988 443 q 992 283 990 335 q 993 190 993 231 q 987 82 993 133 q 968 -9 981 31 q 938 -72 956 -49 q 896 -94 919 -94 q 864 -82 883 -94 q 827 -51 844 -69 q 797 -12 810 -32 q 785 22 785 7 q 794 35 785 29 q 817 40 804 40 q 846 58 832 40 q 870 107 860 76 q 886 179 881 138 q 892 267 892 221 l 889 267 q 733 238 799 258 q 632 190 668 218 l 631 190 q 644 140 640 163 q 647 99 647 118 q 629 22 647 57 q 581 -39 611 -12 q 511 -80 551 -65 q 426 -94 471 -94 q 285 -58 350 -94 q 174 40 221 -22 q 99 186 126 103 q 72 363 72 269 q 97 389 72 389 q 119 382 107 389 q 142 363 131 375 q 160 333 153 350 q 168 296 168 315 q 157 262 168 279 q 146 231 146 244 m 747 950 q 667 967 706 950 q 599 1010 629 983 q 552 1073 569 1038 q 535 1144 535 1108 q 539 1159 535 1150 q 549 1176 543 1168 q 561 1190 554 1185 q 572 1196 568 1196 q 574 1193 575 1196 q 575 1183 574 1190 q 630 1088 592 1125 q 747 1051 668 1051 q 836 1074 796 1051 q 886 1133 876 1097 l 893 1194 q 903 1210 900 1210 q 919 1199 911 1210 q 935 1172 928 1188 q 948 1139 943 1156 q 953 1111 953 1122 q 937 1048 953 1078 q 894 997 921 1018 q 828 963 867 975 q 747 950 790 950 z "},"ॽ":{"ha":743,"x_min":81,"x_max":647,"o":"m 214 -1 q 219 38 214 14 q 224 74 224 63 q 223 99 224 82 q 222 134 222 115 q 220 170 221 153 q 219 199 219 188 q 235 247 219 226 q 279 267 250 267 q 393 285 339 267 q 489 336 447 304 q 555 411 531 368 q 579 504 579 454 q 565 572 579 539 q 528 628 551 604 q 473 666 504 651 q 407 681 442 681 q 329 667 367 681 q 261 628 292 653 q 209 570 231 604 q 178 496 188 536 q 158 481 172 481 q 110 519 132 481 q 81 629 89 558 q 199 758 131 711 q 354 806 268 806 q 458 773 406 806 q 553 688 511 740 q 621 568 594 635 q 647 432 647 501 q 628 327 647 376 q 576 240 608 278 q 501 181 544 203 q 413 158 458 158 q 354 131 376 158 q 332 65 332 104 q 333 47 332 60 q 337 19 335 33 q 340 -8 339 4 q 342 -25 342 -21 q 340 -61 342 -46 q 335 -76 339 -76 q 299 -68 319 -76 q 260 -48 279 -60 q 227 -23 240 -36 q 214 -1 214 -10 z "},"ॱ":{"ha":0,"x_min":-237,"x_max":-68,"o":"m -156 1014 q -172 1021 -161 1014 q -204 1051 -192 1035 q -224 1080 -217 1067 q -235 1102 -232 1093 q -237 1113 -237 1111 q -231 1131 -237 1124 l -229 1131 q -181 1197 -203 1179 q -156 1215 -160 1215 q -143 1210 -150 1215 l -111 1175 q -79 1135 -87 1147 q -68 1113 -71 1124 q -80 1090 -69 1106 q -101 1063 -90 1075 l -136 1025 q -147 1016 -140 1018 q -156 1014 -153 1014 z "},"ऄ":{"ha":1131,"x_min":88,"x_max":1158,"o":"m 161 231 q 178 149 161 188 q 227 80 194 110 q 306 32 260 50 q 413 14 353 14 q 468 22 442 14 q 514 49 494 31 q 545 98 533 68 q 557 171 557 128 q 538 258 557 215 q 489 326 519 301 l 486 326 q 433 290 467 303 q 368 276 400 276 q 342 288 357 276 q 313 317 326 300 q 289 354 299 335 q 279 389 279 374 q 303 427 279 411 q 357 443 328 443 q 440 432 419 443 l 443 432 q 551 537 517 482 q 586 635 586 592 q 557 700 586 674 q 488 726 528 726 q 431 718 456 726 q 375 693 407 710 q 321 652 333 672 q 306 617 308 632 q 300 594 303 603 q 276 585 297 585 q 251 599 264 585 q 228 634 239 614 q 212 677 218 654 q 206 717 206 700 q 230 753 206 735 q 291 788 254 772 q 371 812 328 803 q 450 821 414 821 q 528 800 492 821 q 590 744 564 779 q 631 661 617 708 q 646 563 646 614 q 615 462 646 511 q 535 365 583 413 l 594 303 l 597 303 q 728 349 668 335 q 843 363 788 363 l 903 303 l 907 303 q 905 387 907 329 q 900 508 903 444 q 895 629 897 571 q 893 717 893 688 l 867 717 q 842 712 856 717 q 815 702 829 707 q 788 692 801 697 q 765 688 775 688 q 739 695 753 688 q 713 717 725 703 q 694 748 701 731 q 688 786 688 765 q 717 821 688 821 q 742 819 726 821 q 775 813 758 817 q 807 808 792 810 q 832 806 822 806 l 889 806 q 904 874 889 844 q 943 903 919 903 q 977 872 960 903 q 1019 806 994 842 l 1158 806 l 1158 717 l 1001 717 q 992 676 992 708 q 993 652 992 676 q 996 588 994 628 q 1000 495 997 547 q 1004 389 1003 443 q 1007 283 1006 335 q 1008 190 1008 231 q 1002 82 1008 133 q 983 -9 996 31 q 953 -72 971 -49 q 911 -94 935 -94 q 879 -82 899 -94 q 842 -51 860 -69 q 813 -12 825 -32 q 800 22 800 7 q 810 35 800 29 q 832 40 819 40 q 861 58 847 40 q 885 107 875 76 q 901 179 896 138 q 907 267 907 221 l 904 267 q 749 238 814 258 q 647 190 683 218 l 646 190 q 659 140 656 163 q 663 99 663 118 q 644 22 663 57 q 597 -39 626 -12 q 526 -80 567 -65 q 442 -94 486 -94 q 301 -58 365 -94 q 189 40 236 -22 q 115 186 142 103 q 88 363 88 269 q 113 389 88 389 q 134 382 122 389 q 157 363 146 375 q 176 333 168 350 q 183 296 183 315 q 172 262 183 279 q 161 231 161 244 m 771 804 q 753 869 771 838 q 706 925 735 900 q 638 965 676 950 q 561 981 600 981 q 406 999 478 981 q 279 1051 333 1018 q 194 1126 225 1083 q 163 1217 163 1168 q 171 1226 163 1221 q 190 1238 179 1232 q 211 1247 200 1243 q 229 1251 222 1251 q 237 1243 233 1251 q 243 1224 240 1235 q 273 1161 249 1190 q 336 1110 297 1132 q 427 1074 375 1088 q 542 1061 479 1061 q 660 1040 604 1061 q 756 984 715 1019 q 822 902 797 949 q 846 804 846 856 l 771 804 z "},"ॹ":{"ha":1111,"x_min":-40,"x_max":1136,"o":"m 407 142 q 478 156 444 142 q 537 192 511 169 q 578 246 563 215 q 593 311 593 276 q 566 373 593 349 q 504 397 539 397 q 490 393 497 397 q 474 385 482 389 q 460 376 467 381 q 450 372 453 372 q 422 388 436 372 q 398 426 408 404 q 381 469 388 447 q 375 504 375 492 q 384 522 375 515 q 400 529 393 529 q 410 528 401 529 q 431 525 419 526 l 458 522 l 785 522 q 803 525 792 522 q 821 535 814 528 q 847 504 832 528 q 883 432 861 481 l 883 717 l -40 717 l -40 806 l 883 806 l 883 822 q 890 874 883 857 q 919 892 896 892 q 957 865 935 892 q 1007 806 979 839 l 1136 806 l 1136 717 l 1001 717 q 988 713 993 717 q 980 697 983 710 q 976 657 976 683 q 975 585 975 631 q 977 508 975 560 q 981 399 979 456 q 985 290 983 342 q 988 215 988 239 q 981 106 988 158 q 961 13 975 53 q 927 -52 947 -28 q 881 -76 907 -76 q 847 -68 864 -76 q 816 -47 829 -60 q 794 -18 803 -35 q 786 15 786 -1 q 793 28 786 22 q 810 33 800 33 q 870 79 850 33 q 890 222 890 125 q 888 328 890 292 q 879 381 886 364 q 813 400 850 393 q 744 407 776 407 q 610 389 654 407 q 672 317 649 361 q 696 232 696 272 q 677 148 696 186 q 626 82 658 110 q 550 38 593 54 q 458 22 507 22 q 320 67 390 22 q 193 184 250 113 q 100 344 136 256 q 64 522 64 433 q 69 540 64 532 q 86 549 75 549 q 115 542 99 549 q 148 526 132 535 q 174 506 164 517 q 185 489 185 496 q 181 471 185 482 q 172 447 176 460 q 164 424 168 435 q 160 407 160 413 q 181 304 160 353 q 235 219 201 256 q 314 163 269 183 q 407 142 358 142 m 388 -101 q 446 -122 424 -101 q 468 -168 468 -142 q 444 -211 468 -192 q 385 -231 421 -231 q 328 -212 349 -231 q 308 -168 308 -193 q 332 -119 308 -137 q 388 -101 356 -101 m 267 -278 q 325 -298 303 -278 q 347 -344 347 -318 q 324 -387 347 -368 q 264 -407 300 -407 q 208 -388 228 -407 q 188 -344 188 -369 q 211 -296 188 -314 q 267 -278 235 -278 m 124 -101 q 182 -122 160 -101 q 204 -168 204 -142 q 181 -211 204 -192 q 121 -231 157 -231 q 65 -212 85 -231 q 44 -168 44 -193 q 68 -119 44 -137 q 124 -101 92 -101 z "},"ॺ":{"ha":897,"x_min":-4,"x_max":908,"o":"m 386 113 q 269 144 324 113 q 173 228 214 175 q 109 350 132 281 q 86 496 86 419 q 99 526 86 515 q 132 536 111 536 l 208 536 q 272 568 249 536 q 296 656 296 600 q 290 686 296 671 q 275 717 283 701 l -4 717 l -4 806 l 668 806 q 684 867 675 844 q 713 890 693 890 q 745 868 725 890 q 786 806 765 846 l 908 806 l 908 717 l 775 717 q 753 661 763 697 q 744 585 744 625 q 749 504 744 557 q 757 393 753 451 q 765 283 761 335 q 769 206 769 231 q 762 92 769 146 q 741 -4 754 38 q 710 -70 728 -46 q 672 -94 693 -94 q 635 -84 656 -94 q 597 -58 614 -74 q 567 -24 579 -42 q 556 10 556 -6 q 568 33 556 25 q 600 40 581 40 q 631 57 617 40 q 655 102 644 74 q 671 169 665 131 q 676 251 676 207 l 676 265 q 528 154 603 196 q 386 113 453 113 m 574 361 q 608 389 594 389 q 621 381 611 389 q 658 349 631 372 q 656 394 658 363 q 650 460 653 425 q 644 526 647 494 q 642 574 642 557 l 642 599 q 651 717 642 697 l 321 717 q 360 635 346 676 q 374 557 374 594 q 373 534 374 544 q 369 514 372 524 l 574 361 m 329 222 q 373 230 349 222 q 424 250 397 238 q 478 279 451 263 q 528 314 504 296 q 436 386 483 350 q 343 458 389 422 q 290 426 319 436 q 225 417 260 417 l 185 417 q 163 405 174 417 q 153 381 153 393 q 167 323 153 351 q 206 272 182 294 q 263 236 231 250 q 329 222 294 222 z "},"ऀ":{"ha":0,"x_min":-643,"x_max":1,"o":"m -53 907 q -69 924 -62 907 q -78 960 -75 940 q -111 1043 -89 1004 q -163 1110 -133 1082 q -230 1156 -193 1139 q -306 1172 -267 1172 q -381 1156 -344 1172 q -448 1108 -418 1139 q -499 1035 -478 1078 q -531 943 -521 993 q -549 904 -535 921 q -583 888 -562 888 q -603 901 -593 888 q -623 935 -614 915 q -637 976 -632 954 q -643 1013 -643 997 q -612 1099 -643 1056 q -535 1177 -582 1143 q -434 1233 -489 1211 q -329 1254 -379 1254 q -219 1228 -278 1254 q -112 1159 -161 1201 q -31 1064 -62 1117 q 1 960 1 1011 q -15 924 1 940 q -53 907 -31 907 m -314 907 q -328 917 -317 907 q -351 942 -339 928 q -372 972 -362 957 q -382 996 -382 986 q -372 1022 -382 1006 q -350 1051 -362 1038 q -327 1076 -337 1065 q -314 1086 -317 1086 q -292 1075 -306 1086 q -265 1049 -278 1064 q -244 1019 -253 1033 q -235 996 -235 1004 q -245 972 -235 988 q -269 942 -256 957 q -296 917 -283 928 q -314 907 -308 907 z "},"ॕ":{"ha":140,"x_min":-678,"x_max":35,"o":"m -314 869 q -435 896 -376 869 q -540 967 -494 922 q -614 1069 -586 1011 q -642 1192 -642 1128 q -636 1203 -642 1196 q -624 1217 -631 1210 q -608 1230 -617 1225 q -594 1235 -600 1235 q -585 1224 -589 1235 q -578 1199 -581 1213 q -540 1107 -565 1150 q -478 1032 -514 1064 q -401 981 -443 1000 q -314 963 -358 963 q -233 979 -271 963 q -165 1026 -194 996 q -114 1095 -135 1056 q -85 1181 -93 1135 q -68 1228 -76 1207 q -53 1249 -60 1249 q -34 1239 -44 1249 q -15 1215 -24 1229 q 1 1184 -6 1200 q 8 1156 8 1168 q -17 1044 8 1096 q -87 953 -43 992 q -190 892 -131 914 q -314 869 -249 869 m -678 715 l -678 804 l 35 804 l 35 715 l -678 715 z "},"᳚":{"ha":0,"x_min":-460,"x_max":-179,"o":"m -251 811 l -251 1158 l -179 1158 l -179 811 l -251 811 m -460 811 l -460 1158 l -385 1158 l -385 811 l -460 811 z "},"₹":{"ha":732,"x_min":63,"x_max":692,"o":"m 146 263 q 117 277 129 265 q 104 314 104 289 q 112 355 104 333 q 146 379 119 376 q 250 406 203 388 q 331 452 297 425 q 384 513 365 479 q 403 582 403 546 q 394 619 403 604 q 372 644 386 635 q 342 656 358 653 q 310 660 326 660 q 231 651 269 660 q 160 635 192 643 l 139 629 q 111 638 125 629 q 87 660 97 647 q 69 688 76 674 q 63 714 63 703 l 63 715 q 78 740 63 738 l 96 744 q 195 760 142 756 q 311 764 249 764 q 367 765 338 764 q 432 765 396 765 q 515 766 468 765 q 624 767 563 767 l 647 767 q 680 755 668 767 q 692 714 692 743 q 685 687 692 699 q 669 667 678 675 q 650 656 660 660 q 636 651 640 651 q 563 653 604 651 q 481 658 521 656 q 489 596 489 629 q 477 522 489 554 q 448 465 465 490 q 411 421 431 440 q 378 385 392 401 q 449 385 414 385 q 513 387 483 386 q 562 388 542 388 q 590 388 582 388 q 625 376 614 388 q 636 332 636 364 q 613 296 636 307 q 562 281 590 285 q 509 278 533 276 q 482 279 485 279 q 506 250 496 271 q 522 202 515 229 q 533 144 529 175 q 536 85 536 113 q 525 -7 536 31 q 486 -44 514 -44 q 446 -22 460 -44 q 432 32 432 0 q 432 50 432 42 q 433 68 432 58 q 434 90 433 78 q 438 124 435 103 q 430 186 438 161 q 412 227 422 211 q 392 251 401 243 q 379 261 382 258 q 360 269 369 267 q 338 274 351 272 q 306 275 325 275 q 258 275 288 275 q 212 270 243 275 q 146 263 181 265 z "},"ॏ":{"ha":417,"x_min":-383,"x_max":433,"o":"m 78 10 q 88 26 78 21 q 108 31 97 31 q 139 42 125 31 q 163 75 153 54 q 178 123 172 96 q 183 181 183 150 l 183 717 l -12 717 l -12 806 l 142 806 q 126 846 135 824 q 103 888 118 868 q 66 920 89 907 q 8 933 43 933 l -96 933 q -205 937 -153 933 q -297 952 -257 940 q -360 988 -336 964 q -383 1053 -383 1011 q -369 1089 -383 1076 q -335 1101 -354 1101 q -300 1091 -315 1101 q -285 1064 -285 1081 q -272 1035 -285 1046 q -236 1018 -258 1024 q -183 1010 -214 1013 q -118 1008 -153 1008 q -53 1009 -86 1008 q 13 1010 -21 1010 q 95 990 61 1010 q 151 941 129 971 q 186 875 174 911 q 203 806 199 839 l 258 806 q 247 902 258 853 q 213 992 235 951 q 161 1057 192 1032 q 93 1082 131 1082 q 37 1081 65 1082 q -21 1081 8 1081 q -114 1084 -69 1081 q -194 1100 -158 1088 q -250 1136 -229 1113 q -271 1200 -271 1160 q -258 1231 -271 1217 q -225 1244 -244 1244 q -187 1232 -203 1244 q -172 1204 -172 1219 q -161 1179 -172 1189 q -131 1164 -150 1169 q -88 1156 -112 1158 q -36 1154 -64 1154 q 29 1156 -4 1154 q 92 1157 63 1157 q 195 1128 151 1157 q 267 1051 239 1100 q 310 939 296 1003 q 324 806 324 875 l 433 806 l 433 717 l 310 717 q 298 714 303 717 q 290 700 293 711 q 284 667 286 689 q 282 608 282 646 l 282 90 q 273 26 282 56 q 250 -27 264 -4 q 217 -63 236 -50 q 181 -76 199 -76 q 152 -67 169 -76 q 118 -44 135 -57 q 90 -16 101 -31 q 78 10 78 -1 z "},"ऻ":{"ha":417,"x_min":-14,"x_max":433,"o":"m 78 10 q 88 26 78 21 q 108 31 97 31 q 139 42 125 31 q 163 75 153 54 q 178 123 172 96 q 183 181 183 150 l 183 717 l -14 717 l -14 806 l 183 806 l 183 1033 l 282 1033 l 283 854 q 306 835 293 847 q 335 806 318 824 l 433 806 l 433 717 l 332 717 q 297 685 313 717 q 282 608 282 654 l 282 90 q 273 26 282 56 q 250 -27 264 -4 q 217 -63 236 -50 q 181 -76 199 -76 q 152 -67 169 -76 q 118 -44 135 -57 q 90 -16 101 -31 q 78 10 78 -1 z "},"ॖ":{"ha":0,"x_min":-679,"x_max":-32,"o":"m -89 -162 q -49 -176 -67 -162 q -32 -214 -32 -190 q -58 -300 -32 -260 q -127 -370 -83 -340 q -229 -417 -171 -400 q -351 -435 -287 -435 q -478 -417 -418 -435 q -582 -370 -537 -400 q -653 -300 -626 -340 q -679 -214 -679 -260 q -664 -181 -679 -194 q -626 -167 -649 -167 q -585 -181 -603 -167 q -568 -214 -568 -194 q -550 -262 -568 -240 q -502 -300 -532 -285 q -433 -324 -472 -315 q -351 -333 -394 -333 q -256 -321 -292 -333 q -199 -289 -219 -308 q -167 -248 -178 -269 q -148 -207 -157 -226 q -126 -175 -139 -187 q -89 -162 -114 -162 z "},"ॗ":{"ha":0,"x_min":-679,"x_max":-32,"o":"m -89 -100 q -50 -114 -68 -100 q -32 -151 -32 -128 q -58 -222 -32 -189 q -127 -281 -83 -256 q -229 -322 -171 -307 q -351 -336 -287 -336 q -478 -322 -418 -336 q -582 -281 -537 -307 q -653 -222 -626 -256 q -679 -151 -679 -189 q -664 -115 -679 -129 q -626 -101 -649 -101 q -585 -115 -603 -101 q -568 -151 -568 -129 q -550 -189 -568 -172 q -502 -217 -532 -206 q -433 -235 -472 -229 q -351 -242 -394 -242 q -249 -231 -286 -242 q -190 -205 -211 -221 q -160 -171 -169 -189 q -144 -137 -151 -153 q -125 -110 -136 -121 q -89 -100 -114 -100 m -89 -326 q -50 -340 -68 -326 q -32 -376 -32 -353 q -58 -447 -32 -414 q -127 -503 -83 -479 q -229 -540 -171 -526 q -351 -554 -287 -554 q -476 -540 -417 -554 q -581 -502 -536 -526 q -653 -446 -626 -478 q -679 -376 -679 -414 q -664 -344 -679 -357 q -626 -331 -649 -331 q -585 -344 -603 -331 q -568 -376 -568 -357 q -550 -410 -568 -393 q -502 -440 -532 -426 q -433 -460 -472 -453 q -351 -468 -394 -468 q -249 -458 -286 -468 q -190 -431 -211 -447 q -160 -397 -169 -415 q -144 -363 -151 -379 q -125 -337 -136 -347 q -89 -326 -114 -326 z "},"ऺ":{"ha":0,"x_min":-235,"x_max":-112,"o":"m -235 803 l -235 1056 l -112 1056 l -112 803 l -235 803 z "},"ॳ":{"ha":1115,"x_min":72,"x_max":1143,"o":"m 146 231 q 163 149 146 188 q 212 80 179 110 q 291 32 244 50 q 397 14 338 14 q 453 22 426 14 q 499 49 479 31 q 530 98 518 68 q 542 171 542 128 q 523 258 542 215 q 474 326 504 301 l 471 326 q 418 290 451 303 q 353 276 385 276 q 326 288 342 276 q 297 317 311 300 q 274 354 283 335 q 264 389 264 374 q 288 427 264 411 q 342 443 313 443 q 425 432 404 443 l 428 432 q 536 537 501 482 q 571 635 571 592 q 542 700 571 674 q 472 726 513 726 q 416 718 440 726 q 360 693 392 710 q 306 652 318 672 q 290 617 293 632 q 285 594 288 603 q 261 585 282 585 q 236 599 249 585 q 213 634 224 614 q 197 677 203 654 q 190 717 190 700 q 215 753 190 735 q 276 788 239 772 q 356 812 313 803 q 435 821 399 821 q 513 800 476 821 q 575 744 549 779 q 616 661 601 708 q 631 563 631 614 q 599 462 631 511 q 519 365 568 413 l 579 303 l 582 303 q 713 349 653 335 q 828 363 772 363 l 888 303 l 892 303 q 890 387 892 329 q 885 508 888 444 q 880 629 882 571 q 878 717 878 688 l 851 717 q 827 712 840 717 q 800 702 814 707 q 773 692 786 697 q 750 688 760 688 q 724 695 738 688 q 698 717 710 703 q 679 748 686 731 q 672 786 672 765 q 701 821 672 821 q 727 819 711 821 q 760 813 743 817 q 792 808 776 810 q 817 806 807 806 l 874 806 q 889 874 874 844 q 928 903 904 903 q 962 872 944 903 q 1004 806 979 842 l 1143 806 l 1143 717 l 986 717 q 976 676 976 708 q 978 652 976 676 q 981 588 979 628 q 985 495 982 547 q 989 389 988 443 q 992 283 990 335 q 993 190 993 231 q 987 82 993 133 q 968 -9 981 31 q 938 -72 956 -49 q 896 -94 919 -94 q 864 -82 883 -94 q 827 -51 844 -69 q 797 -12 810 -32 q 785 22 785 7 q 794 35 785 29 q 817 40 804 40 q 846 58 832 40 q 870 107 860 76 q 886 179 881 138 q 892 267 892 221 l 889 267 q 733 238 799 258 q 632 190 668 218 l 631 190 q 644 140 640 163 q 647 99 647 118 q 629 22 647 57 q 581 -39 611 -12 q 511 -80 551 -65 q 426 -94 471 -94 q 285 -58 350 -94 q 174 40 221 -22 q 99 186 126 103 q 72 363 72 269 q 97 389 72 389 q 119 382 107 389 q 142 363 131 375 q 160 333 153 350 q 168 296 168 315 q 157 262 168 279 q 146 231 146 244 m 865 803 l 865 1056 l 988 1056 l 988 803 l 865 803 z "},"ॴ":{"ha":1429,"x_min":72,"x_max":1435,"o":"m 146 231 q 163 149 146 188 q 212 80 179 110 q 291 32 244 50 q 397 14 338 14 q 453 22 426 14 q 499 49 479 31 q 530 98 518 68 q 542 171 542 128 q 523 258 542 215 q 474 326 504 301 l 471 326 q 418 290 451 303 q 353 276 385 276 q 326 288 342 276 q 297 317 311 300 q 274 354 283 335 q 264 389 264 374 q 288 427 264 411 q 342 443 313 443 q 425 432 404 443 l 428 432 q 536 537 501 482 q 571 635 571 592 q 542 700 571 674 q 472 726 513 726 q 416 718 440 726 q 360 693 392 710 q 306 652 318 672 q 290 617 293 632 q 285 594 288 603 q 261 585 282 585 q 236 599 249 585 q 213 634 224 614 q 197 677 203 654 q 190 717 190 700 q 215 753 190 735 q 276 788 239 772 q 356 812 313 803 q 435 821 399 821 q 513 800 476 821 q 575 744 549 779 q 616 661 601 708 q 631 563 631 614 q 599 462 631 511 q 519 365 568 413 l 579 303 l 582 303 q 713 349 653 335 q 828 363 772 363 l 888 303 l 892 303 q 890 387 892 329 q 885 508 888 444 q 880 629 882 571 q 878 717 878 688 l 851 717 q 827 712 840 717 q 800 702 814 707 q 773 692 786 697 q 750 688 760 688 q 724 695 738 688 q 698 717 710 703 q 679 748 686 731 q 672 786 672 765 q 701 821 672 821 q 727 819 711 821 q 760 813 743 817 q 792 808 776 810 q 817 806 807 806 l 874 806 q 889 874 874 844 q 928 903 904 903 q 962 872 944 903 q 1004 806 979 842 l 1143 806 l 1143 717 l 986 717 q 976 676 976 708 q 978 652 976 676 q 981 588 979 628 q 985 495 982 547 q 989 389 988 443 q 992 283 990 335 q 993 190 993 231 q 987 82 993 133 q 968 -9 981 31 q 938 -72 956 -49 q 896 -94 919 -94 q 864 -82 883 -94 q 827 -51 844 -69 q 797 -12 810 -32 q 785 22 785 7 q 794 35 785 29 q 817 40 804 40 q 846 58 832 40 q 870 107 860 76 q 886 179 881 138 q 892 267 892 221 l 889 267 q 733 238 799 258 q 632 190 668 218 l 631 190 q 644 140 640 163 q 647 99 647 118 q 629 22 647 57 q 581 -39 611 -12 q 511 -80 551 -65 q 426 -94 471 -94 q 285 -58 350 -94 q 174 40 221 -22 q 99 186 126 103 q 72 363 72 269 q 97 389 72 389 q 119 382 107 389 q 142 363 131 375 q 160 333 153 350 q 168 296 168 315 q 157 262 168 279 q 146 231 146 244 m 1090 10 q 1100 26 1090 21 q 1121 31 1110 31 q 1153 42 1139 31 q 1176 75 1167 54 q 1191 123 1186 96 q 1196 181 1196 150 l 1196 717 l 1001 717 l 1001 806 l 1188 806 l 1188 838 q 1195 878 1188 864 q 1224 892 1203 892 q 1243 883 1232 892 q 1266 863 1254 875 q 1290 835 1278 850 q 1314 806 1303 819 l 1435 806 l 1435 717 l 1326 717 q 1301 685 1307 717 q 1294 608 1294 654 l 1294 90 q 1285 26 1294 56 q 1263 -27 1276 -4 q 1230 -63 1249 -50 q 1193 -76 1211 -76 q 1166 -67 1183 -76 q 1132 -44 1149 -57 q 1103 -16 1115 -31 q 1090 10 1090 -1 m 1176 803 l 1176 1056 l 1299 1056 l 1299 803 l 1176 803 z "},"ॵ":{"ha":1429,"x_min":72,"x_max":1446,"o":"m 146 231 q 163 149 146 188 q 212 80 179 110 q 291 32 244 50 q 397 14 338 14 q 453 22 426 14 q 499 49 479 31 q 530 98 518 68 q 542 171 542 128 q 523 258 542 215 q 474 326 504 301 l 471 326 q 418 290 451 303 q 353 276 385 276 q 326 288 342 276 q 297 317 311 300 q 274 354 283 335 q 264 389 264 374 q 288 427 264 411 q 342 443 313 443 q 425 432 404 443 l 428 432 q 536 537 501 482 q 571 635 571 592 q 542 700 571 674 q 472 726 513 726 q 416 718 440 726 q 360 693 392 710 q 306 652 318 672 q 290 617 293 632 q 285 594 288 603 q 261 585 282 585 q 236 599 249 585 q 213 634 224 614 q 197 677 203 654 q 190 717 190 700 q 215 753 190 735 q 276 788 239 772 q 356 812 313 803 q 435 821 399 821 q 513 800 476 821 q 575 744 549 779 q 616 661 601 708 q 631 563 631 614 q 599 462 631 511 q 519 365 568 413 l 579 303 l 582 303 q 713 349 653 335 q 828 363 772 363 l 888 303 l 892 303 q 890 387 892 329 q 885 508 888 444 q 880 629 882 571 q 878 717 878 688 l 851 717 q 827 712 840 717 q 800 702 814 707 q 773 692 786 697 q 750 688 760 688 q 724 695 738 688 q 698 717 710 703 q 679 748 686 731 q 672 786 672 765 q 701 821 672 821 q 727 819 711 821 q 760 813 743 817 q 792 808 776 810 q 817 806 807 806 l 874 806 q 889 874 874 844 q 928 903 904 903 q 962 872 944 903 q 1004 806 979 842 l 1143 806 l 1143 717 l 986 717 q 976 676 976 708 q 978 652 976 676 q 981 588 979 628 q 985 495 982 547 q 989 389 988 443 q 992 283 990 335 q 993 190 993 231 q 987 82 993 133 q 968 -9 981 31 q 938 -72 956 -49 q 896 -94 919 -94 q 864 -82 883 -94 q 827 -51 844 -69 q 797 -12 810 -32 q 785 22 785 7 q 794 35 785 29 q 817 40 804 40 q 846 58 832 40 q 870 107 860 76 q 886 179 881 138 q 892 267 892 221 l 889 267 q 733 238 799 258 q 632 190 668 218 l 631 190 q 644 140 640 163 q 647 99 647 118 q 629 22 647 57 q 581 -39 611 -12 q 511 -80 551 -65 q 426 -94 471 -94 q 285 -58 350 -94 q 174 40 221 -22 q 99 186 126 103 q 72 363 72 269 q 97 389 72 389 q 119 382 107 389 q 142 363 131 375 q 160 333 153 350 q 168 296 168 315 q 157 262 168 279 q 146 231 146 244 m 1090 10 q 1100 26 1090 21 q 1121 31 1110 31 q 1151 42 1138 31 q 1175 75 1165 54 q 1190 123 1185 96 q 1196 181 1196 150 l 1196 717 l 1000 717 l 1000 806 l 1154 806 q 1139 846 1147 824 q 1116 888 1131 868 q 1078 920 1101 907 q 1021 933 1056 933 l 917 933 q 808 937 860 933 q 716 952 756 940 q 653 988 676 964 q 629 1053 629 1011 q 644 1089 629 1076 q 678 1101 658 1101 q 713 1091 697 1101 q 728 1064 728 1081 q 741 1035 728 1046 q 776 1018 754 1024 q 829 1010 799 1013 q 894 1008 860 1008 q 959 1009 926 1008 q 1025 1010 992 1010 q 1108 990 1074 1010 q 1164 941 1142 971 q 1199 875 1186 911 q 1215 806 1211 839 l 1271 806 q 1259 902 1271 853 q 1226 992 1247 951 q 1174 1057 1204 1032 q 1106 1082 1143 1082 q 1049 1081 1078 1082 q 992 1081 1021 1081 q 899 1084 943 1081 q 819 1100 854 1088 q 763 1136 783 1113 q 742 1200 742 1160 q 755 1231 742 1217 q 788 1244 768 1244 q 825 1232 810 1244 q 840 1204 840 1219 q 851 1179 840 1189 q 881 1164 863 1169 q 924 1156 900 1158 q 976 1154 949 1154 q 1042 1156 1008 1154 q 1104 1157 1075 1157 q 1208 1128 1164 1157 q 1280 1051 1251 1100 q 1322 939 1308 1003 q 1336 806 1336 875 l 1446 806 l 1446 717 l 1322 717 q 1310 714 1315 717 q 1302 700 1306 711 q 1297 667 1299 689 q 1294 608 1294 646 l 1294 90 q 1285 26 1294 56 q 1263 -27 1276 -4 q 1230 -63 1249 -50 q 1193 -76 1211 -76 q 1165 -67 1182 -76 q 1131 -44 1147 -57 q 1102 -16 1114 -31 q 1090 10 1090 -1 z "},"ॶ":{"ha":1115,"x_min":72,"x_max":1143,"o":"m 146 231 q 163 149 146 188 q 212 80 179 110 q 291 32 244 50 q 397 14 338 14 q 453 22 426 14 q 499 49 479 31 q 530 98 518 68 q 542 171 542 128 q 523 258 542 215 q 474 326 504 301 l 471 326 q 418 290 451 303 q 353 276 385 276 q 326 288 342 276 q 297 317 311 300 q 274 354 283 335 q 264 389 264 374 q 288 427 264 411 q 342 443 313 443 q 425 432 404 443 l 428 432 q 536 537 501 482 q 571 635 571 592 q 542 700 571 674 q 472 726 513 726 q 416 718 440 726 q 360 693 392 710 q 306 652 318 672 q 290 617 293 632 q 285 594 288 603 q 261 585 282 585 q 236 599 249 585 q 213 634 224 614 q 197 677 203 654 q 190 717 190 700 q 215 753 190 735 q 276 788 239 772 q 356 812 313 803 q 435 821 399 821 q 513 800 476 821 q 575 744 549 779 q 616 661 601 708 q 631 563 631 614 q 599 462 631 511 q 519 365 568 413 l 579 303 l 582 303 q 713 349 653 335 q 828 363 772 363 l 888 303 l 892 303 q 890 387 892 329 q 885 508 888 444 q 880 629 882 571 q 878 717 878 688 l 851 717 q 827 712 840 717 q 800 702 814 707 q 773 692 786 697 q 750 688 760 688 q 724 695 738 688 q 698 717 710 703 q 679 748 686 731 q 672 786 672 765 q 701 821 672 821 q 727 819 711 821 q 760 813 743 817 q 792 808 776 810 q 817 806 807 806 l 874 806 q 889 874 874 844 q 928 903 904 903 q 962 872 944 903 q 1004 806 979 842 l 1143 806 l 1143 717 l 986 717 q 976 676 976 708 q 978 652 976 676 q 981 588 979 628 q 985 495 982 547 q 989 389 988 443 q 992 283 990 335 q 993 190 993 231 q 987 82 993 133 q 968 -9 981 31 q 938 -72 956 -49 q 896 -94 919 -94 q 864 -82 883 -94 q 827 -51 844 -69 q 797 -12 810 -32 q 785 22 785 7 q 794 35 785 29 q 817 40 804 40 q 846 58 832 40 q 870 107 860 76 q 886 179 881 138 q 892 267 892 221 l 889 267 q 733 238 799 258 q 632 190 668 218 l 631 190 q 644 140 640 163 q 647 99 647 118 q 629 22 647 57 q 581 -39 611 -12 q 511 -80 551 -65 q 426 -94 471 -94 q 285 -58 350 -94 q 174 40 221 -22 q 99 186 126 103 q 72 363 72 269 q 97 389 72 389 q 119 382 107 389 q 142 363 131 375 q 160 333 153 350 q 168 296 168 315 q 157 262 168 279 q 146 231 146 244 m 822 -126 q 861 -140 843 -126 q 879 -178 879 -154 q 853 -249 879 -215 q 784 -308 828 -282 q 682 -348 740 -333 q 560 -362 624 -362 q 433 -348 493 -362 q 329 -308 374 -333 q 258 -249 285 -282 q 232 -178 232 -215 q 247 -142 232 -156 q 285 -128 263 -128 q 326 -142 308 -128 q 343 -178 343 -156 q 361 -215 343 -199 q 409 -244 379 -232 q 478 -262 439 -256 q 560 -268 517 -268 q 663 -258 625 -268 q 721 -231 700 -247 q 751 -197 742 -215 q 767 -163 760 -179 q 786 -137 775 -147 q 822 -126 797 -126 m 822 -353 q 861 -366 843 -353 q 879 -403 879 -379 q 853 -473 879 -440 q 784 -529 828 -506 q 682 -567 740 -553 q 560 -581 624 -581 q 435 -567 494 -581 q 330 -528 375 -553 q 258 -472 285 -504 q 232 -403 232 -440 q 247 -370 232 -383 q 285 -357 263 -357 q 326 -370 308 -357 q 343 -403 343 -383 q 361 -436 343 -419 q 409 -466 379 -453 q 478 -487 439 -479 q 560 -494 517 -494 q 663 -484 625 -494 q 721 -458 700 -474 q 751 -424 742 -442 q 767 -390 760 -406 q 786 -363 775 -374 q 822 -353 797 -353 z "},"ॷ":{"ha":1115,"x_min":72,"x_max":1143,"o":"m 146 231 q 163 149 146 188 q 212 80 179 110 q 291 32 244 50 q 397 14 338 14 q 453 22 426 14 q 499 49 479 31 q 530 98 518 68 q 542 171 542 128 q 523 258 542 215 q 474 326 504 301 l 471 326 q 418 290 451 303 q 353 276 385 276 q 326 288 342 276 q 297 317 311 300 q 274 354 283 335 q 264 389 264 374 q 288 427 264 411 q 342 443 313 443 q 425 432 404 443 l 428 432 q 536 537 501 482 q 571 635 571 592 q 542 700 571 674 q 472 726 513 726 q 416 718 440 726 q 360 693 392 710 q 306 652 318 672 q 290 617 293 632 q 285 594 288 603 q 261 585 282 585 q 236 599 249 585 q 213 634 224 614 q 197 677 203 654 q 190 717 190 700 q 215 753 190 735 q 276 788 239 772 q 356 812 313 803 q 435 821 399 821 q 513 800 476 821 q 575 744 549 779 q 616 661 601 708 q 631 563 631 614 q 599 462 631 511 q 519 365 568 413 l 579 303 l 582 303 q 713 349 653 335 q 828 363 772 363 l 888 303 l 892 303 q 890 387 892 329 q 885 508 888 444 q 880 629 882 571 q 878 717 878 688 l 851 717 q 827 712 840 717 q 800 702 814 707 q 773 692 786 697 q 750 688 760 688 q 724 695 738 688 q 698 717 710 703 q 679 748 686 731 q 672 786 672 765 q 701 821 672 821 q 727 819 711 821 q 760 813 743 817 q 792 808 776 810 q 817 806 807 806 l 874 806 q 889 874 874 844 q 928 903 904 903 q 962 872 944 903 q 1004 806 979 842 l 1143 806 l 1143 717 l 986 717 q 976 676 976 708 q 978 652 976 676 q 981 588 979 628 q 985 495 982 547 q 989 389 988 443 q 992 283 990 335 q 993 190 993 231 q 987 82 993 133 q 968 -9 981 31 q 938 -72 956 -49 q 896 -94 919 -94 q 864 -82 883 -94 q 827 -51 844 -69 q 797 -12 810 -32 q 785 22 785 7 q 794 35 785 29 q 817 40 804 40 q 846 58 832 40 q 870 107 860 76 q 886 179 881 138 q 892 267 892 221 l 889 267 q 733 238 799 258 q 632 190 668 218 l 631 190 q 644 140 640 163 q 647 99 647 118 q 629 22 647 57 q 581 -39 611 -12 q 511 -80 551 -65 q 426 -94 471 -94 q 285 -58 350 -94 q 174 40 221 -22 q 99 186 126 103 q 72 363 72 269 q 97 389 72 389 q 119 382 107 389 q 142 363 131 375 q 160 333 153 350 q 168 296 168 315 q 157 262 168 279 q 146 231 146 244 m 799 -218 q 838 -232 821 -218 q 856 -269 856 -246 q 830 -356 856 -315 q 760 -426 804 -396 q 658 -473 717 -456 q 536 -490 600 -490 q 410 -473 469 -490 q 306 -426 350 -456 q 235 -356 261 -396 q 208 -269 208 -315 q 224 -236 208 -250 q 261 -222 239 -222 q 302 -236 285 -222 q 319 -269 319 -250 q 338 -318 319 -296 q 385 -356 356 -340 q 454 -380 415 -371 q 536 -389 493 -389 q 632 -376 596 -389 q 689 -344 668 -364 q 720 -303 710 -325 q 740 -262 731 -282 q 761 -231 749 -243 q 799 -218 774 -218 z "},"◌":{"ha":1025,"x_min":122,"x_max":892,"o":"m 506 683 q 472 700 485 683 q 458 740 458 717 q 472 785 458 768 q 506 801 486 801 q 544 781 525 801 q 563 740 563 761 q 545 703 563 722 q 506 683 528 683 m 675 632 q 640 649 656 632 q 624 692 624 667 q 638 729 624 711 q 675 747 651 747 q 712 729 696 747 q 728 692 728 711 q 710 649 728 667 q 675 632 692 632 m 346 632 q 310 647 329 632 q 292 692 292 661 q 308 731 292 715 q 346 747 325 747 q 378 729 363 747 q 393 692 393 711 q 376 649 393 667 q 346 632 358 632 m 746 551 q 758 588 746 568 q 793 607 769 607 q 833 588 817 607 q 850 551 850 568 q 833 510 850 529 q 793 492 817 492 q 758 511 771 492 q 746 551 746 531 m 219 492 q 182 512 196 492 q 168 551 168 532 q 182 587 168 567 q 219 607 196 607 q 238 601 229 607 q 255 588 247 596 q 267 569 263 579 q 272 551 272 560 q 256 512 272 532 q 219 492 239 492 m 788 360 q 801 399 788 379 q 843 419 815 419 q 879 399 867 419 q 892 360 892 379 q 878 317 892 336 q 843 299 865 299 q 803 317 819 299 q 788 360 788 336 m 174 299 q 140 317 157 299 q 122 360 122 336 q 138 400 122 381 q 174 419 154 419 q 210 401 197 419 q 222 360 222 383 q 208 315 222 332 q 174 299 193 299 m 746 169 q 759 210 746 190 q 793 229 772 229 q 833 210 817 229 q 850 169 850 190 q 831 127 850 143 q 793 111 813 111 q 760 128 775 111 q 746 169 746 144 m 168 169 q 183 209 168 189 q 219 229 197 229 q 255 209 238 229 q 272 169 272 189 q 253 128 272 146 q 219 111 235 111 q 184 128 200 111 q 168 169 168 146 m 624 32 q 638 72 624 54 q 675 90 653 90 q 711 72 694 90 q 728 32 728 54 q 713 -10 728 8 q 675 -29 697 -29 q 637 -10 650 -29 q 624 32 624 10 m 292 32 q 309 74 292 58 q 346 90 326 90 q 377 72 361 90 q 393 32 393 54 q 379 -10 393 10 q 346 -29 365 -29 q 307 -12 322 -29 q 292 32 292 6 m 458 -21 q 474 22 458 7 q 506 38 490 38 q 522 32 513 38 q 541 18 532 26 q 556 -1 550 10 q 563 -21 563 -11 q 557 -41 563 -31 q 543 -60 551 -51 q 524 -75 535 -69 q 506 -81 514 -81 q 474 -65 489 -81 q 458 -21 458 -49 z "},"‌":{"ha":247,"x_min":86,"x_max":135,"o":"m 86 1163 l 135 1163 l 135 -454 l 86 -454 l 86 1163 z "},"‍":{"ha":247,"x_min":86,"x_max":363,"o":"m 86 1163 l 363 1163 l 363 1117 l 135 1117 l 135 -454 l 86 -454 l 86 1163 z "},"!":{"ha":300,"x_min":85,"x_max":226,"o":"m 154 315 q 126 335 133 315 q 118 378 118 354 l 131 565 q 135 632 133 597 q 136 693 136 667 l 125 851 q 140 915 126 890 q 178 939 154 939 q 226 865 226 939 q 224 806 226 846 q 217 713 221 767 q 208 590 213 658 q 199 447 203 522 q 195 410 197 432 q 188 367 193 388 q 175 331 183 346 q 154 315 167 315 m 85 68 q 101 132 85 110 q 146 154 118 154 q 182 125 176 154 q 188 60 188 96 q 185 37 188 50 q 176 11 182 24 q 159 -10 169 -1 q 132 -18 149 -18 q 91 4 97 -18 q 85 68 85 26 z "},"\"":{"ha":494,"x_min":83,"x_max":422,"o":"m 147 436 q 110 450 124 436 q 89 500 96 464 q 85 534 88 507 q 83 632 83 561 q 85 702 83 657 q 92 791 86 747 q 113 867 99 835 q 156 900 128 900 q 183 881 178 900 q 188 835 188 861 q 179 751 185 799 q 174 658 174 704 q 182 579 174 622 q 190 504 190 536 q 176 453 190 471 q 147 436 163 436 m 379 436 q 342 450 356 436 q 321 500 328 464 q 317 534 319 507 q 315 632 315 561 q 317 702 315 657 q 324 791 318 747 q 345 867 331 835 q 388 900 360 900 q 415 881 410 900 q 419 835 419 861 q 411 751 417 799 q 406 658 406 704 q 414 579 406 622 q 422 504 422 536 q 408 453 422 471 q 379 436 394 436 z "},"#":{"ha":797,"x_min":54,"x_max":699,"o":"m 156 219 q 133 222 144 219 q 111 230 121 224 q 95 249 101 236 q 89 282 89 261 q 92 302 89 290 q 102 324 96 314 q 117 342 108 335 q 136 350 125 350 q 171 344 161 350 l 253 349 q 253 396 253 372 q 253 447 254 419 l 128 447 q 113 450 125 447 q 88 460 101 453 q 65 478 75 467 q 54 510 54 490 q 73 558 54 543 q 108 572 92 572 l 251 572 q 251 586 251 575 q 250 640 250 597 q 251 676 250 658 q 258 709 253 694 q 273 733 263 724 q 300 742 283 742 q 320 732 313 742 q 332 706 328 722 q 338 668 336 689 q 339 625 339 647 l 339 582 q 376 583 361 582 q 403 587 390 585 q 429 591 415 589 q 464 594 443 593 l 472 594 l 469 758 q 475 821 469 794 q 507 847 481 847 q 542 817 535 847 q 550 742 550 788 l 553 606 q 610 615 588 608 q 651 622 632 622 q 683 603 672 622 q 693 556 693 583 q 678 506 693 528 q 638 485 664 485 q 614 492 626 488 q 586 496 601 496 l 557 496 l 557 383 q 584 385 572 385 q 603 385 596 385 q 681 372 663 385 q 699 321 699 360 q 684 267 699 285 q 644 249 669 249 q 606 253 622 249 q 563 258 590 258 q 564 238 564 251 q 564 192 564 224 q 566 172 565 182 q 567 151 567 161 q 553 112 565 128 q 526 96 540 96 q 501 105 511 96 q 486 128 492 114 q 479 162 481 143 q 478 200 478 181 q 478 230 478 215 q 479 258 479 244 l 339 244 q 342 201 340 225 q 343 157 343 178 q 349 128 343 143 q 354 89 354 113 q 344 40 354 57 q 311 24 335 24 q 278 36 289 24 q 262 69 267 49 q 256 117 257 90 q 256 169 256 143 l 256 224 q 193 220 217 221 q 156 219 169 219 m 479 369 q 478 426 479 394 q 476 483 476 458 l 468 483 q 406 478 436 482 q 336 468 375 475 q 335 419 336 449 q 335 369 335 389 l 335 353 l 479 369 z "},"%":{"ha":972,"x_min":124,"x_max":868,"o":"m 281 460 q 162 512 200 460 q 124 651 124 564 q 134 713 124 678 q 163 781 144 749 q 210 834 182 813 q 274 856 238 856 q 317 851 289 856 q 374 832 346 847 q 422 786 401 817 q 443 704 443 756 q 431 621 443 664 q 399 542 419 578 q 348 483 378 507 q 281 460 318 460 m 163 -12 q 183 18 163 -17 q 240 113 204 53 q 322 250 275 172 q 419 410 368 328 q 523 570 471 492 q 621 710 575 649 q 704 810 667 772 q 764 849 742 849 q 797 797 797 849 q 794 772 796 789 q 782 744 792 756 q 628 542 699 640 q 495 348 557 443 q 377 159 433 253 q 265 -29 321 65 q 242 -67 256 -46 q 206 -89 229 -89 q 183 -81 192 -89 q 170 -60 175 -72 q 164 -34 165 -47 q 163 -12 163 -21 m 288 575 q 310 588 299 575 q 331 619 321 600 q 346 658 340 638 q 351 694 351 679 q 342 717 351 707 q 319 733 332 726 q 292 744 306 740 q 269 747 278 747 q 251 738 261 747 q 234 714 242 728 q 221 683 226 700 q 215 651 215 665 q 235 594 215 614 q 288 575 254 575 m 549 192 q 559 253 549 218 q 588 321 569 289 q 635 374 607 353 q 699 396 663 396 q 742 392 714 396 q 799 372 771 388 q 847 326 826 357 q 868 244 868 296 q 856 161 868 204 q 824 83 844 118 q 773 24 803 47 q 706 0 743 0 q 587 52 625 0 q 549 192 549 104 m 640 192 q 660 135 640 154 q 713 115 679 115 q 735 128 724 115 q 756 159 746 140 q 771 199 765 178 q 776 235 776 219 q 767 257 776 247 q 744 274 757 267 q 717 284 731 281 q 694 288 703 288 q 676 278 686 288 q 659 254 667 268 q 646 223 651 240 q 640 192 640 206 z "},"&":{"ha":611,"x_min":92,"x_max":542,"o":"m 92 150 q 107 264 92 208 q 144 368 122 319 q 162 401 153 388 q 171 429 171 414 q 166 462 171 446 q 161 494 161 478 q 167 542 161 518 q 184 586 172 567 q 213 618 196 606 q 250 631 229 631 q 290 608 279 631 q 300 544 300 585 q 291 492 300 517 q 267 422 282 467 q 281 369 269 403 q 306 302 292 336 q 335 238 321 268 q 360 194 350 208 l 422 263 q 442 295 435 274 q 455 339 449 317 q 470 377 461 361 q 496 393 479 393 q 534 372 526 393 q 542 324 542 351 q 529 265 542 293 q 499 211 517 236 q 460 164 481 186 q 425 124 440 142 q 455 84 438 106 q 472 28 472 63 q 457 -7 472 3 q 425 -17 442 -17 q 410 -11 419 -17 q 392 4 400 -6 l 344 56 q 326 44 342 54 q 290 24 311 35 q 245 6 269 14 q 201 -3 221 -3 q 144 10 165 -3 q 110 46 122 24 q 95 95 99 68 q 92 150 92 122 m 176 168 q 188 133 176 146 q 214 119 199 119 q 227 122 218 119 q 247 127 236 124 q 271 135 258 131 q 292 144 283 140 q 272 182 282 160 q 250 228 261 204 q 227 274 239 251 q 206 311 215 296 q 185 238 194 274 q 176 168 176 201 z "},"'":{"ha":274,"x_min":83,"x_max":190,"o":"m 147 436 q 110 450 124 436 q 89 500 96 464 q 85 534 88 507 q 83 632 83 561 q 85 702 83 657 q 92 791 86 747 q 113 867 99 835 q 156 900 128 900 q 183 881 178 900 q 188 835 188 861 q 179 751 185 799 q 174 658 174 704 q 182 579 174 622 q 190 504 190 536 q 176 453 190 471 q 147 436 163 436 z "},"(":{"ha":340,"x_min":36,"x_max":286,"o":"m 153 -15 q 115 50 135 13 q 76 131 94 88 q 47 219 58 174 q 36 306 36 264 q 47 441 36 372 q 78 573 58 510 q 126 691 97 636 q 188 785 154 746 q 207 803 197 794 q 223 816 215 810 q 238 822 231 822 q 272 812 257 822 q 286 775 286 801 q 279 738 286 756 q 262 704 272 719 q 240 675 251 689 q 221 649 229 661 q 187 574 201 619 q 161 480 172 529 q 144 385 150 431 q 139 310 139 339 q 147 239 139 276 q 170 166 156 201 q 204 101 185 131 q 244 54 224 72 q 273 18 263 39 q 283 -39 283 -3 q 263 -87 283 -75 q 221 -100 242 -100 q 204 -93 213 -100 q 190 -77 196 -86 q 178 -58 183 -68 q 169 -42 174 -49 l 153 -15 l 153 -15 z "},")":{"ha":354,"x_min":60,"x_max":303,"o":"m 60 -33 q 75 15 60 -6 q 107 53 90 36 q 147 106 128 74 q 181 174 165 138 q 205 249 196 211 q 214 321 214 288 q 210 396 214 351 q 199 488 207 440 q 177 578 190 535 q 146 649 164 621 q 127 676 138 661 q 108 707 117 692 q 92 737 99 722 q 85 763 85 751 q 99 810 85 799 q 132 822 113 822 q 146 818 139 822 q 160 810 153 814 q 175 799 167 804 q 234 701 210 756 q 274 586 258 647 q 296 460 289 525 q 303 332 303 396 q 294 231 303 282 q 269 132 285 179 q 231 44 253 85 q 185 -25 210 4 l 175 -37 q 143 -75 158 -57 q 115 -93 128 -93 q 78 -76 96 -93 q 60 -33 60 -60 z "},"*":{"ha":713,"x_min":89,"x_max":632,"o":"m 292 201 q 249 221 268 201 q 231 276 231 240 q 238 307 231 285 q 255 355 246 329 q 274 404 264 381 q 288 438 283 428 l 165 367 q 155 363 160 364 q 147 361 150 361 q 106 383 124 361 q 89 428 89 406 q 100 469 89 457 q 125 488 111 482 q 178 508 157 500 q 211 521 199 517 q 231 528 224 525 q 243 533 238 531 l 128 586 q 107 607 113 592 q 101 642 101 622 q 120 695 101 682 q 154 708 139 708 q 195 695 175 708 q 237 665 215 682 q 282 631 258 647 q 333 608 306 614 q 353 681 340 633 q 380 778 365 729 q 412 863 394 826 q 447 899 429 899 q 476 885 460 899 q 493 849 493 872 q 484 807 493 836 q 463 744 475 778 q 440 677 451 710 q 422 624 428 644 q 464 654 440 638 q 511 685 488 671 q 555 710 535 700 q 586 719 575 719 q 613 706 594 719 q 632 656 632 693 q 626 628 632 639 q 613 610 621 617 q 596 598 604 603 q 582 592 588 593 l 486 547 q 494 544 488 546 q 508 539 501 542 q 522 534 515 536 q 533 532 529 532 q 547 534 539 532 q 561 536 554 536 q 578 528 571 536 q 590 508 585 519 q 597 484 594 497 q 599 461 599 471 q 587 409 599 433 q 553 385 575 385 q 526 393 543 385 q 487 413 508 401 q 440 438 465 425 q 390 457 415 450 q 386 458 388 457 q 381 460 385 460 q 363 386 374 431 q 340 301 353 342 q 315 231 328 260 q 292 201 303 201 z "},"+":{"ha":624,"x_min":90,"x_max":533,"o":"m 263 139 q 267 207 263 172 q 272 278 271 242 l 125 278 q 99 294 108 278 q 90 333 90 311 q 114 396 90 381 q 163 411 138 411 l 275 403 q 274 434 275 418 q 274 467 274 450 q 276 515 274 492 q 284 558 278 539 q 303 588 290 576 q 338 599 317 599 q 365 583 361 599 q 368 542 368 568 q 365 504 367 522 q 363 471 364 489 q 363 440 363 453 q 363 428 363 439 q 365 410 364 418 q 422 410 397 410 q 458 417 447 411 q 476 426 465 421 q 493 431 486 431 q 526 408 518 431 q 533 364 533 385 l 533 353 q 527 315 533 329 q 510 294 521 301 q 488 285 500 288 q 464 283 476 283 q 438 285 456 283 q 400 288 419 288 q 373 285 385 288 q 360 272 361 282 l 364 157 q 360 111 364 128 q 348 86 356 94 q 331 76 340 78 q 310 75 321 75 q 276 87 290 75 q 263 139 263 99 z "},",":{"ha":264,"x_min":-29,"x_max":193,"o":"m 33 46 q 49 87 42 63 q 66 133 57 111 q 89 171 75 156 q 126 186 103 186 q 173 164 153 186 q 193 115 193 142 q 189 81 193 96 q 177 52 185 65 q 160 26 169 39 q 142 -1 151 14 q 110 -55 128 -22 q 76 -117 93 -87 q 43 -169 58 -147 q 18 -190 28 -190 q -3 -183 6 -190 q -18 -164 -12 -175 q -26 -140 -24 -153 q -29 -115 -29 -126 q -22 -78 -29 -101 q -3 -30 -14 -54 q 18 15 7 -6 q 33 46 29 36 z "},"-":{"ha":475,"x_min":64,"x_max":407,"o":"m 114 321 q 97 323 106 321 q 80 332 88 325 q 68 351 72 339 q 64 386 64 364 q 76 428 64 414 q 108 443 89 443 q 121 440 115 443 q 138 438 126 438 q 249 440 193 438 q 364 443 306 443 q 395 425 383 443 q 407 376 407 407 q 400 348 407 360 q 383 330 393 336 q 364 321 374 324 q 349 318 354 318 q 286 324 317 318 q 221 329 256 329 q 170 325 196 329 q 114 321 144 321 z "},".":{"ha":231,"x_min":51,"x_max":171,"o":"m 51 74 q 66 135 51 110 q 113 161 81 161 q 134 153 124 161 q 153 131 144 144 q 166 103 161 118 q 171 74 171 88 q 151 15 171 42 q 110 -11 132 -11 q 65 10 78 -11 q 51 74 51 31 z "},"/":{"ha":396,"x_min":19,"x_max":365,"o":"m 19 -51 q 77 171 46 50 q 142 413 108 292 q 210 650 176 535 q 274 857 243 765 q 282 878 276 867 q 294 899 288 889 q 309 917 301 910 q 324 924 317 924 q 354 908 343 924 q 365 861 365 893 q 360 839 365 850 q 313 697 336 772 q 262 520 289 622 q 200 281 235 418 q 119 -46 165 144 q 107 -94 119 -71 q 82 -117 94 -117 q 63 -114 74 -117 q 43 -103 53 -111 q 26 -83 33 -96 q 19 -51 19 -71 z "},":":{"ha":231,"x_min":51,"x_max":175,"o":"m 126 394 q 74 414 92 394 q 56 490 56 433 q 64 522 56 507 q 85 549 72 538 q 112 568 97 561 q 138 575 126 575 q 160 551 144 575 q 175 483 175 526 q 160 417 175 439 q 126 394 146 394 m 51 74 q 66 135 51 110 q 113 161 81 161 q 134 153 124 161 q 153 131 144 144 q 166 103 161 118 q 171 74 171 88 q 151 15 171 42 q 110 -11 132 -11 q 65 10 78 -11 q 51 74 51 31 z "},";":{"ha":221,"x_min":-29,"x_max":193,"o":"m 126 394 q 74 414 92 394 q 56 490 56 433 q 64 522 56 507 q 85 549 72 538 q 112 568 97 561 q 138 575 126 575 q 160 551 144 575 q 175 483 175 526 q 160 417 175 439 q 126 394 146 394 m 33 46 q 49 87 42 63 q 66 133 57 111 q 89 171 75 156 q 126 186 103 186 q 173 164 153 186 q 193 115 193 142 q 189 81 193 96 q 177 52 185 65 q 160 26 169 39 q 142 -1 151 14 q 110 -55 128 -22 q 76 -117 93 -87 q 43 -169 58 -147 q 18 -190 28 -190 q -3 -183 6 -190 q -18 -164 -12 -175 q -26 -140 -24 -153 q -29 -115 -29 -126 q -22 -78 -29 -101 q -3 -30 -14 -54 q 18 15 7 -6 q 33 46 29 36 z "},"<":{"ha":543,"x_min":64,"x_max":469,"o":"m 107 206 q 76 226 88 213 q 64 275 64 240 q 76 319 64 299 q 104 354 89 339 q 189 419 147 388 q 265 477 225 447 q 340 528 306 507 q 376 551 364 540 q 396 568 389 561 q 406 579 403 575 q 413 583 408 583 q 465 511 465 583 q 456 468 465 486 q 417 429 446 450 q 338 378 389 408 q 206 300 286 349 q 329 237 271 272 q 450 168 388 201 q 459 153 456 164 q 465 132 463 143 q 468 111 467 121 q 469 99 469 101 q 456 63 469 76 q 422 50 442 50 q 403 57 413 50 q 349 95 385 74 q 272 138 314 117 q 185 177 229 158 q 107 206 142 196 z "},"=":{"ha":524,"x_min":90,"x_max":433,"o":"m 140 450 q 123 452 132 450 q 106 461 114 454 q 94 481 99 468 q 90 515 90 493 q 103 558 90 543 q 135 572 115 572 q 147 569 142 572 q 164 567 153 567 q 276 569 219 567 q 390 572 332 572 q 422 554 410 572 q 433 506 433 536 q 426 477 433 489 q 410 459 419 465 q 390 450 400 453 q 375 447 381 447 q 313 453 343 447 q 247 458 282 458 q 197 454 222 458 q 140 450 171 450 m 140 182 q 123 184 132 182 q 106 193 114 186 q 94 213 99 200 q 90 247 90 225 q 103 290 90 275 q 135 304 115 304 q 147 301 142 304 q 164 299 153 299 q 276 301 219 299 q 390 304 332 304 q 422 286 410 304 q 433 238 433 268 q 426 209 433 221 q 410 191 419 197 q 390 182 400 185 q 375 179 381 179 q 313 185 343 179 q 247 190 282 190 q 197 186 222 190 q 140 182 171 182 z "},">":{"ha":543,"x_min":64,"x_max":469,"o":"m 426 428 q 458 407 446 421 q 469 358 469 393 q 457 315 469 335 q 429 279 444 294 q 344 214 386 246 q 268 156 308 186 q 193 106 228 126 q 157 83 169 93 q 138 65 144 72 q 128 54 131 58 q 121 50 125 50 q 68 122 68 50 q 78 165 68 147 q 116 204 88 183 q 196 255 144 225 q 328 333 247 285 q 204 397 263 361 q 83 465 146 432 q 74 480 78 469 q 69 501 71 490 q 65 522 67 513 q 64 535 64 532 q 78 570 64 557 q 111 583 92 583 q 131 576 121 583 q 184 538 149 560 q 262 496 219 517 q 348 456 304 475 q 426 428 392 438 z "},"@":{"ha":1113,"x_min":111,"x_max":1001,"o":"m 111 190 q 154 428 111 319 q 269 617 197 538 q 433 742 340 697 q 626 786 526 786 q 769 759 701 786 q 889 676 838 732 q 971 538 940 621 q 1001 343 1001 456 q 992 218 1001 281 q 963 105 983 156 q 906 22 942 54 q 815 -10 869 -10 q 738 10 779 -10 q 656 85 696 31 q 585 10 621 32 q 531 -11 550 -11 q 419 45 456 -11 q 383 189 383 101 q 399 299 383 242 q 442 404 415 357 q 506 482 469 451 q 585 513 543 513 q 660 486 628 513 q 713 416 692 460 q 745 317 735 372 q 756 203 756 261 l 742 94 q 767 84 751 86 q 800 82 782 82 l 836 82 q 888 106 869 82 q 917 169 907 131 q 929 253 926 207 q 932 343 932 299 q 908 475 932 415 q 843 577 885 535 q 744 643 801 619 q 618 667 686 667 q 453 633 532 667 q 312 538 374 600 q 213 386 250 475 q 176 186 176 297 q 203 13 176 83 q 285 -100 231 -57 q 421 -162 339 -143 q 614 -181 503 -181 q 702 -172 661 -181 q 777 -153 743 -164 q 838 -135 811 -143 q 883 -126 864 -126 q 888 -127 881 -126 q 906 -132 896 -128 q 925 -146 917 -136 q 933 -174 933 -156 q 915 -205 933 -190 q 868 -231 897 -219 q 801 -252 839 -243 q 727 -267 764 -261 q 656 -276 690 -274 q 599 -279 622 -279 q 488 -274 544 -279 q 376 -251 431 -268 q 274 -201 322 -233 q 189 -117 225 -169 q 132 10 153 -65 q 111 190 111 85 m 464 179 q 467 156 464 168 q 477 134 469 144 q 499 117 485 124 q 536 110 513 110 q 608 137 579 110 q 654 199 638 164 q 678 269 671 235 q 685 321 685 304 q 676 351 685 338 q 653 375 667 365 q 622 390 639 385 q 589 394 604 394 q 533 373 556 394 q 494 319 510 351 q 472 250 479 288 q 464 179 464 213 z "},"A":{"ha":758,"x_min":56,"x_max":699,"o":"m 56 43 q 62 88 56 67 q 78 128 68 110 q 101 197 89 158 q 132 286 114 236 q 131 296 131 290 q 131 304 131 301 q 138 351 131 332 q 167 383 144 369 l 288 667 q 306 704 296 683 q 326 742 315 725 q 350 772 338 760 q 376 785 363 785 q 447 741 415 785 q 506 631 479 697 q 556 483 533 564 q 597 330 578 403 q 631 201 615 257 q 663 128 647 146 q 679 108 672 115 q 690 92 686 100 q 697 74 694 85 q 699 47 699 64 q 692 13 699 25 q 676 -5 685 1 q 656 -12 667 -11 q 639 -14 646 -14 q 613 2 625 -14 q 590 40 600 18 q 572 88 579 63 q 560 131 564 113 q 541 194 549 169 q 526 233 533 219 q 508 253 518 247 q 479 258 497 258 l 246 258 q 230 257 236 258 q 219 249 224 256 q 210 232 214 243 q 199 201 206 221 l 156 78 q 146 33 153 50 q 130 8 139 17 q 113 -5 121 -1 q 101 -8 104 -8 q 67 2 79 -8 q 56 43 56 13 m 265 388 q 338 385 306 386 q 406 385 369 385 q 440 385 422 385 q 479 386 458 385 q 455 451 469 414 q 422 525 440 488 l 371 635 q 350 601 364 631 q 320 533 336 572 q 289 454 304 494 q 265 388 274 414 z "},"B":{"ha":658,"x_min":92,"x_max":597,"o":"m 92 54 q 92 73 92 60 q 94 131 93 86 q 97 264 96 175 q 100 511 99 353 q 102 583 100 544 q 110 657 104 622 q 128 717 117 692 q 156 749 139 743 q 257 772 204 764 q 350 779 310 779 q 392 771 369 779 q 435 747 415 763 q 469 709 456 732 q 482 657 482 686 q 469 581 482 613 q 442 528 456 549 q 554 447 511 501 q 597 304 597 392 q 567 166 597 224 q 485 71 536 108 q 368 15 435 33 q 229 -3 301 -3 q 219 -1 224 -3 q 206 0 214 0 q 186 -6 196 0 q 165 -12 176 -12 q 143 -8 156 -12 q 119 4 131 -4 q 99 25 107 13 q 92 54 92 38 m 189 522 q 201 523 194 522 q 223 527 208 524 q 263 539 238 531 q 331 563 288 547 q 351 576 340 568 q 372 595 363 585 q 389 616 382 606 q 396 638 396 626 q 374 654 396 649 q 314 660 351 660 q 284 658 304 660 q 244 651 264 656 q 208 640 224 647 q 193 622 193 633 l 189 522 m 193 125 q 297 133 240 129 q 401 155 353 138 q 481 208 449 172 q 513 313 513 244 q 497 364 513 342 q 455 401 481 386 q 397 424 429 417 q 335 432 365 432 q 305 426 319 432 q 274 411 290 419 q 236 395 257 403 q 189 385 215 388 q 188 353 189 374 q 188 322 188 333 l 188 267 q 188 196 188 231 q 193 125 189 161 z "},"C":{"ha":686,"x_min":68,"x_max":646,"o":"m 68 292 q 83 421 68 358 q 121 546 99 483 q 158 623 133 582 q 218 699 183 664 q 294 758 253 735 q 379 782 335 782 q 457 768 418 782 q 526 727 496 754 q 574 659 556 700 q 593 565 593 618 q 590 537 593 553 q 580 506 586 521 q 563 482 574 492 q 538 472 551 472 q 512 486 518 472 q 504 522 506 500 q 501 567 503 543 q 488 613 499 592 q 452 649 476 635 q 381 663 428 663 q 310 642 342 663 q 253 588 278 621 q 211 515 229 556 q 182 433 193 474 q 165 354 171 392 q 160 293 160 317 q 177 215 160 249 q 223 158 194 182 q 287 123 251 135 q 360 111 322 111 q 403 113 378 111 q 454 118 428 114 q 506 128 481 122 q 550 142 531 133 q 583 171 572 161 q 601 181 594 181 q 633 163 621 181 q 646 117 646 144 q 617 56 646 81 q 547 17 589 32 q 457 -3 506 3 q 369 -10 408 -10 q 262 3 315 -10 q 165 49 208 15 q 95 141 122 82 q 68 292 68 200 z "},"D":{"ha":717,"x_min":90,"x_max":679,"o":"m 146 -11 q 118 5 129 -11 q 101 45 107 21 q 92 97 94 69 q 90 144 90 124 l 100 669 q 109 726 100 704 q 132 758 118 747 q 162 774 146 769 q 193 778 178 778 l 286 778 q 413 749 344 778 q 541 665 482 719 q 640 534 600 611 q 679 363 679 457 q 639 199 679 268 q 540 84 599 129 q 412 17 481 39 q 286 -4 343 -4 q 236 -3 268 -4 q 182 3 204 -1 q 159 -7 169 -3 q 146 -11 149 -11 m 197 125 q 210 122 200 122 q 233 121 221 121 l 308 121 q 399 133 350 121 q 488 172 447 146 q 556 241 529 199 q 583 344 583 283 q 558 469 583 411 q 492 569 532 526 q 401 638 451 613 q 299 663 350 663 q 276 663 290 663 q 247 662 263 663 q 217 660 232 661 q 193 657 203 658 q 185 594 188 628 q 183 531 183 561 l 183 422 q 184 346 183 386 q 186 266 185 306 q 190 190 188 226 q 197 125 193 153 z "},"E":{"ha":631,"x_min":97,"x_max":614,"o":"m 104 357 q 101 379 104 368 q 97 404 97 390 q 99 419 97 410 q 106 440 101 429 q 103 532 104 468 q 103 669 103 596 q 103 708 103 688 q 109 744 104 728 q 124 772 114 761 q 153 783 133 783 q 192 778 174 783 q 233 772 211 772 q 304 773 264 772 q 387 774 344 774 q 469 774 429 774 q 540 775 510 775 q 598 767 582 775 q 614 718 614 758 q 601 672 614 694 q 571 649 589 649 q 412 649 478 649 q 301 651 346 650 q 229 652 256 651 q 188 653 203 653 q 187 613 188 638 q 186 560 186 588 q 185 508 186 533 q 185 467 185 483 l 424 469 q 457 455 443 469 q 471 406 471 440 q 469 390 471 400 q 462 369 467 379 q 449 351 457 358 q 429 343 440 343 q 339 343 376 343 q 276 344 301 343 q 234 344 250 344 q 208 344 218 344 q 186 343 190 344 l 190 138 q 360 133 274 138 q 538 128 446 128 q 573 104 565 128 q 581 53 581 81 q 560 0 581 14 q 513 -14 539 -14 q 465 -12 486 -14 q 421 -8 444 -10 q 364 -3 397 -6 q 279 -1 331 -1 q 219 -5 250 -1 q 154 -8 189 -8 q 115 15 131 -8 q 100 74 99 38 l 104 357 z "},"F":{"ha":619,"x_min":89,"x_max":607,"o":"m 89 86 q 92 134 89 117 q 96 168 96 151 l 103 632 q 104 675 103 649 q 111 726 106 701 q 127 767 117 750 q 156 785 138 785 q 204 778 179 785 q 253 772 229 772 l 488 772 q 514 778 500 775 q 543 781 528 781 q 564 773 553 781 q 585 753 575 765 q 601 727 594 742 q 607 699 607 713 q 597 649 607 667 q 561 632 586 632 q 533 638 556 632 q 481 650 510 643 q 465 649 476 650 q 427 647 453 647 q 356 644 401 646 q 236 643 310 643 q 193 646 204 643 q 189 569 190 618 q 186 453 188 519 q 215 449 188 449 q 265 451 238 449 q 304 456 293 453 l 424 474 q 463 481 444 481 q 484 474 476 481 q 495 456 492 467 q 499 435 499 446 q 500 418 500 425 q 494 378 500 392 q 477 358 489 364 q 448 349 465 351 q 408 344 431 347 q 310 333 347 338 q 249 326 272 329 q 213 322 226 324 q 188 321 200 321 l 189 85 q 188 54 189 69 q 181 25 186 39 q 168 3 176 11 q 146 -6 160 -6 q 101 20 113 -6 q 89 86 89 46 z "}}}
